{
.appVersion = "3234";
.formatVersion = 3;
axes = (
{
name = Weight;
tag = wght;
}
);
classes = (
{
automatic = 1;
code = "A Aacute Abreve Acircumflex Adieresis Agrave Amacron Aogonek Aring Atilde AE B C Cacute Ccaron Ccedilla Cdotaccent D Dcaron Dcroat Eth E Eacute Ecaron Ecircumflex Edieresis Edotaccent Egrave Emacron Eogonek F G Gbreve Gcommaaccent Gdotaccent H Hbar I IJ Iacute Icircumflex Idieresis Idotaccent Igrave Imacron Iogonek J K Kcommaaccent L Lacute Lcaron Lcommaaccent Ldot Lslash M N Nacute Ncaron Ncommaaccent Ntilde Eng O Oacute Ocircumflex Odieresis Ograve Ohungarumlaut Omacron Oslash Otilde OE P Thorn Q R Racute Rcaron Rcommaaccent S Sacute Scaron Scedilla Scommaaccent uni1E9E T Tcaron Tcommaaccent U Uacute Ubreve Ucircumflex Udieresis Ugrave Uhungarumlaut Umacron Uogonek Uring V W Wacute Wcircumflex Wdieresis Wgrave X Y Yacute Ycircumflex Ydieresis Ygrave Z Zacute Zcaron Zdotaccent";
name = Uppercase;
}
);
customParameters = (
{
name = panose;
value = (
0,
0,
0,
0,
0,
0,
0,
0,
0,
0
);
},
{
name = fsType;
value = (
);
},
{
name = "Write lastChange";
value = 0;
},
{
name = "Use Typo Metrics";
value = 1;
},
{
name = "Use Line Breaks";
value = 1;
},
{
name = "Enforce Compatibility Check";
value = 0;
},
{
name = "Variable Font Origin";
value = master01;
}
);
date = "2023-06-08 18:31:24 +0000";
familyName = Mekorot;
featurePrefixes = (
{
automatic = 1;
code = "languagesystem DFLT dflt;

languagesystem latn dflt;
languagesystem latn ROM;
languagesystem latn MOL;
languagesystem latn CAT;

languagesystem hebr dflt;
languagesystem hebr IWR;
";
name = Languagesystems;
}
);
features = (
{
automatic = 1;
code = "feature locl;
feature sups;
feature frac;
feature ordn;
feature case;
";
tag = aalt;
},
{
code = "lookup ccmp_Other_1 {
    @CombiningTopAccents = [acutecomb commaturnedabovecomb gravecomb tildecomb];
    sub [i j iogonek]' @CombiningTopAccents by [idotless_ogonekcomb];

glyphs = (
{
glyphname = "alef-hb";
kernLeft = "alef-hb";
kernRight = "alef-hb";
layers = (
{
anchors = (
{
name = bottom;
pos = (125,0);
},
{
name = bottomleft;
pos = (-56,0);
},
{
name = center;
pos = (305,334);
},
{
name = top;
pos = (547,800);
},
{
name = topleft;
pos = (67,604);
}
);
layerId = master01;
shapes = (
{
closed = 1;
nodes = (
(-5,-29,o),
(-8,-19,o),
(-8,-4,cs),
(-8,11,o),
(42,192,o),
(56,256,cs),
(67,307,o),
(92,382,o),
(147,437,cs),
(156,446,o),
(164,454,o),
(164,459,cs),
(164,464,o),
(160,467,o),
(138,470,cs),
(105,475,o),
(101,494,o),
(101,517,cs),
(101,570,o),
(132,635,o),
(163,636,cs),
(198,637,o),
(203,639,o),
(208,653,cs),
(231,720,o),
(258,758,o),
(298,811,cs),
(340,863,o),
(359,888,o),
(424,888,cs),
(455,888,o),
(487,874,o),
(487,843,cs),
(487,790,o),
(369,744,o),
(310,696,cs),
(296,685,o),
(254,646,o),
(254,636,cs),
(254,631,o),
(258,629,o),
(267,629,cs),
(294,629,o),
(337,636,o),
(381,636,cs),
(501,636,o),
(539,591,o),
(539,463,cs),
(539,289,o),
(373,22,o),
(257,22,cs),
(233,22,o),
(216,32,o),
(216,47,cs),
(216,73,o),
(224,89,o),
(247,99,cs),
(340,139,o),
(464,268,o),
(464,365,cs),
(464,449,o),
(428,466,o),
(347,465,cs),
(261,464,ls),
(244,464,o),
(231,459,o),
(192,414,cs),
(170,389,o),
(160,373,o),
(157,325,cs),
(154,275,o),
(150,137,o),
(140,88,cs),
(130,38,o),
(43,-29,o),
(7,-29,cs)
);
}
);
width = 541;
},
{
associatedMasterId = master01;
layerId = "437746D2-CA92-46A6-81C4-901113463B8A";
name = "Jun 8, 23 at 18:02";
shapes = (
{
closed = 1;
nodes = (
(219,694,o),
(257,758,o),
(297,811,cs),
(311,828,o),
(327,852,o),
(345,865,cs),
(366,880,o),
(397,888,o),
(423,888,cs),
(442,888,o),
(459,884,o),
(470,875,cs),
(479,866,o),
(488,859,o),
(486,843,cs),
(486,839,o),
(485,836,o),
(484,833,cs),
(475,801,o),
(444,781,o),
(414,763,cs),
(379,743,o),
(342,722,o),
(310,696,cs),
(293,683,o),
(276,667,o),
(263,650,cs),
(260,646,o),
(255,640,o),
(253,635,cs),
(253,634,o),
(253,633,o),
(253,632,c),
(254,630,o),
(256,629,o),
(259,629,cs),
(262,629,o),
(266,630,o),
(269,630,cs),
(286,630,o),
(302,631,o),
(319,633,cs),
(339,635,o),
(360,636,o),
(380,636,cs),
(419,636,o),
(457,631,o),
(485,614,cs),
(532,586,o),
(540,521,o),
(538,463,cs),
(536,428,o),
(530,391,o),
(520,354,cs),
(493,254,o),
(438,152,o),
(357,77,cs),
(331,53,o),
(297,27,o),
(264,22,cs),
(256,22,ls),
(242,22,o),
(225,27,o),
(218,36,cs),
(214,43,o),
(215,57,o),
(218,69,cs),
(219,74,o),
(220,78,o),
(223,82,cs),
(228,91,o),
(237,94,o),
(246,99,cs),
(260,106,o),
(274,113,o),
(288,122,cs),
(328,148,o),
(367,179,o),
(397,217,cs),
(425,251,o),
(445,291,o),
(456,329,cs),
(459,342,o),
(461,354,o),
(463,365,cs),
(465,396,o),
(461,425,o),
(440,442,cs),
(414,463,o),
(381,466,o),
(346,466,cs),
(337,466,o),
(329,466,o),
(320,466,cs),
(300,466,o),
(280,466,o),
(260,464,cs),
(256,464,l),
(249,464,ls),
(246,464,o),
(243,463,o),
(239,462,cs),
(231,459,o),
(220,443,o),
(213,437,cs),
(192,417,o),
(169,393,o),
(161,368,cs),
(160,368,o),
(160,366,o),
(160,365,c),
(156,351,o),
(157,337,o),
(156,325,cs),
(154,265,o),
(154,204,o),
(146,143,cs),
(144,126,o),
(143,105,o),
(137,86,cs),
(135,76,o),
(132,67,o),
(127,60,cs),
(120,47,o),
(106,34,o),
(96,23,cs),
(85,13,o),
(75,3,o),
(63,-6,cs),
(55,-11,o),
(46,-16,o),
(37,-20,cs),
(29,-24,o),
(16,-29,o),
(6,-29,cs),
(1,-29,o),
(-2,-28,o),
(-5,-26,c),
(-11,-19,o),
(-8,1,o),
(-6,11,cs),
(2,40,o),
(8,69,o),
(15,98,cs),
(28,145,o),
(39,192,o),
(51,238,cs),
(55,256,ls),
(66,297,o),
(80,337,o),
(103,377,cs),
(114,398,o),
(129,418,o),
(146,437,cs),
(154,446,o),
(166,454,o),
(173,463,c),
(151,464,o),
(118,470,o),
(107,485,cs),
(101,494,o),
(101,505,o),
(101,517,cs),
(101,531,o),
(104,545,o),
(107,560,cs),
(111,571,o),
(114,583,o),
(120,594,cs),
(125,606,o),
(131,621,o),
(142,629,cs),
(151,635,o),
(163,636,o),
(174,636,cs),
(185,636,o),
(195,635,o),
(203,635,c)
);
}
);
width = 541;
},
{
anchors = (
{
name = bottom;
pos = (165,0);
},
{
name = bottomleft;
pos = (-65,0);
},
{
name = center;
pos = (347,325);
},
{
name = top;
pos = (547,800);
},
{
name = topleft;
pos = (67,604);
}
);
layerId = "48B243E4-A9BC-4CE2-9E97-0DBF8BE24EDB";
shapes = (
{
closed = 1;
nodes = (
(-3,-27,o),
(-18,-15,o),
(-18,5,cs),
(-18,20,o),
(30,192,o),
(44,256,cs),
(55,307,o),
(75,371,o),
(116,426,cs),
(124,436,o),
(129,441,o),
(129,445,cs),
(129,449,o),
(124,452,o),
(109,461,cs),
(93,470,o),
(87,492,o),
(87,517,cs),
(87,570,o),
(112,638,o),
(161,650,cs),
(187,656,o),
(196,659,o),
(202,672,cs),
(233,735,o),
(268,780,o),
(309,825,cs),
(348,868,o),
(397,887,o),
(462,887,cs),
(515,887,o),
(553,859,o),
(553,830,cs),
(553,777,o),
(493,727,o),
(395,690,cs),
(381,685,o),
(333,663,o),
(333,653,cs),
(333,648,o),
(337,646,o),
(346,646,cs),
(373,646,o),
(403,653,o),
(447,653,cs),
(567,653,o),
(620,598,o),
(620,463,cs),
(620,289,o),
(462,6,o),
(296,6,cs),
(254,6,o),
(226,20,o),
(226,47,cs),
(226,82,o),
(241,112,o),
(284,130,cs),
(408,182,o),
(495,275,o),
(495,365,cs),
(495,409,o),
(480,441,o),
(398,441,cs),
(291,441,ls),
(272,441,o),
(255,427,o),
(232,406,cs),
(210,385,o),
(203,370,o),
(203,325,cs),
(203,275,o),
(204,146,o),
(194,97,cs),
(184,49,o),
(66,-27,o),
(21,-27,cs)
);
}
);
width = 636;
},
{
associatedMasterId = "48B243E4-A9BC-4CE2-9E97-0DBF8BE24EDB";
layerId = "04F2C8FE-022B-435E-BC10-3187CF637CD8";
name = "Jun 14, 23 at 22:07";
shapes = (
{
closed = 1;
nodes = (
(299,811,o),
(320,840,o),
(348,858,cs),
(384,880,o),
(430,886,o),
(455,886,cs),
(499,886,o),
(518,872,o),
(523,869,cs),
(528,866,o),
(538,859,o),
(544,850,cs),
(548,846,o),
(550,841,o),
(551,835,cs),
(552,831,o),
(552,828,o),
(551,826,cs),
(551,821,o),
(550,817,o),
(549,813,cs),
(536,762,o),
(483,732,o),
(454,717,cs),
(416,700,o),
(376,684,o),
(345,666,cs),
(336,660,o),
(327,653,o),
(319,647,c),
(329,647,o),
(339,648,o),
(349,649,cs),
(372,651,o),
(396,653,o),
(421,653,cs),
(456,653,o),
(511,650,o),
(554,628,cs),
(608,600,o),
(622,535,o),
(620,469,cs),
(618,432,o),
(612,393,o),
(602,354,cs),
(579,267,o),
(528,154,o),
(433,68,cs),
(399,39,o),
(356,12,o),
(309,8,cs),
(305,7,o),
(302,7,o),
(298,7,cs),
(258,7,o),
(241,22,o),
(236,26,cs),
(232,30,o),
(230,34,o),
(229,38,cs),
(225,50,o),
(227,65,o),
(229,72,cs),
(230,76,o),
(233,85,o),
(237,93,cs),
(238,95,l),
(239,96,ls),
(246,105,o),
(250,113,o),
(271,124,cs),
(281,128,ls),
(295,135,o),
(310,142,o),
(324,149,cs),
(367,173,o),
(405,201,o),
(435,234,cs),
(462,263,o),
(481,297,o),
(490,330,cs),
(492,341,o),
(494,351,o),
(495,362,cs),
(498,401,o),
(481,416,o),
(473,422,cs),
(449,438,o),
(418,441,o),
(379,441,cs),
(369,441,o),
(360,441,o),
(349,441,cs),
(326,441,o),
(304,441,o),
(282,439,cs),
(281,439,o),
(278,439,o),
(276,439,cs),
(275,439,o),
(272,439,o),
(270,439,c),
(264,435,o),
(258,427,o),
(251,422,cs),
(217,393,o),
(209,379,o),
(205,370,cs),
(205,370,o),
(205,368,o),
(205,368,cs),
(203,360,o),
(203,355,o),
(203,335,cs),
(204,279,o),
(208,221,o),
(202,161,cs),
(201,145,o),
(200,123,o),
(194,101,cs),
(192,92,o),
(188,81,o),
(181,71,cs),
(171,54,o),
(146,35,o),
(142,32,cs),
(130,22,o),
(117,11,o),
(100,1,cs),
(91,-4,o),
(79,-11,o),
(66,-16,cs),
(57,-19,o),
(38,-27,o),
(21,-27,cs),
(20,-27,o),
(19,-27,o),
(19,-27,cs),
(11,-26,o),
(9,-26,o),
(4,-24,cs),
(0,-23,o),
(-3,-22,o),
(-6,-19,cs),
(-8,-17,o),
(-12,-15,o),
(-14,-6,cs),
(-17,7,o),
(-14,23,o),
(-13,30,cs),
(-5,57,o),
(0,85,o),
(8,114,cs),
(20,159,o),
(30,204,o),
(42,250,cs),
(43,255,o),
(44,261,o),
(46,266,cs),
(57,307,o),
(70,349,o),
(94,391,cs),
(106,412,o),
(120,432,o),
(136,450,c),
(123,453,o),
(107,460,o),
(97,472,cs),
(88,484,o),
(87,499,o),
(87,512,cs),
(87,528,o),
(90,545,o),
(94,562,cs),
(97,574,o),
(102,586,o),
(107,598,cs),
(113,610,o),
(116,617,o),
(122,625,cs),
(127,631,o),
(132,637,o),
(141,641,cs),
(150,646,o),
(151,646,o),
(157,648,cs),
(160,649,o),
(170,652,o),
(189,652,cs),
(191,652,o),
(193,652,o),
(194,652,c),
(207,688,o),
(234,737,o),
(288,799,cs)
);
}
);
visible = 1;
width = 636;
}
);
unicode = 1488;
},
{
glyphname = "bet-hb";
kernLeft = "bet-hb";
kernRight = "bet-hb";
layers = (
{
anchors = (
{
name = bottom;
pos = (124,0);
},
{
name = center;
pos = (170,322);
}
);
layerId = master01;
shapes = (
{
closed = 1;
nodes = (
(-1,-27,o),
(-14,-25,o),
(-14,0,cs),
(-14,35,o),
(27,141,o),
(65,141,cs),
(329,141,o),
(361,171,o),
(361,196,cs),
(361,275,o),
(292,292,o),
(291,317,cs),
(291,331,o),
(295,337,o),
(313,366,cs),
(359,439,o),
(376,453,o),
(376,469,cs),
(376,476,o),
(373,480,o),
(360,480,cs),
(309,480,o),
(259,473,o),
(210,473,cs),
(177,473,o),
(157,484,o),
(157,526,cs),
(157,564,o),
(197,699,o),
(228,699,cs),
(247,699,ls),
(259,699,o),
(260,693,o),
(260,682,cs),
(260,644,o),
(300,637,o),
(368,637,cs),
(414,637,o),
(467,642,o),
(513,642,cs),
(528,642,o),
(531,638,o),
(531,632,cs),
(531,613,o),
(496,560,o),
(474,524,cs),
(463,506,o),
(435,467,o),
(435,457,cs),
(435,421,o),
(463,349,o),
(463,314,cs),
(463,129,o),
(214,-27,o),
(23,-27,cs)
);
}
);
width = 465;
},
{
anchors = (
{
name = bottom;
pos = (124,0);
},
{
name = center;
pos = (191,310);
}
);
layerId = "48B243E4-A9BC-4CE2-9E97-0DBF8BE24EDB";
shapes = (
{
closed = 1;
nodes = (
(6,-24,o),
(-10,-13,o),
(-10,20,cs),
(-10,95,o),
(47,183,o),
(105,183,cs),
(389,183,o),
(406,193,o),
(406,219,cs),
(406,251,o),
(315,289,o),
(315,321,cs),
(315,335,o),
(324,353,o),
(333,366,cs),
(371,421,o),
(393,433,o),
(393,449,cs),
(393,456,o),
(390,460,o),
(377,460,cs),
(326,460,o),
(259,450,o),
(210,450,cs),
(177,450,o),
(150,470,o),
(150,512,cs),
(150,580,o),
(201,711,o),
(262,711,cs),
(293,711,ls),
(305,711,o),
(310,704,o),
(310,692,cs),
(310,654,o),
(330,645,o),
(377,645,cs),
(434,645,o),
(529,652,o),
(595,652,cs),
(610,652,o),
(623,646,o),
(623,632,cs),
(623,613,o),
(585,559,o),
(564,524,cs),
(536,478,o),
(532,467,o),
(532,457,cs),
(532,437,o),
(555,385,o),
(555,310,cs),
(555,125,o),
(294,-24,o),
(33,-24,cs)
);
}
);
width = 560;
},
{
associatedMasterId = master01;
layerId = "CDFD7952-AB35-415B-9F45-53A8F881633C";
name = "Jun 8, 23 at 18:19";
shapes = (
{
closed = 1;
nodes = (
(405.3,478.1,o),
(387.8,480.2,o),
(370.3,480.2,cs),
(359.1,480.2,o),
(347.9,479.5,o),
(337.4,478.1,cs),
(324.8,476.7,o),
(312.9,473.2,o),
(300.3,472.5,cs),
(296.1,472.5,ls),
(282.1,472.5,o),
(268.8,475.3,o),
(255.5,477.4,cs),
(238.7,479.5,o),
(219.1,476,o),
(208.6,487.2,cs),
(192.5,504,o),
(193.9,529.9,o),
(201.6,557.2,cs),
(208.6,584.5,o),
(221.2,612.5,o),
(228.2,634.9,cs),
(233.8,651.7,o),
(238,679.7,o),
(254.8,693,cs),
(261.1,697.9,o),
(270.2,699.3,o),
(278.6,699.3,cs),
(287,699.3,o),
(294.7,697.9,o),
(301,697.9,c),
(291.9,663.6,o),
(314.3,642.6,o),
(345.1,638.4,cs),
(358.4,637,o),
(372.4,637,o),
(386.4,637,cs),
(407.4,637,l),
(422.1,637,ls),
(471.1,635.6,o),
(520.1,634.9,o),
(569.8,634.9,c),
(557.2,597.8,o),
(535.5,558.6,o),
(513.1,524.3,cs),
(504,510.3,o),
(496.3,496.3,o),
(487.9,482.3,cs),
(483.7,475.3,o),
(476.7,466.2,o),
(474.6,458.5,cs),
(473.9,457.8,o),
(473.9,457.8,o),
(473.9,457.1,cs),
(471.8,445.2,o),
(479.5,431.9,o),
(481.6,420.7,cs),
(487.9,392.7,o),
(494.9,365.4,o),
(499.1,336.7,cs),
(502.6,310.8,o),
(501.2,282.1,o),
(493.5,254.1,cs),
(488.6,236.6,o),
(482.3,219.1,o),
(473.2,203,cs),
(455,170.8,o),
(425.6,137.9,o),
(398.3,110.6,cs),
(320.6,34.3,o),
(212.8,-8.4,o),
(116.9,-21.7,cs),
(100.1,-23.8,o),
(80.5,-27.3,o),
(62.3,-27.3,cs),
(56,-27.3,o),
(50.4,-26.6,o),
(44.8,-25.9,c),
(37.1,-23.8,o),
(25.9,-21.7,o),
(25.9,-12.6,cs),
(25.2,-0.7,o),
(28,13.3,o),
(31.5,27.3,cs),
(34.3,35.7,o),
(36.4,44.1,o),
(39.9,51.8,cs),
(49.7,77.7,o),
(62.3,120.4,o),
(90.3,137.9,cs),
(96.6,141.4,o),
(103.6,140.7,o),
(109.9,140.7,cs),
(121.1,141.4,o),
(133,140.7,o),
(144.2,142.1,cs),
(152.6,143.5,o),
(161,143.5,o),
(169.4,143.5,cs),
(181.3,143.5,o),
(193.2,142.8,o),
(204.4,142.8,cs),
(243.6,142.8,o),
(284.9,143.5,o),
(326.2,153.3,cs),
(343.7,157.5,o),
(375.9,163.8,o),
(389.9,179.2,cs),
(394.8,184.8,o),
(397.6,190.4,o),
(399.7,196,c),
(401.8,205.8,o),
(400.4,215.6,o),
(397.6,224.7,cs),
(389.2,252.7,o),
(369.6,273,o),
(350.7,293.3,cs),
(345.1,298.9,o),
(331.1,308,o),
(330.4,317.1,cs),
(330.4,317.8,o),
(330.4,319.2,o),
(331.1,320.6,cs),
(331.8,324.1,o),
(333.9,327.6,o),
(335.3,330.4,cs),
(340.2,343,o),
(346.5,355.6,o),
(354.2,367.5,cs),
(376.6,401.8,o),
(403.2,436.8,o),
(420.7,473.2,c)
);
}
);
width = 600;
},
{
anchors = (
{
name = bottom;
pos = (124,0);
},
{
name = center;
pos = (170,322);
}
);
associatedMasterId = "48B243E4-A9BC-4CE2-9E97-0DBF8BE24EDB";
layerId = "29459037-26DC-47F7-A703-A7A5E433BCAF";
name = "Jun 14, 23 at 22:42";
shapes = (
{
closed = 1;
nodes = (
(392,456,o),
(383,457,o),
(374,457,cs),
(362,457,o),
(350,456,o),
(337,455,cs),
(325,454,o),
(311,450,o),
(292,449,cs),
(291,449,o),
(287,449,o),
(286,449,cs),
(265,449,o),
(248,452,o),
(233,454,cs),
(213,456,o),
(196,454,o),
(180,460,cs),
(179,461,o),
(178,461,o),
(176,462,cs),
(175,463,o),
(174,463,o),
(171,465,cs),
(170,466,o),
(170,467,o),
(167,469,cs),
(145,492,o),
(148,525,o),
(155,553,cs),
(163,581,o),
(176,609,o),
(181,627,cs),
(185,640,o),
(190,666,o),
(204,684,cs),
(207,689,o),
(212,694,o),
(218,698,cs),
(219,699,l),
(219,699,ls),
(228,704,o),
(233,709,o),
(250,710,cs),
(253,711,o),
(257,711,o),
(261,711,cs),
(272,711,o),
(282,710,o),
(287,710,cs),
(315,710,l),
(310,687,ls),
(305,669,o),
(320,656,o),
(348,653,cs),
(362,652,o),
(378,652,o),
(394,652,cs),
(402,652,o),
(411,652,o),
(419,652,cs),
(425,652,o),
(432,652,o),
(438,652,cs),
(497,651,o),
(551,650,o),
(599,650,cs),
(626,650,l),
(617,625,ls),
(604,586,o),
(582,547,o),
(559,513,cs),
(551,501,o),
(545,488,o),
(535,474,cs),
(528,463,o),
(527,461,o),
(526,460,c),
(526,459,o),
(526,459,o),
(526,459,cs),
(527,454,o),
(532,442,o),
(534,434,cs),
(540,408,o),
(548,381,o),
(553,353,cs),
(557,326,o),
(556,295,o),
(548,265,cs),
(543,247,o),
(536,228,o),
(526,211,cs),
(503,170,o),
(465,132,o),
(447,115,cs),
(362,36,o),
(227,-7,o),
(109,-19,cs),
(90,-21,o),
(66,-25,o),
(45,-25,cs),
(37,-25,o),
(30,-25,o),
(22,-23,cs),
(15,-21,o),
(6,-20,o),
(-2,-13,cs),
(-6,-9,o),
(-10,-2,o),
(-11,7,cs),
(-11,24,o),
(-7,43,o),
(-5,51,cs),
(-2,60,o),
(1,69,o),
(4,77,cs),
(17,110,o),
(29,152,o),
(67,175,cs),
(68,175,l),
(68,176,ls),
(71,177,o),
(80,181,o),
(84,181,cs),
(91,183,o),
(96,182,o),
(101,183,cs),
(110,183,o),
(126,183,o),
(136,184,cs),
(148,185,o),
(159,185,o),
(170,185,cs),
(184,185,o),
(199,184,o),
(212,184,cs),
(258,184,o),
(306,185,o),
(350,194,cs),
(377,199,o),
(394,202,o),
(404,207,cs),
(404,207,o),
(405,208,o),
(405,208,cs),
(406,209,o),
(407,211,o),
(407,211,cs),
(408,214,o),
(407,219,o),
(404,226,cs),
(394,247,o),
(372,265,o),
(347,285,cs),
(338,292,o),
(330,295,o),
(323,303,cs),
(319,308,o),
(316,313,o),
(315,317,cs),
(315,319,o),
(315,325,o),
(316,329,cs),
(318,335,o),
(321,341,o),
(322,342,cs),
(325,350,o),
(333,367,o),
(345,383,cs),
(364,408,o),
(384,432,o),
(400,455,c)
);
},
{
closed = 1;
nodes = (
(512,452,o),
(515,451,o),
(518,450,c),
(519,451,o),
(520,451,o),
(521,452,c),
(510,453,l)
);
}
);
visible = 1;
width = 560;
}
);
unicode = 1489;
},
{
glyphname = "gimel-hb";
kernLeft = "gimel-hb";
kernRight = "gimel-hb";
layers = (
{
anchors = (
{
name = bottom;
pos = (138,0);
},
{
name = center;
pos = (170,315);
}
);
layerId = master01;
shapes = (
{
closed = 1;
nodes = (
(14,-15,o),
(-38,7,o),
(-38,41,cs),
(-38,47,o),
(-33,50,o),
(-21,54,cs),
(23,69,o),
(35,106,o),
(51,132,cs),
(72,166,o),
(115,195,o),
(165,195,cs),
(191,195,o),
(227,184,o),
(251,170,cs),
(272,158,o),
(281,150,o),
(289,150,cs),
(294,150,o),
(298,154,o),
(303,172,cs),
(313,208,o),
(325,281,o),
(325,320,cs),
(325,396,o),
(311,449,o),
(253,480,cs),
(237,489,o),
(209,497,o),
(209,517,cs),
(209,559,o),
(284,662,o),
(326,662,cs),
(383,662,o),
(442,594,o),
(442,522,cs),
(442,460,o),
(377,230,o),
(317,15,cs),
(312,-4,o),
(304,-7,o),
(292,-7,cs),
(266,-7,ls),
(257,-7,o),
(255,-4,o),
(255,2,cs),
(255,8,o),
(266,32,o),
(273,54,cs),
(276,63,o),
(279,77,o),
(279,88,cs),
(279,102,o),
(265,108,o),
(249,108,cs),
(172,108,o),
(153,-15,o),
(50,-15,cs)
);
}
);
width = 426;
},
{
anchors = (
{
name = bottom;
pos = (148,0);
},
{
name = center;
pos = (240,358);
}
);
layerId = "48B243E4-A9BC-4CE2-9E97-0DBF8BE24EDB";
shapes = (
{
closed = 1;
nodes = (
(26,-16,o),
(-31,11,o),
(-31,73,cs),
(-31,81,o),
(-23,87,o),
(-8,92,cs),
(14,100,o),
(34,112,o),
(47,138,cs),
(81,204,o),
(133,245,o),
(214,245,cs),
(251,245,o),
(286,238,o),
(319,225,cs),
(332,220,o),
(339,216,o),
(348,216,cs),
(355,216,o),
(358,221,o),
(361,234,cs),
(370,272,o),
(372,301,o),
(372,340,cs),
(372,416,o),
(345,456,o),
(266,490,cs),
(243,500,o),
(221,511,o),
(221,531,cs),
(221,588,o),
(311,708,o),
(384,708,cs),
(456,708,o),
(543,648,o),
(543,562,cs),
(543,500,o),
(472,230,o),
(412,15,cs),
(407,-4,o),
(399,-7,o),
(387,-7,cs),
(312,-7,ls),
(303,-7,o),
(301,-4,o),
(301,2,cs),
(301,8,o),
(312,32,o),
(319,54,cs),
(322,63,o),
(326,81,o),
(326,92,cs),
(326,101,o),
(320,106,o),
(307,106,cs),
(267,106,o),
(205,-16,o),
(92,-16,cs)
);
}
);
width = 521;
},
{
associatedMasterId = master01;
layerId = "2ACADB5C-67C1-4633-8D01-8F6AE2B05937";
name = "Jun 8, 23 at 19:05";
shapes = (
{
closed = 1;
nodes = (
(298,154,o),
(301,165,o),
(305,175,cs),
(309,192,o),
(310,208,o),
(313,225,cs),
(326,296,o),
(338,384,o),
(300,437,cs),
(287,454,o),
(272,470,o),
(253,480,cs),
(237,489,o),
(212,495,o),
(209,517,cs),
(209,520,o),
(209,524,o),
(211,528,cs),
(213,535,o),
(216,542,o),
(219,548,cs),
(231,580,o),
(251,610,o),
(279,635,cs),
(288,643,o),
(305,659,o),
(317,661,cs),
(320,662,o),
(323,662,o),
(326,662,cs),
(372,662,o),
(403,623,o),
(425,592,cs),
(453,552,o),
(440,485,o),
(427,433,cs),
(403,333,o),
(376,232,o),
(349,132,cs),
(322,32,ls),
(319,22,o),
(311,1,o),
(300,-5,c),
(297,-7,o),
(294,-7,o),
(292,-7,cs),
(286,-7,l),
(255,-7,l),
(272,57,ls),
(273,63,o),
(276,70,o),
(278,76,c),
(279,81,o),
(279,84,o),
(279,88,cs),
(279,102,o),
(265,108,o),
(249,108,cs),
(235,108,o),
(219,103,o),
(208,96,cs),
(170,69,o),
(149,21,o),
(105,-1,cs),
(87,-11,o),
(68,-15,o),
(50,-15,cs),
(27,-15,o),
(6,-9,o),
(-10,1,cs),
(-26,12,o),
(-40,23,o),
(-38,45,c),
(-13,53,o),
(11,68,o),
(27,90,cs),
(43,113,o),
(48,136,o),
(70,155,cs),
(79,164,o),
(90,172,o),
(101,178,cs),
(123,190,o),
(144,195,o),
(165,195,cs),
(214,195,o),
(257,167,o),
(291,143,c)
);
}
);
width = 426;
},
{
anchors = (
{
name = bottom;
pos = (108,0);
},
{
name = center;
pos = (200,315);
}
);
associatedMasterId = "48B243E4-A9BC-4CE2-9E97-0DBF8BE24EDB";
layerId = "FD8B5AFF-6563-4246-963C-A7C5A0CB56F0";
name = "Jun 14, 23 at 23:02";
shapes = (
{
closed = 1;
nodes = (
(275,245,o),
(323,225,o),
(359,207,c),
(362,220,o),
(363,236,o),
(365,248,cs),
(376,325,o),
(381,399,o),
(340,443,cs),
(332,452,o),
(313,472,o),
(288,482,cs),
(268,491,o),
(241,496,o),
(228,516,cs),
(228,517,o),
(227,518,o),
(227,518,cs),
(227,518,o),
(227,519,o),
(227,519,cs),
(227,519,o),
(226,520,o),
(226,521,cs),
(225,522,o),
(225,522,o),
(225,522,cs),
(225,523,o),
(225,523,o),
(225,524,cs),
(224,524,o),
(224,525,o),
(224,526,cs),
(224,526,o),
(224,526,o),
(223,527,cs),
(223,527,o),
(223,528,o),
(223,531,cs),
(222,532,o),
(221,537,o),
(223,546,cs),
(223,547,o),
(224,550,o),
(224,551,cs),
(226,561,o),
(231,571,o),
(233,575,cs),
(248,610,o),
(274,645,o),
(310,673,cs),
(322,683,o),
(332,690,o),
(343,697,cs),
(352,702,o),
(363,707,o),
(375,708,cs),
(380,708,o),
(385,708,o),
(389,708,cs),
(455,708,o),
(499,666,o),
(523,632,cs),
(557,584,o),
(541,508,o),
(528,457,cs),
(505,357,o),
(479,257,o),
(452,158,cs),
(426,58,ls),
(423,48,o),
(419,35,o),
(409,22,cs),
(404,14,o),
(397,6,o),
(387,1,cs),
(378,-4,o),
(370,-5,o),
(365,-5,cs),
(364,-5,o),
(360,-5,o),
(359,-5,cs),
(303,-5,l),
(325,81,ls),
(327,87,o),
(330,95,o),
(331,100,cs),
(331,101,o),
(332,102,o),
(332,102,c),
(332,103,o),
(332,104,o),
(329,105,cs),
(329,105,o),
(328,105,o),
(326,106,cs),
(323,106,o),
(320,107,o),
(317,107,cs),
(306,107,o),
(293,103,o),
(288,101,cs),
(250,77,o),
(224,26,o),
(165,1,cs),
(139,-10,o),
(110,-13,o),
(85,-13,cs),
(52,-13,o),
(25,-5,o),
(5,7,cs),
(-11,17,o),
(-33,34,o),
(-30,67,cs),
(-28,87,l),
(-6,94,ls),
(13,100,o),
(30,111,o),
(40,126,cs),
(52,143,o),
(59,172,o),
(88,197,cs),
(101,208,o),
(116,216,o),
(131,224,cs),
(162,239,o),
(194,245,o),
(223,245,cs)
);
}
);
visible = 1;
width = 521;
}
);
unicode = 1490;
},
{
glyphname = "dalet-hb";
kernLeft = "dalet-hb";
kernRight = "dalet-hb";
layers = (
{
anchors = (
{
name = bottom;
pos = (178,0);
},
{
name = center;
pos = (182,348);
}
);
layerId = master01;
shapes = (
{
closed = 1;
nodes = (
(166,-29,o),
(126,28,o),
(126,58,cs),
(126,83,o),
(158,131,o),
(203,187,cs),
(340,360,ls),
(361,386,o),
(406,442,o),
(406,458,cs),
(406,469,o),
(397,474,o),
(385,474,cs),
(291,474,o),
(188,466,o),
(160,466,cs),
(119,466,o),
(83,472,o),
(83,513,cs),
(83,547,o),
(106,619,o),
(123,660,cs),
(135,689,o),
(142,694,o),
(154,694,cs),
(174,694,ls),
(186,694,o),
(191,684,o),
(192,671,cs),
(194,641,o),
(207,635,o),
(232,635,cs),
(529,635,ls),
(546,635,o),
(552,631,o),
(552,615,cs),
(552,588,o),
(533,532,o),
(505,515,cs),
(477,498,o),
(463,478,o),
(463,458,cs),
(463,420,o),
(412,318,o),
(365,228,cs),
(256,18,o),
(255,-29,o),
(196,-29,cs)
);
}
);
width = 501;
},
{
anchors = (
{
name = bottom;
pos = (178,0);
},
{
name = center;
pos = (182,318);
}
);
layerId = "48B243E4-A9BC-4CE2-9E97-0DBF8BE24EDB";
shapes = (
{
closed = 1;
nodes = (
(205,-26,o),
(145,29,o),
(145,72,cs),
(145,103,o),
(167,140,o),
(203,179,cs),
(344,333,ls),
(414,409,o),
(426,423,o),
(426,434,cs),
(426,442,o),
(420,448,o),
(406,448,cs),
(372,448,o),
(258,436,o),
(190,436,cs),
(119,436,o),
(80,450,o),
(80,498,cs),
(80,532,o),
(103,601,o),
(130,660,cs),
(141,684,o),
(153,692,o),
(170,692,cs),
(213,692,ls),
(225,692,o),
(231,684,o),
(233,671,cs),
(235,655,o),
(247,649,o),
(272,649,cs),
(612,649,ls),
(635,649,o),
(645,636,o),
(645,610,cs),
(645,553,o),
(604,506,o),
(577,485,cs),
(563,474,o),
(559,451,o),
(553,431,cs),
(536,376,o),
(490,283,o),
(441,196,cs),
(325,-10,o),
(313,-26,o),
(256,-26,cs)
);
}
);
width = 597;
},
{
associatedMasterId = master01;
layerId = "FF3B9377-3F5D-4BA1-BC35-3DF0219AE9E9";
name = "Jun 8, 23 at 19:05";
shapes = (
{
closed = 1;
nodes = (
(184,694,l),
(183,675,o),
(188,648,o),
(205,640,cs),
(216,635,o),
(230,634,o),
(245,634,cs),
(259,634,o),
(273,635,o),
(286,635,cs),
(455,635,l),
(523,635,l),
(534,635,ls),
(541,635,o),
(547,634,o),
(548,624,cs),
(550,612,o),
(549,599,o),
(546,585,cs),
(539,560,o),
(524,535,o),
(504,515,cs),
(492,501,o),
(474,497,o),
(466,480,c),
(464,476,o),
(462,472,o),
(462,467,cs),
(458,454,o),
(457,441,o),
(454,429,cs),
(453,427,ls),
(446,400,o),
(434,373,o),
(422,347,cs),
(385,265,o),
(336,184,o),
(297,102,cs),
(284,74,o),
(268,45,o),
(252,18,cs),
(245,6,o),
(238,-9,o),
(227,-18,cs),
(220,-25,o),
(206,-29,o),
(195,-29,cs),
(189,-29,o),
(185,-28,o),
(182,-27,cs),
(174,-22,o),
(168,-15,o),
(161,-8,cs),
(144,11,o),
(119,39,o),
(128,71,c),
(128,72,l),
(140,113,o),
(173,152,o),
(202,187,cs),
(339,360,ls),
(360,386,o),
(392,417,o),
(400,447,cs),
(401,451,o),
(403,455,o),
(404,460,cs),
(405,463,o),
(406,466,o),
(405,468,cs),
(404,473,o),
(391,472,o),
(387,473,cs),
(373,474,o),
(359,475,o),
(345,475,cs),
(337,475,o),
(329,475,o),
(322,474,cs),
(308,473,o),
(296,473,o),
(282,473,cs),
(247,470,o),
(213,468,o),
(178,467,cs),
(172,466,o),
(165,466,o),
(159,466,cs),
(133,466,o),
(107,469,o),
(92,483,cs),
(77,496,o),
(82,524,o),
(86,545,cs),
(87,550,o),
(89,555,o),
(90,559,cs),
(102,605,o),
(123,649,o),
(141,694,c)
);
}
);
width = 501;
},
{
anchors = (
{
name = bottom;
pos = (178,0);
},
{
name = center;
pos = (182,348);
}
);
associatedMasterId = "48B243E4-A9BC-4CE2-9E97-0DBF8BE24EDB";
layerId = "1C2F5775-EF6B-4AF3-ACE6-06E77B840DB5";
name = "Jun 14, 23 at 23:33";
shapes = (
{
closed = 1;
nodes = (
(144,692,l),
(230,692,l),
(232,682,ls),
(232,672,o),
(237,656,o),
(247,653,cs),
(250,652,o),
(261,649,o),
(283,649,cs),
(283,649,o),
(284,649,o),
(284,649,cs),
(299,649,o),
(315,650,o),
(332,650,cs),
(599,650,ls),
(602,650,o),
(605,651,o),
(610,651,cs),
(633,651,o),
(641,640,o),
(644,629,cs),
(646,615,o),
(645,600,o),
(641,585,cs),
(632,551,o),
(613,520,o),
(592,499,cs),
(574,480,o),
(568,481,o),
(562,476,cs),
(562,477,o),
(561,477,o),
(561,477,cs),
(561,476,o),
(560,474,o),
(559,471,cs),
(557,462,o),
(555,445,o),
(552,434,cs),
(552,433,o),
(551,432,o),
(551,431,cs),
(543,403,o),
(531,376,o),
(520,351,cs),
(483,268,o),
(432,191,o),
(393,114,cs),
(379,85,o),
(361,57,o),
(344,30,cs),
(339,23,o),
(329,4,o),
(311,-10,cs),
(311,-10,l),
(310,-10,ls),
(306,-13,o),
(301,-17,o),
(286,-21,cs),
(275,-25,o),
(263,-26,o),
(253,-26,cs),
(253,-26,o),
(252,-26,o),
(252,-26,cs),
(250,-26,o),
(244,-26,o),
(242,-26,cs),
(241,-26,o),
(239,-25,o),
(237,-25,cs),
(237,-25,o),
(234,-24,o),
(233,-24,cs),
(232,-24,o),
(229,-23,o),
(228,-23,cs),
(212,-17,o),
(202,-6,o),
(197,-2,cs),
(165,22,o),
(138,50,o),
(147,85,cs),
(147,86,o),
(147,87,o),
(147,87,cs),
(162,136,o),
(210,185,o),
(233,210,cs),
(379,370,ls),
(400,393,o),
(432,421,o),
(438,442,cs),
(438,442,l),
(423,444,o),
(408,445,o),
(393,445,cs),
(385,445,o),
(378,444,o),
(371,444,cs),
(361,443,o),
(353,442,o),
(345,442,cs),
(344,442,o),
(343,442,o),
(342,442,cs),
(336,442,o),
(331,442,o),
(324,442,cs),
(284,440,o),
(244,438,o),
(204,437,cs),
(197,436,o),
(188,436,o),
(180,436,cs),
(152,436,o),
(119,438,o),
(97,456,cs),
(71,478,o),
(82,523,o),
(84,533,cs),
(86,538,o),
(87,543,o),
(88,548,cs),
(100,594,o),
(121,636,o),
(137,678,cs)
);
}
);
visible = 1;
width = 597;
}
);
unicode = 1491;
},
{
glyphname = "he-hb";
kernLeft = "he-hb";
kernRight = "he-hb";
layers = (
{
anchors = (
{
name = bottom;
pos = (211,0);
},
{
name = center;
pos = (309,328);
}
);
layerId = master01;
shapes = (
{
closed = 1;
nodes = (
(106,-29,o),
(40,44,o),
(40,160,cs),
(40,224,o),
(63,303,o),
(78,337,cs),
(83,349,o),
(88,355,o),
(98,355,cs),
(111,355,ls),
(120,355,o),
(125,351,o),
(125,340,cs),
(125,331,o),
(122,317,o),
(122,307,cs),
(122,226,o),
(154,190,o),
(237,164,cs),
(261,156,o),
(276,143,o),
(276,122,cs),
(276,103,o),
(264,58,o),
(258,41,cs),
(243,-1,o),
(239,-29,o),
(188,-29,cs)
);
},
{
closed = 1;
nodes = (
(405,105,o),
(386,117,o),
(386,134,cs),
(386,150,o),
(401,180,o),
(438,215,cs),
(467,243,o),
(501,314,o),
(501,373,cs),
(501,442,o),
(437,466,o),
(330,466,cs),
(312,466,o),
(242,462,o),
(194,462,cs),
(143,462,o),
(115,473,o),
(115,515,cs),
(115,567,o),
(150,642,o),
(169,677,cs),
(174,686,o),
(181,692,o),
(190,692,cs),
(201,692,ls),
(216,692,o),
(221,687,o),
(221,666,cs),
(221,644,o),
(252,629,o),
(303,629,cs),
(338,629,o),
(373,633,o),
(407,633,cs),
(535,633,o),
(571,582,o),
(571,451,cs),
(571,353,o),
(503,105,o),
(424,105,cs)
);
}
);
width = 580;
},
{
anchors = (
{
name = bottom;
pos = (211,0);
},
{
name = center;
pos = (358,325);
}
);
layerId = "48B243E4-A9BC-4CE2-9E97-0DBF8BE24EDB";
shapes = (
{
closed = 1;
nodes = (
(114,-27,o),
(43,54,o),
(43,180,cs),
(43,244,o),
(64,327,o),
(87,373,cs),
(99,396,o),
(117,403,o),
(127,403,cs),
(166,403,ls),
(175,403,o),
(180,399,o),
(180,388,cs),
(180,379,o),
(177,365,o),
(177,355,cs),
(177,256,o),
(221,237,o),
(316,209,cs),
(340,202,o),
(359,178,o),
(359,157,cs),
(359,138,o),
(342,68,o),
(336,51,cs),
(320,8,o),
(293,-27,o),
(242,-27,cs)
);
},
{
closed = 1;
nodes = (
(444,82,o),
(421,102,o),
(421,127,cs),
(421,153,o),
(430,179,o),
(471,216,cs),
(501,243,o),
(543,296,o),
(543,355,cs),
(543,424,o),
(472,442,o),
(391,442,cs),
(287,442,o),
(215,439,o),
(197,439,cs),
(146,439,o),
(111,457,o),
(111,501,cs),
(111,553,o),
(152,658,o),
(175,690,cs),
(182,700,o),
(194,707,o),
(203,707,cs),
(244,707,ls),
(259,707,o),
(264,702,o),
(264,681,cs),
(264,659,o),
(277,651,o),
(348,651,cs),
(383,651,o),
(438,655,o),
(472,655,cs),
(600,655,o),
(664,610,o),
(664,479,cs),
(664,361,o),
(596,82,o),
(483,82,cs)
);
}
);
width = 675;
},
{
associatedMasterId = master01;
layerId = "5D0D966B-8937-4924-8793-E86AFD8FCDD8";
name = "Jun 8, 23 at 19:35";
shapes = (
{
closed = 1;
nodes = (
(116,305,o),
(121,249,o),
(149,214,cs),
(160,200,o),
(177,190,o),
(192,181,cs),
(217,167,o),
(257,165,o),
(273,140,cs),
(279,130,o),
(275,116,o),
(273,103,cs),
(270,88,o),
(266,73,o),
(263,58,cs),
(259,42,o),
(253,27,o),
(246,12,cs),
(241,1,o),
(232,-17,o),
(221,-24,cs),
(215,-28,o),
(207,-28,o),
(201,-29,cs),
(197,-29,o),
(192,-29,o),
(188,-29,cs),
(173,-29,o),
(159,-27,o),
(147,-22,cs),
(122,-11,o),
(96,5,o),
(79,25,cs),
(38,76,o),
(33,154,o),
(46,227,cs),
(49,241,o),
(51,255,o),
(55,269,cs),
(60,288,o),
(66,306,o),
(74,323,cs),
(77,330,o),
(81,350,o),
(88,354,cs),
(89,355,o),
(91,355,o),
(93,355,cs),
(99,355,l),
(126,355,l)
);
},
{
closed = 1;
nodes = (
(181,692,o),
(186,692,o),
(189,692,cs),
(201,692,ls),
(208,692,o),
(215,691,o),
(219,686,cs),
(224,680,o),
(219,671,o),
(221,664,cs),
(228,644,o),
(245,634,o),
(267,631,cs),
(279,630,o),
(291,629,o),
(303,629,cs),
(338,629,o),
(373,633,o),
(407,633,cs),
(456,633,o),
(501,627,o),
(534,594,cs),
(559,571,o),
(566,533,o),
(570,498,cs),
(575,446,o),
(568,389,o),
(553,333,cs),
(543,298,o),
(531,262,o),
(516,228,cs),
(504,200,o),
(491,174,o),
(476,147,cs),
(468,132,o),
(461,118,o),
(443,109,cs),
(437,106,o),
(431,105,o),
(424,105,cs),
(408,105,o),
(394,112,o),
(388,123,cs),
(385,129,o),
(385,137,o),
(387,145,cs),
(388,149,o),
(390,153,o),
(392,157,c),
(402,177,o),
(422,197,o),
(438,215,cs),
(455,236,o),
(470,259,o),
(480,283,cs),
(487,296,o),
(492,310,o),
(496,324,cs),
(498,333,o),
(500,342,o),
(501,351,cs),
(502,363,o),
(502,377,o),
(500,388,cs),
(483,459,o),
(403,466,o),
(330,466,cs),
(312,466,o),
(294,466,o),
(278,466,cs),
(259,466,o),
(240,465,o),
(221,465,cs),
(212,465,o),
(203,464,o),
(194,464,cs),
(173,464,o),
(152,466,o),
(136,476,cs),
(114,489,o),
(114,511,o),
(118,538,cs),
(119,549,o),
(121,559,o),
(124,568,cs),
(130,592,o),
(140,615,o),
(150,638,cs),
(156,651,o),
(162,664,o),
(169,677,cs),
(171,680,o),
(174,687,o),
(178,690,cs)
);
}
);
width = 580;
},
{
associatedMasterId = "48B243E4-A9BC-4CE2-9E97-0DBF8BE24EDB";
layerId = "E6EDB722-F402-4E8B-916F-429D2B9CF377";
name = "Jun 14, 23 at 23:58";
shapes = (
{
closed = 1;
nodes = (
(194,705,o),
(202,707,o),
(208,707,cs),
(208,707,o),
(213,707,o),
(213,707,cs),
(216,707,o),
(219,707,o),
(223,707,cs),
(223,707,o),
(225,707,o),
(225,707,cs),
(237,707,o),
(245,706,o),
(254,700,cs),
(258,698,o),
(259,696,o),
(260,696,cs),
(261,693,o),
(266,688,o),
(266,685,cs),
(269,676,o),
(268,677,o),
(268,671,c),
(271,665,o),
(280,655,o),
(304,653,cs),
(316,653,o),
(329,652,o),
(342,652,cs),
(379,652,o),
(419,655,o),
(459,655,cs),
(516,655,o),
(576,649,o),
(619,612,cs),
(651,584,o),
(658,540,o),
(662,505,cs),
(668,450,o),
(660,391,o),
(645,333,cs),
(635,296,o),
(622,259,o),
(607,224,cs),
(595,196,o),
(582,169,o),
(567,141,cs),
(560,129,o),
(552,115,o),
(538,102,cs),
(538,102,o),
(536,101,o),
(534,99,cs),
(533,98,o),
(532,97,o),
(529,95,cs),
(528,95,o),
(527,94,o),
(524,92,cs),
(523,92,o),
(522,91,o),
(519,89,cs),
(509,85,o),
(498,82,o),
(486,82,cs),
(466,82,o),
(438,90,o),
(427,108,cs),
(425,110,o),
(420,117,o),
(421,132,cs),
(421,137,o),
(422,142,o),
(423,146,cs),
(424,152,o),
(427,158,o),
(430,163,cs),
(443,188,o),
(466,209,o),
(484,228,cs),
(501,247,o),
(514,267,o),
(524,288,cs),
(530,300,o),
(535,312,o),
(538,324,cs),
(540,332,o),
(541,340,o),
(542,347,cs),
(543,358,o),
(543,368,o),
(540,377,cs),
(523,432,o),
(452,441,o),
(366,441,cs),
(346,441,o),
(326,441,o),
(308,441,cs),
(287,440,o),
(266,440,o),
(244,440,cs),
(234,440,o),
(224,439,o),
(213,439,cs),
(188,439,o),
(161,440,o),
(140,453,cs),
(109,471,o),
(108,499,o),
(113,532,cs),
(114,543,o),
(117,553,o),
(119,564,cs),
(126,588,o),
(135,612,o),
(146,635,cs),
(152,649,o),
(159,662,o),
(165,675,cs),
(168,680,o),
(169,683,o),
(170,685,cs),
(177,695,o),
(184,700,o),
(186,701,cs)
);
},
{
closed = 1;
nodes = (
(173,341,o),
(176,289,o),
(207,257,cs),
(217,247,o),
(235,237,o),
(253,228,cs),
(276,216,o),
(330,213,o),
(351,182,cs),
(357,174,o),
(356,172,o),
(358,167,cs),
(358,165,o),
(358,163,o),
(359,162,cs),
(360,150,o),
(357,136,o),
(356,131,cs),
(353,116,o),
(350,100,o),
(346,84,cs),
(341,67,o),
(336,50,o),
(327,33,cs),
(323,26,o),
(316,9,o),
(302,-5,cs),
(296,-11,o),
(291,-15,o),
(285,-18,cs),
(284,-18,l),
(284,-18,ls),
(279,-20,o),
(275,-23,o),
(262,-25,cs),
(261,-25,o),
(258,-25,o),
(257,-26,cs),
(255,-26,o),
(252,-26,o),
(250,-26,cs),
(244,-27,o),
(238,-27,o),
(232,-27,cs),
(211,-27,o),
(193,-24,o),
(176,-18,cs),
(145,-7,o),
(113,10,o),
(91,33,cs),
(72,53,o),
(27,116,o),
(50,249,cs),
(52,264,o),
(55,279,o),
(59,294,cs),
(64,313,o),
(71,333,o),
(78,352,cs),
(83,362,o),
(84,371,o),
(90,381,cs),
(94,386,o),
(99,393,o),
(106,397,cs),
(113,402,o),
(119,404,o),
(128,404,cs),
(128,404,o),
(133,403,o),
(133,403,cs),
(184,403,l),
(180,381,ls)
);
}
);
visible = 1;
width = 675;
}
);
unicode = 1492;
},
{
glyphname = "vav-hb";
kernLeft = "vav-hb";
kernRight = "vav-hb";
layers = (
{
anchors = (
{
name = bottom;
pos = (104,0);
},
{
name = bottomleft;
},
{
name = center;
pos = (67,270);
},
{
name = top;
pos = (235,630);
},
{
name = topleft;
pos = (206,630);
}
);
layerId = master01;
shapes = (
{
closed = 1;
nodes = (
(84,-19,o),
(81,-13,o),
(81,-6,cs),
(81,9,o),
(98,32,o),
(138,174,cs),
(156,238,o),
(161,286,o),
(161,330,cs),
(161,377,o),
(150,433,o),
(113,461,cs),
(96,474,o),
(72,488,o),
(72,505,cs),
(72,541,o),
(145,656,o),
(194,656,cs),
(239,656,o),
(292,600,o),
(292,547,cs),
(292,450,o),
(215,216,o),
(183,120,cs),
(148,14,o),
(136,0,o),
(129,-7,cs),
(120,-16,o),
(106,-19,o),
(93,-19,cs)
);
}
);
width = 308;
},
{
anchors = (
{
name = bottom;
pos = (137,0);
},
{
name = bottomleft;
pos = (50,0);
},
{
name = center;
pos = (77,279);
},
{
name = top;
pos = (255,630);
},
{
name = topleft;
pos = (256,680);
}
);
layerId = "48B243E4-A9BC-4CE2-9E97-0DBF8BE24EDB";
shapes = (
{
closed = 1;
nodes = (
(126,-19,o),
(117,-13,o),
(117,-3,cs),
(117,12,o),
(122,28,o),
(173,162,cs),
(197,226,o),
(202,248,o),
(202,284,cs),
(202,349,o),
(193,402,o),
(113,458,cs),
(83,479,o),
(72,490,o),
(72,509,cs),
(72,577,o),
(161,689,o),
(226,689,cs),
(334,689,o),
(390,631,o),
(390,568,cs),
(390,450,o),
(316,239,o),
(284,143,cs),
(249,37,o),
(237,13,o),
(220,0,cs),
(202,-14,o),
(151,-19,o),
(138,-19,cs)
);
}
);
width = 404;
},
{
associatedMasterId = master01;
layerId = "B40780A4-1869-4634-A08D-7FE1BFB47021";
name = "Jun 8, 23 at 20:27";
shapes = (
{
closed = 1;
nodes = (
(97,46,o),
(120,111,o),
(138,174,cs),
(155,238,o),
(166,301,o),
(159,362,cs),
(155,401,o),
(138,434,o),
(113,460,cs),
(99,476,o),
(68,485,o),
(73,512,cs),
(73,515,o),
(74,517,o),
(75,520,cs),
(84,555,o),
(114,595,o),
(140,623,cs),
(153,638,o),
(166,651,o),
(185,655,cs),
(188,655,o),
(191,656,o),
(194,656,cs),
(206,656,o),
(217,651,o),
(227,645,cs),
(255,630,o),
(278,605,o),
(288,573,cs),
(292,557,o),
(292,536,o),
(290,517,cs),
(288,485,o),
(282,452,o),
(273,420,cs),
(271,410,o),
(268,400,o),
(264,391,cs),
(236,301,o),
(213,211,o),
(180,120,cs),
(169,90,o),
(161,59,o),
(148,28,cs),
(144,19,o),
(139,0,o),
(131,-7,cs),
(121,-15,o),
(104,-17,o),
(91,-17,cs),
(81,-17,l)
);
}
);
width = 308;
},
{
associatedMasterId = "48B243E4-A9BC-4CE2-9E97-0DBF8BE24EDB";
layerId = "C3C5A40C-0F00-4347-AC9B-D8AE27056013";
name = "Jun 15, 23 at 00:46";
shapes = (
{
closed = 1;
nodes = (
(207,255,o),
(209,314,o),
(189,369,cs),
(177,404,o),
(147,434,o),
(119,458,cs),
(104,471,o),
(84,477,o),
(75,498,cs),
(73,506,o),
(72,516,o),
(74,526,cs),
(75,529,o),
(76,533,o),
(77,536,cs),
(83,559,o),
(101,597,o),
(148,648,cs),
(160,661,o),
(180,682,o),
(213,687,cs),
(221,689,o),
(228,689,o),
(235,689,cs),
(250,689,o),
(270,689,o),
(305,677,cs),
(353,659,o),
(375,627,o),
(385,598,cs),
(391,578,o),
(390,555,o),
(389,537,cs),
(387,504,o),
(381,470,o),
(372,437,cs),
(369,427,o),
(366,417,o),
(363,407,cs),
(336,318,o),
(313,228,o),
(281,138,cs),
(270,108,o),
(261,77,o),
(248,45,cs),
(244,35,o),
(242,25,o),
(236,16,cs),
(235,14,o),
(234,12,o),
(233,11,cs),
(233,10,o),
(231,8,o),
(229,6,cs),
(228,5,o),
(226,2,o),
(223,1,cs),
(217,-3,o),
(211,-8,o),
(194,-12,cs),
(182,-14,o),
(170,-14,o),
(163,-14,cs),
(160,-14,o),
(151,-14,o),
(148,-14,cs),
(114,-14,l),
(119,3,ls),
(136,67,o),
(165,131,o),
(186,194,cs)
);
}
);
visible = 1;
width = 404;
}
);
unicode = 1493;
},
{
glyphname = "zayin-hb";
layers = (
{
anchors = (
{
name = bottom;
pos = (47,0);
},
{
name = bottomleft;
pos = (-33,0);
},
{
name = center;
pos = (0,254);
},
{
name = top;
pos = (344,660);
},
{
name = topleft;
pos = (217,660);
}
);
layerId = master01;
shapes = (
{
closed = 1;
nodes = (
(9,-27,o),
(3,-24,o),
(3,-15,cs),
(3,-8,o),
(11,5,o),
(16,18,cs),
(35,67,o),
(49,116,o),
(61,165,cs),
(83,243,o),
(108,342,o),
(108,398,cs),
(108,447,o),
(106,465,o),
(106,490,cs),
(106,538,o),
(124,566,o),
(166,596,cs),
(206,624,o),
(248,652,o),
(286,652,cs),
(308,652,o),
(314,636,o),
(314,544,cs),
(314,532,o),
(306,517,o),
(303,512,cs),
(286,475,o),
(251,452,o),
(219,426,cs),
(184,398,o),
(171,378,o),
(171,359,cs),
(171,342,o),
(175,333,o),
(175,310,cs),
(175,220,o),
(121,78,o),
(79,11,cs),
(64,-14,o),
(49,-27,o),
(18,-27,cs)
);
}
);
width = 270;
},
{
anchors = (
{
name = bottom;
pos = (47,0);
},
{
name = bottomleft;
pos = (-33,0);
},
{
name = center;
pos = (-9,314);
},
{
name = top;
pos = (344,660);
},
{
name = topleft;
pos = (217,660);
}
);
layerId = "48B243E4-A9BC-4CE2-9E97-0DBF8BE24EDB";
shapes = (
{
closed = 1;
nodes = (
(18,-25,o),
(3,-17,o),
(3,0,cs),
(3,12,o),
(11,27,o),
(16,40,cs),
(35,89,o),
(49,116,o),
(61,165,cs),
(83,243,o),
(109,362,o),
(109,418,cs),
(109,467,o),
(107,495,o),
(107,520,cs),
(107,568,o),
(125,598,o),
(166,629,cs),
(223,672,o),
(308,699,o),
(376,699,cs),
(398,699,o),
(411,681,o),
(411,652,cs),
(411,567,o),
(405,543,o),
(391,520,cs),
(372,489,o),
(316,443,o),
(285,417,cs),
(273,407,o),
(263,399,o),
(263,387,cs),
(263,373,o),
(271,358,o),
(271,330,cs),
(271,240,o),
(214,100,o),
(172,33,cs),
(157,8,o),
(115,-25,o),
(36,-25,cs)
);
}
);
width = 366;
},
{
associatedMasterId = master01;
layerId = "80B529D2-415B-4762-A102-2DA165424DF0";
name = "Jun 8, 23 at 20:33";
shapes = (
{
closed = 1;
nodes = (
(312,652,o),
(310,629,o),
(310,620,cs),
(312,592,o),
(318,560,o),
(310,530,cs),
(308,524,o),
(306,517,o),
(303,512,cs),
(286,475,o),
(249,452,o),
(219,426,cs),
(203,413,o),
(187,400,o),
(178,382,cs),
(176,378,o),
(175,374,o),
(174,370,cs),
(169,354,o),
(172,339,o),
(173,323,cs),
(174,305,o),
(172,285,o),
(169,265,cs),
(166,248,o),
(163,230,o),
(158,211,cs),
(145,167,o),
(128,121,o),
(111,76,cs),
(102,53,o),
(93,33,o),
(79,11,cs),
(71,-2,o),
(60,-17,o),
(45,-23,cs),
(39,-26,o),
(32,-27,o),
(25,-27,cs),
(14,-27,l),
(10,-26,o),
(4,-26,o),
(2,-23,cs),
(2,-22,o),
(2,-20,o),
(3,-17,cs),
(4,-15,o),
(5,-12,o),
(6,-10,cs),
(9,-1,o),
(11,9,o),
(16,18,cs),
(34,66,o),
(49,116,o),
(61,165,cs),
(83,243,o),
(103,321,o),
(108,398,cs),
(110,430,o),
(109,459,o),
(109,490,cs),
(109,505,o),
(110,520,o),
(114,535,cs),
(116,540,o),
(117,545,o),
(120,550,cs),
(129,571,o),
(148,583,o),
(166,596,cs),
(206,624,o),
(252,652,o),
(296,652,cs),
(299,652,ls)
);
}
);
width = 270;
},
{
associatedMasterId = "48B243E4-A9BC-4CE2-9E97-0DBF8BE24EDB";
layerId = "08D83699-ABCC-462D-BFF5-4773E5563445";
name = "Jun 15, 23 at 00:57";
shapes = (
{
closed = 1;
nodes = (
(384,697,o),
(395,697,o),
(402,684,cs),
(408,672,o),
(406,656,o),
(407,649,cs),
(408,624,o),
(416,589,o),
(406,553,cs),
(404,545,o),
(401,537,o),
(397,529,cs),
(376,487,o),
(338,461,o),
(305,433,cs),
(280,413,o),
(273,410,o),
(267,400,cs),
(265,398,o),
(265,396,o),
(264,394,cs),
(261,384,o),
(265,381,o),
(271,355,cs),
(271,355,l),
(271,354,ls),
(272,334,o),
(270,313,o),
(267,293,cs),
(265,274,o),
(261,255,o),
(256,237,cs),
(243,190,o),
(225,144,o),
(209,99,cs),
(200,75,o),
(190,52,o),
(167,27,cs),
(147,6,o),
(129,-7,o),
(102,-16,cs),
(100,-17,o),
(98,-17,o),
(93,-19,cs),
(74,-24,o),
(56,-24,o),
(45,-24,cs),
(40,-24,o),
(36,-24,o),
(33,-24,cs),
(31,-24,o),
(25,-23,o),
(23,-23,cs),
(11,-20,o),
(7,-12,o),
(6,-10,cs),
(3,-4,o),
(4,3,o),
(5,9,cs),
(7,14,o),
(8,17,o),
(9,20,cs),
(13,28,o),
(15,37,o),
(19,48,cs),
(36,93,o),
(51,142,o),
(63,190,cs),
(64,192,o),
(64,194,o),
(65,197,cs),
(85,272,o),
(103,346,o),
(108,418,cs),
(110,447,o),
(108,476,o),
(109,508,cs),
(109,522,o),
(109,539,o),
(114,558,cs),
(116,565,o),
(118,571,o),
(121,578,cs),
(135,609,o),
(162,625,o),
(179,637,cs),
(224,669,o),
(301,699,o),
(374,699,cs),
(375,699,o),
(377,699,o),
(377,699,cs),
(378,699,l),
(379,698,ls)
);
}
);
visible = 1;
width = 366;
}
);
unicode = 1494;
},
{
glyphname = "het-hb";
kernLeft = "het-hb";
kernRight = "het-hb";
layers = (
{
anchors = (
{
name = bottom;
pos = (177,0);
}
);
layerId = master01;
shapes = (
{
closed = 1;
nodes = (
(25,-29,o),
(16,-11,o),
(16,3,cs),
(16,18,o),
(123,351,o),
(137,381,cs),
(150,408,o),
(191,429,o),
(191,461,cs),
(191,479,o),
(144,484,o),
(144,501,cs),
(144,525,o),
(188,648,o),
(200,675,cs),
(205,686,o),
(211,695,o),
(220,695,cs),
(227,695,o),
(234,695,o),
(241,695,cs),
(250,695,o),
(256,688,o),
(261,660,cs),
(264,643,o),
(280,633,o),
(324,633,cs),
(369,633,o),
(397,636,o),
(425,636,cs),
(525,636,o),
(574,620,o),
(574,488,cs),
(574,284,o),
(433,22,o),
(278,22,cs),
(254,22,o),
(250,42,o),
(250,56,cs),
(250,85,o),
(303,111,o),
(340,129,cs),
(426,171,o),
(502,297,o),
(502,392,cs),
(502,439,o),
(472,467,o),
(374,467,cs),
(352,467,o),
(276,468,o),
(264,468,cs),
(255,468,o),
(249,463,o),
(236,442,cs),
(223,421,o),
(210,401,o),
(205,380,cs),
(200,361,o),
(185,113,o),
(177,83,cs),
(163,34,o),
(77,-29,o),
(37,-29,cs)
);
}
);
width = 541;
},
{
anchors = (
{
name = bottom;
pos = (187,0);
}
);
layerId = "48B243E4-A9BC-4CE2-9E97-0DBF8BE24EDB";
shapes = (
{
closed = 1;
nodes = (
(33,-27,o),
(19,0,o),
(19,23,cs),
(19,38,o),
(118,355,o),
(132,385,cs),
(145,412,o),
(165,430,o),
(165,442,cs),
(165,450,o),
(139,461,o),
(139,488,cs),
(139,532,o),
(184,648,o),
(196,675,cs),
(201,686,o),
(210,692,o),
(220,695,cs),
(233,699,o),
(261,702,o),
(281,702,cs),
(290,702,o),
(295,695,o),
(299,679,cs),
(304,660,o),
(315,656,o),
(364,656,cs),
(409,656,o),
(437,659,o),
(465,659,cs),
(625,659,o),
(665,619,o),
(665,477,cs),
(665,273,o),
(514,6,o),
(320,6,cs),
(286,6,o),
(268,32,o),
(268,56,cs),
(268,85,o),
(291,115,o),
(340,134,cs),
(472,185,o),
(542,285,o),
(542,380,cs),
(542,427,o),
(508,441,o),
(360,441,cs),
(338,441,o),
(312,442,o),
(300,442,cs),
(291,442,o),
(286,437,o),
(284,433,cs),
(279,423,o),
(258,392,o),
(255,380,cs),
(250,361,o),
(257,140,o),
(237,91,cs),
(220,50,o),
(117,-27,o),
(57,-27,cs)
);
}
);
width = 636;
},
{
associatedMasterId = master01;
layerId = "7156E10F-082F-4160-AABC-F23EC0924CF6";
name = "Jun 8, 23 at 21:26";
shapes = (
{
closed = 1;
nodes = (
(191,479,o),
(150,481,o),
(147,498,c),
(146,508,o),
(150,519,o),
(151,528,c),
(158,556,l),
(164,579,o),
(172,602,o),
(181,625,c),
(187,643,o),
(195,660,o),
(202,678,c),
(203,682,o),
(206,692,o),
(211,694,c),
(214,695,o),
(219,695,o),
(223,695,c),
(230,695,o),
(237,694,o),
(243,694,c),
(246,694,o),
(252,695,o),
(254,693,c),
(259,688,o),
(258,671,o),
(261,664,c),
(266,648,o),
(280,644,o),
(297,641,c),
(317,636,o),
(338,636,o),
(359,636,c),
(381,636,o),
(403,636,o),
(425,636,c),
(443,636,o),
(460,636,o),
(477,634,c),
(501,629,o),
(529,622,o),
(544,605,c),
(568,576,o),
(574,529,o),
(574,488,c),
(575,443,o),
(569,395,o),
(556,346,c),
(538,279,o),
(506,211,o),
(463,152,c),
(427,103,o),
(383,53,o),
(326,32,c),
(310,27,o),
(295,25,o),
(280,23,c),
(277,23,o),
(274,22,o),
(270,22,c),
(268,22,o),
(265,23,o),
(263,25,c),
(256,29,o),
(255,36,o),
(252,43,c),
(250,50,o),
(249,55,o),
(251,62,c),
(251,63,o),
(252,65,o),
(253,67,c),
(268,102,o),
(310,112,o),
(340,129,c),
(374,147,o),
(406,176,o),
(430,206,c),
(460,244,o),
(482,287,o),
(493,330,c),
(495,339,o),
(497,348,o),
(499,357,c),
(504,385,o),
(505,411,o),
(491,433,c),
(479,450,o),
(458,459,o),
(437,463,c),
(417,467,o),
(396,468,o),
(374,468,c),
(352,468,o),
(330,467,o),
(308,466,c),
(298,466,l),
(289,466,o),
(279,466,o),
(268,467,c),
(266,467,o),
(261,468,o),
(257,468,c),
(256,468,o),
(255,468,o),
(254,468,cs),
(247,466,o),
(239,447,o),
(236,442,c),
(223,422,o),
(210,402,o),
(205,380,c),
(203,373,o),
(202,366,o),
(202,358,c),
(202,330,o),
(195,298,o),
(193,270,c),
(191,224,o),
(191,178,o),
(184,132,c),
(182,118,o),
(181,99,o),
(177,83,c),
(175,76,o),
(172,70,o),
(169,64,c),
(164,55,o),
(156,46,o),
(149,39,c),
(125,13,o),
(94,-13,o),
(61,-24,c),
(55,-27,o),
(46,-29,o),
(39,-29,c),
(38,-29,o),
(37,-29,o),
(36,-29,c),
(24,-27,o),
(16,-9,o),
(16,3,c),
(16,4,o),
(17,6,o),
(17,8,cs),
(17,12,o),
(21,16,o),
(22,20,c),
(25,33,o),
(28,46,o),
(32,58,c),
(43,89,o),
(50,119,o),
(60,150,c),
(109,302,l),
(117,328,o),
(125,356,o),
(137,381,c),
(151,409,o),
(191,429,o),
(191,461,cs)
);
}
);
width = 541;
},
{
anchors = (
{
name = bottom;
pos = (177,0);
}
);
associatedMasterId = "48B243E4-A9BC-4CE2-9E97-0DBF8BE24EDB";
layerId = "EEC7820F-8EDD-4A12-906D-3035658AB6DD";
name = "Jun 15, 23 at 11:24";
shapes = (
{
closed = 1;
nodes = (
(158,452,o),
(144,465,o),
(140,483,cs),
(137,497,o),
(142,509,o),
(144,518,cs),
(145,527,o),
(147,537,o),
(150,546,cs),
(156,569,o),
(164,591,o),
(172,613,cs),
(178,631,o),
(186,648,o),
(192,663,cs),
(195,672,o),
(194,670,o),
(195,672,cs),
(203,689,o),
(214,695,o),
(223,698,cs),
(227,699,o),
(233,700,o),
(242,700,cs),
(249,700,o),
(259,699,o),
(262,699,cs),
(263,699,o),
(267,699,o),
(268,699,cs),
(274,699,o),
(280,699,o),
(286,695,cs),
(300,687,o),
(301,675,o),
(303,670,cs),
(303,670,l),
(303,670,l),
(306,666,o),
(311,664,o),
(333,661,cs),
(354,659,o),
(377,658,o),
(401,658,cs),
(425,658,o),
(450,659,o),
(476,659,cs),
(497,659,o),
(518,658,o),
(539,656,cs),
(566,652,o),
(607,646,o),
(629,622,cs),
(661,586,o),
(664,526,o),
(665,496,cs),
(666,449,o),
(660,399,o),
(646,349,cs),
(626,271,o),
(591,202,o),
(551,148,cs),
(512,96,o),
(463,42,o),
(389,18,cs),
(368,12,o),
(348,9,o),
(329,8,cs),
(327,8,o),
(321,7,o),
(316,7,cs),
(309,7,o),
(301,8,o),
(295,12,cs),
(289,15,o),
(284,17,o),
(278,29,cs),
(276,33,o),
(275,36,o),
(274,39,cs),
(273,40,o),
(272,44,o),
(271,45,cs),
(269,51,o),
(267,59,o),
(270,69,cs),
(270,71,o),
(272,76,o),
(273,79,cs),
(296,126,o),
(354,139,o),
(388,155,cs),
(419,170,o),
(452,196,o),
(475,222,cs),
(505,255,o),
(525,293,o),
(535,331,cs),
(537,340,o),
(539,348,o),
(540,356,cs),
(544,382,o),
(543,400,o),
(531,416,cs),
(518,431,o),
(491,436,o),
(480,438,cs),
(459,442,o),
(436,443,o),
(413,443,cs),
(389,443,o),
(364,442,o),
(339,441,cs),
(334,440,o),
(330,440,o),
(325,440,cs),
(312,440,o),
(301,441,o),
(290,442,cs),
(290,442,o),
(290,442,o),
(289,442,c),
(288,439,o),
(286,436,o),
(284,434,cs),
(271,415,o),
(260,398,o),
(256,383,cs),
(255,379,o),
(254,374,o),
(255,369,cs),
(257,339,o),
(251,309,o),
(251,284,cs),
(250,242,o),
(253,198,o),
(248,152,cs),
(246,140,o),
(246,122,o),
(241,103,cs),
(239,95,o),
(236,87,o),
(231,78,cs),
(223,65,o),
(207,51,o),
(204,48,cs),
(151,-2,o),
(106,-16,o),
(92,-21,cs),
(85,-23,o),
(72,-27,o),
(61,-27,cs),
(57,-27,o),
(54,-27,o),
(52,-26,cs),
(48,-25,o),
(41,-24,o),
(32,-14,cs),
(24,-4,o),
(19,11,o),
(19,24,cs),
(19,26,o),
(20,31,o),
(20,33,cs),
(22,38,o),
(24,44,o),
(25,46,cs),
(28,57,o),
(31,69,o),
(35,82,cs),
(44,109,o),
(51,137,o),
(61,168,cs),
(77,214,o),
(90,261,o),
(106,309,cs),
(114,333,o),
(121,360,o),
(134,388,cs),
(145,409,o),
(158,425,o),
(172,444,c)
);
}
);
visible = 1;
width = 636;
}
);
unicode = 1495;
},
{
glyphname = "tet-hb";
kernLeft = "tet-hb";
kernRight = "tet-hb";
layers = (
{
anchors = (
{
name = bottom;
pos = (284,0);
},
{
name = center;
pos = (364,327);
}
);
layerId = master01;
shapes = (
{
closed = 1;
nodes = (
(35,-103,o),
(6,-99,o),
(6,-86,cs),
(6,-48,o),
(147,133,o),
(147,370,cs),
(147,483,o),
(81,510,o),
(81,536,cs),
(81,576,o),
(163,673,o),
(209,673,cs),
(238,673,o),
(243,639,o),
(243,539,cs),
(243,387,o),
(180,215,o),
(180,185,cs),
(180,148,o),
(246,141,o),
(282,141,cs),
(423,141,o),
(535,248,o),
(535,389,cs),
(535,450,o),
(482,497,o),
(423,497,cs),
(385,497,o),
(344,460,o),
(318,460,cs),
(310,460,o),
(306,475,o),
(306,488,cs),
(306,511,o),
(315,518,o),
(331,532,cs),
(475,663,ls),
(483,670,o),
(489,677,o),
(500,677,cs),
(565,677,o),
(610,565,o),
(610,500,cs),
(610,303,o),
(478,-24,o),
(213,-24,cs),
(149,-24,o),
(126,-7,o),
(117,-7,cs),
(106,-7,o),
(100,-26,o),
(97,-33,cs),
(74,-86,o),
(65,-103,o),
(52,-103,cs)
);
}
);
width = 619;
},
{
anchors = (
{
name = bottom;
pos = (364,0);
},
{
name = center;
pos = (495,346);
}
);
layerId = "48B243E4-A9BC-4CE2-9E97-0DBF8BE24EDB";
shapes = (
{
closed = 1;
nodes = (
(23,-103,o),
(6,-99,o),
(6,-86,cs),
(6,-48,o),
(186,116,o),
(186,303,cs),
(186,416,o),
(81,494,o),
(81,536,cs),
(81,579,o),
(153,707,o),
(259,707,cs),
(328,707,o),
(342,691,o),
(342,539,cs),
(342,417,o),
(290,265,o),
(290,235,cs),
(290,202,o),
(310,191,o),
(396,191,cs),
(537,191,o),
(631,273,o),
(631,389,cs),
(631,450,o),
(568,482,o),
(509,482,cs),
(471,482,o),
(439,450,o),
(413,450,cs),
(395,450,o),
(382,484,o),
(382,502,cs),
(382,540,o),
(409,570,o),
(434,591,cs),
(536,675,ls),
(566,700,o),
(583,709,o),
(601,709,cs),
(706,709,o),
(756,603,o),
(756,500,cs),
(756,263,o),
(596,-24,o),
(281,-24,cs),
(217,-24,o),
(198,-7,o),
(189,-7,cs),
(178,-7,o),
(172,-26,o),
(169,-33,cs),
(146,-86,o),
(133,-103,o),
(110,-103,cs)
);
}
);
width = 763;
},
{
associatedMasterId = master01;
layerId = "343FA831-E1E5-49F6-BD7E-1BE65D6DF9D0";
name = "Jun 8, 23 at 21:54";
shapes = (
{
closed = 1;
nodes = (
(307,472,o),
(304,491,o),
(307,503,cs),
(308,505,o),
(309,507,o),
(309,508,cs),
(315,520,o),
(336,534,o),
(346,543,cs),
(435,627,l),
(475,663,ls),
(479,667,o),
(485,675,o),
(491,676,c),
(492,677,o),
(493,677,o),
(495,677,cs),
(500,677,o),
(507,675,o),
(512,673,cs),
(531,669,o),
(549,659,o),
(561,645,cs),
(583,617,o),
(591,578,o),
(601,543,cs),
(605,531,o),
(610,517,o),
(610,503,cs),
(612,471,o),
(605,433,o),
(600,400,cs),
(596,379,o),
(591,358,o),
(586,337,cs),
(558,232,o),
(501,122,o),
(406,47,cs),
(387,32,o),
(367,17,o),
(346,6,cs),
(303,-16,o),
(256,-24,o),
(213,-24,cs),
(200,-24,o),
(188,-23,o),
(176,-22,cs),
(161,-21,o),
(147,-17,o),
(133,-13,cs),
(129,-12,o),
(122,-7,o),
(117,-7,cs),
(115,-7,l),
(106,-10,o),
(99,-26,o),
(97,-33,cs),
(90,-48,o),
(84,-62,o),
(76,-78,cs),
(72,-85,o),
(67,-95,o),
(59,-101,cs),
(57,-102,o),
(55,-103,o),
(52,-103,cs),
(50,-103,o),
(48,-102,o),
(45,-102,cs),
(33,-101,o),
(22,-99,o),
(9,-98,c),
(51,-18,o),
(83,65,o),
(109,148,cs),
(113,162,o),
(118,176,o),
(121,189,cs),
(138,251,o),
(148,312,o),
(147,370,cs),
(146,393,o),
(146,419,o),
(139,440,cs),
(134,459,o),
(122,474,o),
(112,490,cs),
(106,501,o),
(98,511,o),
(90,521,cs),
(87,525,o),
(82,530,o),
(81,536,cs),
(81,537,o),
(82,538,o),
(82,540,c),
(83,543,o),
(85,547,o),
(85,550,cs),
(96,578,o),
(118,603,o),
(140,627,cs),
(149,637,o),
(158,648,o),
(169,656,cs),
(180,665,o),
(196,673,o),
(209,673,cs),
(213,673,o),
(218,672,o),
(222,670,cs),
(228,666,o),
(230,655,o),
(232,648,cs),
(237,630,o),
(241,611,o),
(242,591,cs),
(246,524,o),
(240,451,o),
(226,380,cs),
(211,305,o),
(189,229,o),
(175,153,c),
(195,152,o),
(214,146,o),
(234,144,cs),
(250,142,o),
(266,141,o),
(282,141,cs),
(326,141,o),
(373,149,o),
(416,177,cs),
(473,213,o),
(514,270,o),
(529,328,cs),
(542,378,o),
(536,428,o),
(503,462,cs),
(493,473,o),
(482,481,o),
(468,487,cs),
(454,493,o),
(439,497,o),
(423,497,cs),
(422,497,ls),
(385,496,o),
(346,477,o),
(309,463,c)
);
}
);
width = 613;
},
{
anchors = (
{
name = bottom;
pos = (284,0);
},
{
name = center;
pos = (364,327);
}
);
associatedMasterId = "48B243E4-A9BC-4CE2-9E97-0DBF8BE24EDB";
layerId = "FA16B779-E254-4AB4-8EF9-F2344708766E";
name = "Jun 15, 23 at 12:24";
shapes = (
{
closed = 1;
nodes = (
(358,522,o),
(360,527,o),
(362,529,cs),
(362,530,o),
(364,534,o),
(371,541,cs),
(373,543,o),
(374,543,o),
(375,544,cs),
(388,556,o),
(401,564,o),
(409,570,cs),
(510,653,l),
(553,689,ls),
(565,699,o),
(567,700,o),
(570,702,cs),
(577,706,o),
(583,707,o),
(588,708,cs),
(591,709,o),
(597,709,o),
(600,709,cs),
(611,709,o),
(621,707,o),
(625,706,cs),
(647,702,o),
(676,693,o),
(696,672,cs),
(727,641,o),
(736,601,o),
(746,568,cs),
(748,560,o),
(754,542,o),
(755,525,cs),
(758,490,o),
(751,452,o),
(746,419,cs),
(742,398,o),
(738,376,o),
(732,354,cs),
(704,247,o),
(646,132,o),
(538,53,cs),
(516,38,o),
(491,23,o),
(461,10,cs),
(403,-14,o),
(342,-22,o),
(285,-22,cs),
(269,-22,o),
(253,-21,o),
(238,-20,cs),
(218,-18,o),
(198,-15,o),
(179,-10,cs),
(179,-10,o),
(179,-10,o),
(178,-10,c),
(176,-16,ls),
(169,-31,o),
(162,-46,o),
(153,-62,cs),
(151,-66,o),
(147,-72,o),
(143,-78,cs),
(137,-85,o),
(130,-90,o),
(124,-94,cs),
(121,-95,o),
(111,-101,o),
(95,-101,cs),
(86,-101,o),
(88,-100,o),
(83,-100,cs),
(71,-99,o),
(53,-96,o),
(40,-96,cs),
(5,-95,l),
(21,-70,ls),
(66,8,o),
(99,89,o),
(162,171,c),
(166,183,o),
(170,195,o),
(173,207,cs),
(189,266,o),
(192,324,o),
(175,380,cs),
(168,403,o),
(160,426,o),
(145,443,cs),
(144,444,l),
(144,444,ls),
(137,457,o),
(125,471,o),
(115,486,cs),
(109,495,o),
(102,505,o),
(94,515,cs),
(88,523,o),
(89,521,o),
(87,523,cs),
(85,528,o),
(82,534,o),
(82,542,cs),
(82,545,o),
(83,551,o),
(84,555,cs),
(85,560,o),
(87,564,o),
(88,567,cs),
(101,602,o),
(126,629,o),
(148,652,cs),
(157,662,o),
(166,673,o),
(180,684,cs),
(203,701,o),
(240,706,o),
(264,706,cs),
(287,706,o),
(300,703,o),
(307,701,cs),
(314,699,o),
(318,697,o),
(322,690,cs),
(326,684,o),
(328,676,o),
(329,672,cs),
(335,653,o),
(339,633,o),
(340,612,cs),
(345,544,o),
(339,470,o),
(325,399,cs),
(312,332,o),
(294,265,o),
(281,201,c),
(299,198,o),
(314,195,o),
(329,194,cs),
(346,192,o),
(364,191,o),
(382,191,cs),
(431,191,o),
(478,198,o),
(519,220,cs),
(575,250,o),
(613,298,o),
(625,345,cs),
(637,389,o),
(628,431,o),
(594,459,cs),
(583,466,o),
(569,471,o),
(555,474,cs),
(536,481,o),
(521,482,o),
(513,482,cs),
(512,482,ls),
(475,481,o),
(446,470,o),
(393,457,cs),
(369,449,l),
(362,467,ls),
(358,476,o),
(352,499,o),
(358,519,cs)
);
}
);
visible = 1;
width = 763;
}
);
unicode = 1496;
},
{
glyphname = "yod-hb";
kernLeft = "yod-hb";
kernRight = "yod-hb";
layers = (
{
anchors = (
{
name = bottom;
pos = (55,0);
},
{
name = center;
pos = (45,388);
}
);
layerId = master01;
shapes = (
{
closed = 1;
nodes = (
(95,242,o),
(80,262,o),
(80,270,cs),
(80,274,o),
(80,279,o),
(91,286,cs),
(152,324,o),
(194,379,o),
(194,417,cs),
(194,427,o),
(188,436,o),
(165,445,cs),
(113,465,o),
(75,489,o),
(75,524,cs),
(75,566,o),
(97,606,o),
(137,666,cs),
(145,678,o),
(151,683,o),
(160,683,cs),
(166,683,o),
(171,683,o),
(177,683,cs),
(185,683,o),
(188,679,o),
(188,672,cs),
(188,666,o),
(185,658,o),
(185,651,cs),
(185,620,o),
(245,604,o),
(274,587,cs),
(295,575,o),
(307,552,o),
(307,524,cs),
(307,478,o),
(247,339,o),
(125,252,cs),
(118,247,o),
(112,242,o),
(106,242,cs)
);
}
);
width = 270;
},
{
anchors = (
{
name = bottom;
pos = (55,0);
},
{
name = center;
pos = (25,371);
}
);
layerId = "48B243E4-A9BC-4CE2-9E97-0DBF8BE24EDB";
shapes = (
{
closed = 1;
nodes = (
(115,225,o),
(79,262,o),
(79,270,cs),
(79,278,o),
(80,285,o),
(91,292,cs),
(152,330,o),
(221,372,o),
(221,405,cs),
(221,420,o),
(206,422,o),
(133,437,cs),
(80,448,o),
(71,473,o),
(71,508,cs),
(71,550,o),
(94,600,o),
(134,660,cs),
(142,672,o),
(154,678,o),
(163,680,cs),
(178,684,o),
(206,692,o),
(232,692,cs),
(245,692,o),
(249,688,o),
(249,681,cs),
(249,671,o),
(244,660,o),
(244,653,cs),
(244,637,o),
(266,623,o),
(314,604,cs),
(379,578,o),
(401,557,o),
(401,524,cs),
(401,478,o),
(336,305,o),
(197,241,cs),
(162,225,o),
(153,225,o),
(140,225,cs)
);
}
);
width = 367;
},
{
associatedMasterId = master01;
layerId = "915C70BD-B082-42EB-BB13-F77FB393AB06";
name = "Jun 8, 23 at 22:46";
shapes = (
{
closed = 1;
nodes = (
(192,687,l),
(191,688,l)
);
},
{
closed = 1;
nodes = (
(191,687,l),
(190,683,o),
(188,680,o),
(187,676,c),
(187,675,o),
(186,673,o),
(186,673,cs),
(185,664,o),
(184,652,o),
(187,645,cs),
(201,612,o),
(247,604,o),
(274,587,cs),
(294,573,o),
(309,552,o),
(307,524,cs),
(306,518,o),
(305,512,o),
(303,506,cs),
(301,499,o),
(299,491,o),
(296,484,cs),
(272,412,o),
(226,343,o),
(166,287,cs),
(153,274,o),
(139,263,o),
(125,252,cs),
(119,246,o),
(112,242,o),
(105,242,cs),
(103,242,o),
(100,242,o),
(98,243,cs),
(93,245,o),
(91,253,o),
(88,257,cs),
(85,260,o),
(80,265,o),
(80,270,cs),
(80,272,l),
(81,276,o),
(88,279,o),
(91,282,c),
(102,291,o),
(112,300,o),
(123,310,cs),
(148,333,o),
(182,368,o),
(191,401,cs),
(194,409,o),
(194,417,o),
(193,424,cs),
(192,434,o),
(173,441,o),
(165,445,cs),
(138,458,o),
(108,468,o),
(89,489,cs),
(72,506,o),
(72,531,o),
(79,557,cs),
(87,587,o),
(106,620,o),
(123,645,cs),
(131,657,o),
(140,669,o),
(147,682,c)
);
}
);
width = 270;
},
{
anchors = (
{
name = bottom;
pos = (55,0);
},
{
name = center;
pos = (45,389);
}
);
associatedMasterId = "48B243E4-A9BC-4CE2-9E97-0DBF8BE24EDB";
layerId = "B473180C-28E8-4088-95A3-6D7F828C7184";
name = "Jun 15, 23 at 13:05";
shapes = (
{
closed = 1;
nodes = (
(263,691,l),
(249,676,l),
(246,671,o),
(245,671,o),
(245,670,c),
(244,657,o),
(244,647,o),
(246,643,cs),
(262,615,o),
(320,607,o),
(356,586,cs),
(381,572,o),
(402,552,o),
(401,524,cs),
(401,517,o),
(400,512,o),
(398,506,cs),
(396,497,o),
(393,488,o),
(390,481,cs),
(365,405,o),
(316,332,o),
(253,273,cs),
(253,272,l),
(252,272,ls),
(235,261,o),
(217,251,o),
(197,241,cs),
(194,240,l),
(191,241,ls),
(184,242,o),
(176,243,o),
(165,244,c),
(159,243,o),
(153,243,o),
(149,243,cs),
(142,243,o),
(135,243,o),
(130,244,cs),
(114,242,o),
(117,242,o),
(112,241,c),
(108,240,o),
(103,239,o),
(101,239,cs),
(98,238,l),
(96,240,ls),
(89,245,o),
(88,246,o),
(86,248,cs),
(85,249,o),
(83,251,o),
(82,252,cs),
(82,252,l),
(82,253,ls),
(81,254,o),
(80,256,o),
(80,257,cs),
(79,259,o),
(79,262,o),
(79,264,cs),
(79,266,o),
(79,271,o),
(80,273,cs),
(80,274,l),
(81,276,ls),
(84,279,o),
(88,289,o),
(93,293,cs),
(93,293,l),
(93,293,ls),
(99,298,o),
(103,299,o),
(106,301,cs),
(119,309,o),
(133,318,o),
(147,327,cs),
(157,334,o),
(214,372,o),
(222,401,cs),
(222,404,o),
(223,408,o),
(222,413,c),
(219,414,o),
(212,418,o),
(192,423,cs),
(154,433,o),
(112,439,o),
(88,456,cs),
(88,456,l),
(87,457,ls),
(68,482,o),
(67,517,o),
(77,556,cs),
(86,591,o),
(111,628,o),
(122,644,cs),
(129,655,o),
(141,671,o),
(146,680,cs),
(149,684,l),
(156,679,l)
);
}
);
visible = 1;
width = 367;
}
);
unicode = 1497;
},
{
glyphname = "kafFinal-hb";
kernLeft = "kafFinal-hb";
kernRight = "kafFinal-hb";
layers = (
{
anchors = (
{
name = bottom;
pos = (142,-317);
},
{
name = center;
pos = (155,317);
}
);
layerId = master01;
shapes = (
{
closed = 1;
nodes = (
(120,-342,o),
(116,-326,o),
(116,-311,cs),
(116,-299,o),
(124,-266,o),
(131,-238,cs),
(226,124,ls),
(248,208,o),
(265,294,o),
(314,375,cs),
(349,433,o),
(354,444,o),
(354,455,cs),
(354,464,o),
(347,468,o),
(337,468,cs),
(148,468,ls),
(109,468,o),
(80,479,o),
(80,515,cs),
(80,528,o),
(101,604,o),
(124,666,cs),
(128,677,o),
(138,689,o),
(147,689,cs),
(155,689,o),
(163,689,o),
(171,689,cs),
(181,689,o),
(184,682,o),
(187,670,cs),
(194,641,o),
(226,628,o),
(262,628,cs),
(290,628,o),
(335,634,o),
(366,634,cs),
(436,634,o),
(460,604,o),
(460,547,cs),
(460,472,o),
(390,395,o),
(363,304,cs),
(345,242,o),
(297,-148,o),
(283,-193,cs),
(261,-263,o),
(193,-342,o),
(135,-342,cs)
);
}
);
width = 465;
},
{
anchors = (
{
name = bottom;
pos = (142,-317);
},
{
name = center;
pos = (171,300);
}
);
layerId = "48B243E4-A9BC-4CE2-9E97-0DBF8BE24EDB";
shapes = (
{
closed = 1;
nodes = (
(168,-338,o),
(153,-324,o),
(153,-296,cs),
(153,-284,o),
(162,-241,o),
(169,-213,cs),
(259,137,ls),
(276,204,o),
(326,314,o),
(354,375,cs),
(365,399,o),
(384,419,o),
(384,430,cs),
(384,439,o),
(377,443,o),
(367,443,cs),
(148,443,ls),
(109,443,o),
(79,471,o),
(79,507,cs),
(79,520,o),
(100,598,o),
(123,660,cs),
(127,671,o),
(137,679,o),
(149,685,cs),
(159,690,o),
(207,699,o),
(215,699,cs),
(225,699,o),
(230,692,o),
(234,676,cs),
(239,656,o),
(282,649,o),
(326,649,cs),
(370,649,o),
(402,655,o),
(452,655,cs),
(522,655,o),
(555,612,o),
(555,555,cs),
(555,480,o),
(488,403,o),
(462,319,cs),
(443,257,o),
(401,-126,o),
(387,-171,cs),
(365,-241,o),
(285,-338,o),
(197,-338,cs)
);
}
);
width = 560;
},
{
associatedMasterId = master01;
layerId = "67C87A27-BED9-4DB1-927D-F25EFC518527";
name = "Jun 9, 23 at 20:32";
shapes = (
{
closed = 1;
nodes = (
(183,468,ls),
(172,468,o),
(160,468,o),
(148,468,cs),
(129,468,o),
(111,470,o),
(97,481,cs),
(73,500,o),
(80,525,o),
(88,557,c),
(89,558,l),
(96,583,o),
(103,608,o),
(113,633,cs),
(127,671,ls),
(129,675,o),
(131,683,o),
(134,686,cs),
(138,689,o),
(145,688,o),
(148,689,cs),
(160,690,o),
(173,692,o),
(185,694,c),
(178,641,o),
(228,628,o),
(274,628,c),
(274,628,l),
(302,628,o),
(335,634,o),
(366,634,cs),
(398,634,o),
(426,628,o),
(444,606,cs),
(450,598,o),
(454,588,o),
(456,578,cs),
(460,567,o),
(460,554,o),
(459,540,cs),
(458,530,o),
(456,519,o),
(454,509,cs),
(435,440,o),
(381,373,o),
(363,304,cs),
(360,295,ls),
(349,240,o),
(342,186,o),
(334,130,cs),
(325,75,o),
(316,19,o),
(309,-37,cs),
(304,-74,o),
(298,-111,o),
(292,-148,cs),
(289,-163,o),
(287,-178,o),
(283,-193,cs),
(281,-199,ls),
(268,-242,o),
(239,-280,o),
(202,-310,cs),
(177,-329,o),
(155,-342,o),
(129,-342,cs),
(125,-342,ls),
(110,-341,o),
(113,-309,o),
(115,-297,cs),
(117,-290,o),
(118,-283,o),
(120,-277,cs),
(123,-265,o),
(127,-251,o),
(131,-239,cs),
(155,-147,l),
(222,108,l),
(226,124,ls),
(248,208,o),
(272,291,o),
(314,375,cs),
(330,407,o),
(351,438,o),
(372,468,c)
);
}
);
width = 465;
},
{
anchors = (
{
name = bottom;
pos = (142,-317);
},
{
name = center;
pos = (155,317);
}
);
associatedMasterId = "48B243E4-A9BC-4CE2-9E97-0DBF8BE24EDB";
layerId = "54989B4E-EBD7-4BD2-AC51-6CC315FA55AC";
name = "Jun 15, 23 at 15:14";
shapes = (
{
closed = 1;
nodes = (
(213,443,ls),
(200,443,o),
(185,442,o),
(169,442,cs),
(144,442,o),
(120,444,o),
(101,459,cs),
(70,484,o),
(77,518,o),
(87,554,cs),
(87,556,ls),
(94,581,o),
(102,607,o),
(112,633,cs),
(115,643,o),
(120,653,o),
(124,663,cs),
(128,672,o),
(129,673,o),
(130,676,cs),
(131,676,o),
(131,676,o),
(131,677,cs),
(132,678,o),
(137,683,o),
(139,685,cs),
(141,686,l),
(142,686,ls),
(146,687,o),
(154,692,o),
(159,693,cs),
(163,693,o),
(168,694,o),
(169,694,cs),
(182,695,o),
(194,696,o),
(205,698,cs),
(233,702,l),
(232,682,ls),
(232,661,o),
(267,650,o),
(327,650,cs),
(328,650,ls),
(360,650,o),
(402,655,o),
(439,655,cs),
(478,655,o),
(513,648,o),
(535,622,cs),
(539,617,o),
(545,607,o),
(551,591,cs),
(556,576,o),
(555,560,o),
(555,547,cs),
(554,535,o),
(551,523,o),
(549,512,cs),
(530,443,o),
(478,377,o),
(461,316,cs),
(461,313,o),
(460,311,o),
(460,309,cs),
(448,257,o),
(443,205,o),
(435,152,cs),
(428,98,o),
(420,45,o),
(413,-8,cs),
(408,-45,o),
(402,-82,o),
(396,-119,cs),
(394,-133,o),
(392,-149,o),
(387,-167,cs),
(387,-168,o),
(386,-172,o),
(386,-174,cs),
(370,-223,o),
(337,-267,o),
(295,-300,cs),
(252,-334,o),
(219,-338,o),
(195,-338,cs),
(193,-338,o),
(193,-338,o),
(192,-338,cs),
(191,-338,o),
(188,-338,o),
(188,-338,cs),
(179,-336,o),
(170,-336,o),
(161,-324,cs),
(156,-317,o),
(150,-302,o),
(155,-273,cs),
(156,-265,o),
(158,-257,o),
(160,-250,cs),
(163,-236,o),
(167,-224,o),
(170,-212,cs),
(178,-182,o),
(185,-152,o),
(193,-121,cs),
(215,-40,o),
(235,41,o),
(256,122,cs),
(260,138,l),
(261,138,ls),
(294,218,o),
(316,299,o),
(359,382,cs),
(371,403,o),
(383,423,o),
(397,443,c)
);
}
);
visible = 1;
width = 560;
}
);
unicode = 1498;
},
{
glyphname = "kaf-hb";
kernLeft = "kaf-hb";
kernRight = "kaf-hb";
layers = (
{
anchors = (
{
name = bottom;
pos = (116,0);
},
{
name = center;
pos = (212,329);
}
);
layerId = master01;
shapes = (
{
closed = 1;
nodes = (
(-15,-17,o),
(-22,-9,o),
(-22,5,cs),
(-22,23,o),
(-7,72,o),
(6,106,cs),
(21,144,o),
(32,158,o),
(91,160,cs),
(311,169,o),
(406,274,o),
(406,397,cs),
(406,460,o),
(363,476,o),
(299,476,cs),
(271,476,o),
(242,473,o),
(213,473,cs),
(143,473,o),
(111,481,o),
(111,521,cs),
(111,573,o),
(151,664,o),
(163,687,cs),
(169,698,o),
(176,703,o),
(184,704,cs),
(191,705,o),
(198,706,o),
(205,707,cs),
(216,709,o),
(222,706,o),
(222,698,cs),
(222,693,o),
(221,688,o),
(221,683,cs),
(221,647,o),
(255,642,o),
(290,642,cs),
(313,642,o),
(335,644,o),
(348,644,cs),
(446,644,o),
(484,591,o),
(483,493,cs),
(483,359,o),
(423,217,o),
(313,107,cs),
(206,0,o),
(68,-17,o),
(-3,-17,cs)
);
}
);
width = 465;
},
{
anchors = (
{
name = bottom;
pos = (116,0);
},
{
name = center;
pos = (249,323);
}
);
layerId = "48B243E4-A9BC-4CE2-9E97-0DBF8BE24EDB";
shapes = (
{
closed = 1;
nodes = (
(-4,-15,o),
(-20,-8,o),
(-20,15,cs),
(-20,40,o),
(-2,104,o),
(13,138,cs),
(28,172,o),
(52,199,o),
(106,199,cs),
(316,199,o),
(443,255,o),
(443,378,cs),
(443,421,o),
(417,447,o),
(353,447,cs),
(325,447,o),
(285,441,o),
(213,441,cs),
(122,441,o),
(102,477,o),
(102,509,cs),
(102,573,o),
(139,647,o),
(152,670,cs),
(159,683,o),
(176,695,o),
(186,699,cs),
(195,703,o),
(220,707,o),
(241,707,cs),
(255,707,o),
(264,700,o),
(264,687,cs),
(264,682,o),
(263,677,o),
(263,672,cs),
(263,652,o),
(293,642,o),
(331,642,cs),
(354,642,o),
(375,645,o),
(408,645,cs),
(506,645,o),
(570,591,o),
(570,493,cs),
(570,365,o),
(524,206,o),
(376,91,cs),
(264,3,o),
(87,-15,o),
(16,-15,cs)
);
}
);
width = 560;
},
{
associatedMasterId = master01;
layerId = "72679B35-482E-4784-9A87-970EB43B9819";
name = "Jun 9, 23 at 21:09";
shapes = (
{
closed = 1;
nodes = (
(218,708,o),
(221,709,o),
(222,707,c),
(223,705,o),
(221,699,o),
(221,695,cs),
(221,688,o),
(221,680,o),
(223,673,cs),
(228,659,o),
(247,652,o),
(262,648,cs),
(277,644,o),
(293,643,o),
(310,643,cs),
(323,643,o),
(335,644,o),
(348,644,cs),
(372,644,o),
(395,643,o),
(415,634,cs),
(437,623,o),
(454,603,o),
(465,582,cs),
(491,531,o),
(484,465,o),
(471,403,cs),
(468,391,o),
(466,379,o),
(463,368,cs),
(439,279,o),
(393,193,o),
(322,118,cs),
(319,115,o),
(317,111,o),
(313,107,cs),
(251,48,o),
(169,10,o),
(93,-6,cs),
(67,-11,o),
(42,-14,o),
(18,-15,cs),
(11,-16,o),
(4,-17,o),
(-3,-17,cs),
(-12,-17,l),
(-26,-14,o),
(-19,13,o),
(-17,25,cs),
(-16,34,o),
(-16,44,o),
(-14,54,c),
(-13,55,l),
(-9,71,o),
(1,89,o),
(6,106,cs),
(12,122,o),
(18,139,o),
(34,149,cs),
(52,160,o),
(74,158,o),
(91,160,cs),
(126,162,o),
(162,166,o),
(198,172,cs),
(250,183,o),
(307,207,o),
(348,250,cs),
(359,262,o),
(370,275,o),
(377,288,cs),
(384,301,o),
(389,314,o),
(394,326,cs),
(396,332,o),
(398,339,o),
(400,346,cs),
(412,393,o),
(410,446,o),
(368,465,cs),
(347,474,o),
(324,476,o),
(299,476,cs),
(271,476,o),
(242,473,o),
(213,473,cs),
(207,473,o),
(200,473,o),
(193,473,cs),
(170,475,o),
(137,477,o),
(122,494,cs),
(113,503,o),
(111,522,o),
(111,538,cs),
(112,549,o),
(114,560,o),
(118,571,cs),
(124,596,o),
(136,622,o),
(145,648,cs),
(150,662,o),
(154,673,o),
(163,687,cs),
(165,691,o),
(167,697,o),
(172,701,cs),
(175,704,o),
(181,704,o),
(184,704,cs),
(216,708,ls)
);
}
);
width = 465;
},
{
anchors = (
{
name = bottom;
pos = (116,0);
},
{
name = center;
pos = (212,329);
}
);
associatedMasterId = "48B243E4-A9BC-4CE2-9E97-0DBF8BE24EDB";
layerId = "A0AF769F-3769-4F05-9C8A-631D211D4B62";
name = "Jun 15, 23 at 15:30";
shapes = (
{
closed = 1;
nodes = (
(247,705,o),
(256,701,o),
(258,699,cs),
(259,699,o),
(259,698,o),
(259,698,cs),
(267,690,o),
(263,683,o),
(263,680,cs),
(262,672,o),
(263,668,o),
(264,665,cs),
(265,661,o),
(274,653,o),
(295,648,cs),
(311,645,o),
(328,644,o),
(347,644,cs),
(361,644,o),
(376,645,o),
(392,645,cs),
(420,645,o),
(451,644,o),
(480,634,cs),
(498,627,o),
(529,613,o),
(549,579,cs),
(581,524,o),
(571,454,o),
(560,401,cs),
(558,390,o),
(556,378,o),
(553,367,cs),
(530,280,o),
(483,194,o),
(410,121,cs),
(409,120,o),
(410,121,o),
(409,119,cs),
(409,119,o),
(409,119,o),
(409,119,cs),
(407,116,o),
(405,113,o),
(400,110,cs),
(314,40,o),
(204,9,o),
(130,-4,cs),
(99,-9,o),
(69,-12,o),
(41,-13,cs),
(33,-14,o),
(27,-15,o),
(18,-15,cs),
(14,-15,o),
(10,-15,o),
(6,-14,cs),
(5,-14,l),
(4,-14,ls),
(-1,-12,o),
(-11,-11,o),
(-17,1,cs),
(-22,14,o),
(-19,28,o),
(-17,40,cs),
(-16,46,o),
(-16,58,o),
(-13,69,cs),
(-13,70,o),
(-13,70,o),
(-13,71,cs),
(-7,90,o),
(0,103,o),
(7,121,cs),
(12,136,o),
(18,155,o),
(34,171,cs),
(39,176,o),
(44,180,o),
(49,184,cs),
(74,201,o),
(95,198,o),
(123,200,cs),
(163,202,o),
(204,206,o),
(244,212,cs),
(325,223,o),
(372,250,o),
(394,269,cs),
(404,278,o),
(414,289,o),
(421,299,cs),
(425,307,o),
(428,314,o),
(434,329,cs),
(436,334,o),
(438,340,o),
(439,346,cs),
(450,387,o),
(443,424,o),
(407,436,cs),
(386,443,o),
(362,446,o),
(334,446,cs),
(303,446,o),
(269,442,o),
(234,442,cs),
(225,442,o),
(217,443,o),
(209,443,cs),
(194,444,o),
(140,445,o),
(118,467,cs),
(114,471,o),
(100,488,o),
(102,521,cs),
(103,534,o),
(105,547,o),
(108,559,cs),
(115,586,o),
(127,611,o),
(135,633,cs),
(139,645,o),
(144,658,o),
(154,673,cs),
(159,682,o),
(160,684,o),
(163,687,cs),
(164,689,o),
(167,691,o),
(169,692,cs),
(170,692,l),
(171,692,ls),
(175,694,o),
(184,699,o),
(189,701,cs),
(189,701,o),
(190,701,o),
(191,701,cs),
(194,701,o),
(197,701,o),
(198,702,cs),
(208,703,o),
(219,704,o),
(229,706,cs),
(231,706,o),
(235,707,o),
(236,706,cs)
);
}
);
visible = 1;
width = 560;
}
);
unicode = 1499;
},
{
glyphname = "lamed-hb";
kernLeft = "lamed-hb";
kernRight = "lamed-hb";
layers = (
{
anchors = (
{
name = bottom;
pos = (35,0);
},
{
name = center;
pos = (168,316);
}
);
layerId = master01;
shapes = (
{
closed = 1;
nodes = (
(-37,-40,o),
(-40,-32,o),
(-40,-13,cs),
(-40,7,o),
(-21,54,o),
(-15,70,cs),
(7,130,o),
(26,143,o),
(58,146,cs),
(188,158,o),
(306,249,o),
(306,337,cs),
(306,399,o),
(281,418,o),
(209,456,cs),
(163,480,o),
(151,490,o),
(151,503,cs),
(151,523,o),
(161,557,o),
(169,582,cs),
(213,726,ls),
(224,762,o),
(233,783,o),
(233,798,cs),
(233,823,o),
(218,846,o),
(202,864,cs),
(197,870,o),
(180,884,o),
(180,895,cs),
(180,910,o),
(202,955,o),
(212,971,cs),
(225,992,o),
(237,1000,o),
(255,1000,cs),
(281,1000,o),
(360,955,o),
(360,930,cs),
(360,914,o),
(353,898,o),
(347,883,cs),
(266,680,ls),
(263,673,o),
(261,665,o),
(261,660,cs),
(261,653,o),
(266,650,o),
(281,645,cs),
(368,616,o),
(388,517,o),
(388,460,cs),
(388,260,o),
(179,-40,o),
(-16,-40,cs)
);
}
);
width = 387;
},
{
anchors = (
{
name = bottom;
pos = (35,0);
},
{
name = center;
pos = (168,316);
}
);
layerId = "48B243E4-A9BC-4CE2-9E97-0DBF8BE24EDB";
shapes = (
{
closed = 1;
nodes = (
(-25,-37,o),
(-40,-25,o),
(-40,0,cs),
(-40,20,o),
(-31,49,o),
(-16,84,cs),
(23,175,o),
(42,189,o),
(103,198,cs),
(252,221,o),
(345,260,o),
(345,337,cs),
(345,381,o),
(321,400,o),
(202,446,cs),
(154,465,o),
(144,474,o),
(144,502,cs),
(144,522,o),
(154,557,o),
(162,582,cs),
(206,718,ls),
(218,754,o),
(223,769,o),
(223,784,cs),
(223,809,o),
(200,816,o),
(183,833,cs),
(174,842,o),
(171,851,o),
(171,870,cs),
(171,906,o),
(202,955,o),
(212,971,cs),
(225,992,o),
(247,997,o),
(270,997,cs),
(291,997,o),
(430,949,o),
(430,924,cs),
(430,908,o),
(423,896,o),
(417,881,cs),
(334,674,ls),
(331,667,o),
(329,659,o),
(329,654,cs),
(329,647,o),
(337,646,o),
(349,639,cs),
(436,590,o),
(478,537,o),
(478,460,cs),
(478,260,o),
(299,-37,o),
(4,-37,cs)
);
}
);
width = 482;
},
{
associatedMasterId = master01;
layerId = "A61905E1-840E-41FB-9CBE-4983593F8CD7";
name = "Jun 9, 23 at 21:41";
shapes = (
{
closed = 1;
nodes = (
(275,650,o),
(298,638,o),
(313,629,cs),
(355,599,o),
(379,546,o),
(386,492,cs),
(392,452,o),
(384,412,o),
(374,370,cs),
(373,363,o),
(371,356,o),
(370,349,cs),
(341,242,o),
(277,137,o),
(187,55,cs),
(171,41,o),
(155,26,o),
(139,15,cs),
(110,-3,o),
(76,-17,o),
(44,-28,cs),
(26,-34,o),
(3,-40,o),
(-16,-40,cs),
(-20,-40,o),
(-24,-39,o),
(-27,-39,c),
(-43,-36,o),
(-40,-12,o),
(-38,0,cs),
(-37,6,o),
(-36,11,o),
(-34,17,cs),
(-29,39,o),
(-18,62,o),
(-8,83,cs),
(-2,97,o),
(3,112,o),
(14,125,cs),
(26,140,o),
(42,143,o),
(58,146,cs),
(80,150,o),
(102,154,o),
(125,160,cs),
(148,166,o),
(171,172,o),
(193,183,cs),
(242,209,o),
(280,258,o),
(299,305,c),
(300,309,o),
(301,312,o),
(302,315,cs),
(304,322,o),
(305,330,o),
(306,337,cs),
(313,405,o),
(258,432,o),
(209,458,cs),
(194,465,o),
(180,473,o),
(167,482,cs),
(161,485,o),
(154,489,o),
(152,495,cs),
(148,506,o),
(150,518,o),
(153,531,cs),
(157,548,o),
(166,566,o),
(171,582,cs),
(185,629,o),
(197,678,o),
(213,726,cs),
(218,742,o),
(225,758,o),
(230,774,cs),
(232,782,o),
(233,790,o),
(234,797,cs),
(236,825,o),
(218,846,o),
(202,864,cs),
(197,870,o),
(178,884,o),
(181,895,cs),
(181,897,o),
(182,900,o),
(183,903,cs),
(188,925,o),
(201,949,o),
(213,968,cs),
(216,974,o),
(220,986,o),
(227,991,cs),
(237,998,o),
(246,1000,o),
(255,1000,cs),
(279,1000,o),
(300,984,o),
(316,974,cs),
(325,969,o),
(333,964,o),
(342,958,cs),
(349,951,o),
(360,942,o),
(362,931,cs),
(363,928,o),
(362,923,o),
(360,918,cs),
(357,906,o),
(350,890,o),
(347,883,cs),
(341,868,o),
(342,867,o),
(335,851,cs),
(255,652,l)
);
}
);
width = 387;
},
{
anchors = (
{
name = bottom;
pos = (35,0);
},
{
name = center;
pos = (168,316);
}
);
associatedMasterId = "48B243E4-A9BC-4CE2-9E97-0DBF8BE24EDB";
layerId = "51E821C8-3996-4C5D-BD40-38E410E666AA";
name = "Jun 15, 23 at 16:34";
shapes = (
{
closed = 1;
nodes = (
(482,451,o),
(474,410,o),
(466,371,cs),
(464,364,o),
(463,357,o),
(461,350,cs),
(433,244,o),
(369,138,o),
(269,57,cs),
(252,44,o),
(231,30,o),
(207,18,cs),
(184,6,o),
(147,-9,o),
(87,-25,cs),
(71,-29,o),
(36,-37,o),
(6,-37,cs),
(1,-37,o),
(-4,-36,o),
(-9,-36,cs),
(-9,-36,o),
(-18,-35,o),
(-26,-32,cs),
(-27,-32,l),
(-28,-32,ls),
(-39,-24,o),
(-41,-12,o),
(-40,3,cs),
(-39,8,o),
(-38,14,o),
(-37,19,cs),
(-30,46,o),
(-18,72,o),
(-9,93,cs),
(-4,105,o),
(4,130,o),
(20,151,cs),
(22,154,o),
(30,168,o),
(47,180,cs),
(63,191,o),
(81,194,o),
(89,196,cs),
(116,200,o),
(143,204,o),
(169,209,cs),
(196,214,o),
(222,220,o),
(243,228,cs),
(292,246,o),
(326,279,o),
(340,309,cs),
(341,312,o),
(341,314,o),
(342,316,cs),
(344,323,o),
(345,330,o),
(345,333,cs),
(348,386,o),
(299,407,o),
(229,435,cs),
(211,443,o),
(193,450,o),
(176,459,c),
(165,456,o),
(164,456,o),
(161,454,cs),
(156,453,l),
(153,456,ls),
(148,461,o),
(145,466,o),
(143,472,cs),
(140,492,o),
(143,513,o),
(148,531,cs),
(153,550,o),
(161,568,o),
(165,581,cs),
(179,627,o),
(190,676,o),
(207,725,cs),
(212,742,o),
(219,759,o),
(223,773,cs),
(224,777,o),
(225,781,o),
(224,785,cs),
(224,794,o),
(219,804,o),
(194,824,cs),
(194,824,l),
(194,825,ls),
(187,835,o),
(173,848,o),
(171,867,cs),
(171,867,l),
(171,868,ls),
(170,876,o),
(171,882,o),
(173,889,cs),
(173,893,o),
(174,897,o),
(175,900,cs),
(181,924,o),
(195,947,o),
(206,965,cs),
(209,970,o),
(212,978,o),
(222,986,cs),
(222,985,l),
(223,986,ls),
(225,986,o),
(227,987,o),
(229,988,cs),
(241,993,o),
(256,997,o),
(272,997,cs),
(303,997,o),
(340,978,o),
(356,971,cs),
(367,967,o),
(379,962,o),
(391,955,cs),
(396,953,o),
(421,943,o),
(428,928,cs),
(429,927,ls),
(430,927,o),
(431,925,o),
(432,924,cs),
(432,923,o),
(432,922,o),
(432,921,cs),
(432,920,o),
(432,919,o),
(432,918,cs),
(432,917,o),
(431,916,o),
(431,915,cs),
(427,898,o),
(418,882,o),
(415,873,cs),
(410,861,o),
(409,858,o),
(403,842,cs),
(322,647,l),
(339,643,o),
(358,637,o),
(377,628,cs),
(444,594,o),
(468,537,o),
(475,492,cs)
);
}
);
visible = 1;
width = 482;
}
);
unicode = 1500;
},
{
glyphname = "memFinal-hb";
kernLeft = "memFinal-hb";
kernRight = "memFinal-hb";
layers = (
{
anchors = (
{
name = bottom;
pos = (216,0);
}
);
layerId = master01;
shapes = (
{
closed = 1;
nodes = (
(392,141,o),
(531,239,o),
(531,368,cs),
(531,440,o),
(491,475,o),
(344,475,cs),
(200,475,o),
(134,351,o),
(134,263,cs),
(134,186,o),
(209,141,o),
(295,141,cs)
);
},
{
closed = 1;
nodes = (
(86,-31,o),
(31,59,o),
(36,171,cs),
(38,247,o),
(64,355,o),
(147,434,cs),
(156,443,o),
(171,455,o),
(171,463,cs),
(171,469,o),
(162,475,o),
(154,479,cs),
(138,487,o),
(130,498,o),
(130,519,cs),
(130,548,o),
(163,630,o),
(180,671,cs),
(184,680,o),
(189,691,o),
(199,694,cs),
(208,697,o),
(220,698,o),
(228,698,cs),
(235,698,o),
(237,694,o),
(237,684,cs),
(237,660,o),
(259,633,o),
(325,633,cs),
(395,633,o),
(431,637,o),
(458,637,cs),
(576,637,o),
(596,569,o),
(596,450,cs),
(596,303,o),
(466,-31,o),
(215,-31,cs)
);
}
);
width = 580;
},
{
anchors = (
{
name = bottom;
pos = (236,0);
}
);
layerId = "48B243E4-A9BC-4CE2-9E97-0DBF8BE24EDB";
shapes = (
{
closed = 1;
nodes = (
(460,166,o),
(573,242,o),
(573,363,cs),
(573,435,o),
(507,450,o),
(350,450,cs),
(256,450,o),
(191,359,o),
(191,271,cs),
(191,194,o),
(277,166,o),
(363,166,cs)
);
},
{
closed = 1;
nodes = (
(118,-29,o),
(40,49,o),
(40,181,cs),
(40,257,o),
(67,359,o),
(140,434,cs),
(149,443,o),
(158,450,o),
(158,455,cs),
(158,460,o),
(154,463,o),
(148,468,cs),
(133,481,o),
(128,498,o),
(128,519,cs),
(128,548,o),
(168,630,o),
(185,671,cs),
(189,680,o),
(200,694,o),
(210,697,cs),
(230,704,o),
(260,711,o),
(271,711,cs),
(284,711,o),
(287,705,o),
(287,694,cs),
(287,670,o),
(311,660,o),
(347,660,cs),
(397,660,o),
(471,667,o),
(498,667,cs),
(646,667,o),
(694,619,o),
(694,480,cs),
(694,233,o),
(528,-29,o),
(257,-29,cs)
);
}
);
width = 675;
},
{
associatedMasterId = master01;
layerId = "DDAD119E-761B-4723-A139-89F9F9BE80E8";
name = "Jun 9, 23 at 21:56";
shapes = (
{
closed = 1;
nodes = (
(239,698,l),
(236,699,o),
(197,691,o),
(194,694,c)
);
},
{
closed = 1;
nodes = (
(163,624,l),
(194,694,l)
);
},
{
closed = 1;
nodes = (
(222,447,o),
(194,421,o),
(178,391,cs),
(150,326,l),
(134,263,l),
(150,210,l),
(153,207,o),
(155,203,o),
(158,200,cs),
(163,193,o),
(168,187,o),
(172,181,cs),
(175,176,o),
(178,173,o),
(181,170,cs),
(185,168,o),
(188,167,o),
(192,165,cs),
(198,163,o),
(204,160,o),
(209,156,cs),
(212,154,o),
(215,153,o),
(218,151,c),
(281,143,l),
(325,141,l),
(381,162,l),
(440,195,l),
(483,237,l),
(515,294,l),
(531,368,l),
(524,414,l),
(501,454,l),
(460,464,l),
(396,470,l),
(344,470,l),
(317,480,o),
(284,476,o),
(253,462,cs)
);
},
{
closed = 1;
nodes = (
(239,698,l),
(230,663,o),
(252,644,o),
(284,640,cs),
(319,636,o),
(356,634,o),
(393,634,cs),
(416,634,o),
(440,636,o),
(463,635,cs),
(489,633,o),
(521,630,o),
(542,617,cs),
(563,603,o),
(574,582,o),
(582,559,cs),
(595,520,o),
(599,477,o),
(595,432,cs),
(589,367,o),
(569,298,o),
(540,232,cs),
(505,150,o),
(449,67,o),
(368,14,cs),
(284,-40,o),
(174,-45,o),
(109,-3,cs),
(77,18,o),
(55,51,o),
(45,88,cs),
(29,140,o),
(35,201,o),
(48,260,cs),
(59,306,o),
(83,360,o),
(116,400,cs),
(136,424,o),
(161,445,o),
(182,468,c),
(172,470,o),
(162,473,o),
(154,479,cs),
(125,496,o),
(125,533,o),
(139,567,cs),
(157,609,o),
(179,652,o),
(194,694,c)
);
}
);
width = 580;
},
{
anchors = (
{
name = bottom;
pos = (216,0);
}
);
associatedMasterId = "48B243E4-A9BC-4CE2-9E97-0DBF8BE24EDB";
layerId = "135B4CD4-4AEC-4699-AF4E-780ED47ADAF0";
name = "Jun 15, 23 at 18:29";
shapes = (
{
closed = 1;
nodes = (
(285,687,l),
(285,675,o),
(305,669,o),
(323,668,cs),
(358,665,o),
(396,663,o),
(432,663,cs),
(436,663,o),
(440,663,o),
(443,663,cs),
(462,664,o),
(481,665,o),
(502,665,cs),
(509,665,o),
(517,665,o),
(524,664,cs),
(544,663,o),
(591,662,o),
(624,644,cs),
(653,629,o),
(667,604,o),
(676,579,cs),
(690,539,o),
(695,494,o),
(691,448,cs),
(689,416,o),
(683,384,o),
(674,352,cs),
(665,317,o),
(652,281,o),
(637,246,cs),
(603,167,o),
(546,77,o),
(448,20,cs),
(390,-14,o),
(323,-29,o),
(261,-29,cs),
(212,-29,o),
(166,-19,o),
(129,2,cs),
(94,21,o),
(64,52,o),
(49,97,cs),
(31,151,o),
(38,213,o),
(50,271,cs),
(51,275,o),
(52,279,o),
(53,283,cs),
(62,316,o),
(82,369,o),
(121,415,cs),
(134,430,o),
(148,444,o),
(161,456,c),
(159,458,ls),
(119,480,o),
(125,526,o),
(130,547,cs),
(132,553,o),
(134,559,o),
(137,565,cs),
(152,603,o),
(171,639,o),
(184,672,c),
(177,679,l),
(191,692,l),
(195,704,l),
(206,705,l),
(217,716,l),
(226,707,l),
(249,709,ls),
(256,710,o),
(260,710,o),
(262,710,cs),
(263,710,o),
(263,710,o),
(264,710,cs),
(291,712,l),
(289,705,l),
(298,703,l)
);
},
{
closed = 1;
nodes = (
(364,449,o),
(354,450,o),
(344,450,cs),
(327,450,o),
(309,447,o),
(292,440,cs),
(266,428,o),
(241,408,o),
(228,385,cs),
(201,324,l),
(189,270,l),
(205,226,l),
(207,223,o),
(209,221,o),
(211,219,cs),
(217,213,o),
(224,206,o),
(230,198,cs),
(232,195,o),
(233,193,o),
(235,192,cs),
(236,192,o),
(236,192,o),
(243,189,cs),
(252,186,o),
(259,182,o),
(266,179,cs),
(268,178,o),
(270,177,o),
(272,176,c),
(338,168,l),
(380,166,l),
(433,184,l),
(492,214,l),
(531,249,l),
(559,297,l),
(572,362,l),
(565,400,l),
(543,431,l),
(506,439,l),
(438,445,l),
(376,445,l),
(373,446,ls)
);
}
);
visible = 1;
width = 675;
}
);
unicode = 1501;
},
{
glyphname = "mem-hb";
kernLeft = "mem-hb";
kernRight = "mem-hb";
layers = (
{
anchors = (
{
name = bottom;
pos = (169,0);
},
{
name = center;
pos = (408,295);
}
);
layerId = master01;
shapes = (
{
closed = 1;
nodes = (
(14,-32,o),
(-15,-19,o),
(-15,0,cs),
(-15,12,o),
(-7,43,o),
(2,52,cs),
(15,66,o),
(58,89,o),
(117,142,cs),
(184,202,o),
(214,319,o),
(214,384,cs),
(214,460,o),
(146,496,o),
(146,529,cs),
(146,548,o),
(219,655,o),
(261,655,cs),
(300,655,o),
(314,601,o),
(318,550,cs),
(321,514,o),
(323,504,o),
(328,504,cs),
(335,504,o),
(340,511,o),
(365,540,cs),
(451,640,o),
(473,657,o),
(488,657,cs),
(523,657,ls),
(604,657,o),
(645,576,o),
(645,495,cs),
(645,298,o),
(479,-19,o),
(313,-19,cs),
(278,-19,o),
(266,-14,o),
(266,15,cs),
(266,44,o),
(275,62,o),
(287,74,cs),
(302,88,o),
(330,99,o),
(357,107,cs),
(491,149,o),
(558,247,o),
(558,343,cs),
(558,425,o),
(512,472,o),
(433,472,cs),
(339,472,o),
(306,433,o),
(302,415,cs),
(298,399,o),
(286,355,o),
(278,328,cs),
(236,185,o),
(126,-32,o),
(40,-32,cs)
);
}
);
width = 619;
},
{
anchors = (
{
name = bottom;
pos = (199,0);
},
{
name = center;
pos = (500,305);
}
);
layerId = "48B243E4-A9BC-4CE2-9E97-0DBF8BE24EDB";
shapes = (
{
closed = 1;
nodes = (
(24,-30,o),
(-10,-12,o),
(-10,25,cs),
(-10,48,o),
(-1,68,o),
(20,89,cs),
(38,107,o),
(82,137,o),
(145,177,cs),
(224,227,o),
(258,282,o),
(258,347,cs),
(258,443,o),
(144,450,o),
(144,519,cs),
(144,588,o),
(278,670,o),
(320,670,cs),
(376,670,o),
(397,646,o),
(411,595,cs),
(418,570,o),
(422,566,o),
(427,566,cs),
(434,566,o),
(441,575,o),
(448,583,cs),
(515,660,o),
(545,670,o),
(592,670,cs),
(610,670,ls),
(760,670,o),
(788,571,o),
(788,480,cs),
(788,233,o),
(589,-17,o),
(382,-17,cs),
(338,-17,o),
(316,-1,o),
(316,28,cs),
(316,64,o),
(326,89,o),
(353,109,cs),
(377,127,o),
(412,140,o),
(464,154,cs),
(571,183,o),
(649,255,o),
(649,330,cs),
(649,412,o),
(595,447,o),
(515,447,cs),
(429,447,o),
(411,427,o),
(404,416,cs),
(395,402,o),
(389,380,o),
(381,353,cs),
(339,210,o),
(196,-30,o),
(70,-30,cs)
);
}
);
width = 763;
},
{
associatedMasterId = master01;
layerId = "42729038-B08F-498B-AEB1-870DC071B102";
name = "Jun 9, 23 at 23:11";
shapes = (
{
closed = 1;
nodes = (
(504,657,o),
(511,658,o),
(516,658,cs),
(593,658,o),
(633,596,o),
(642,528,cs),
(649,475,o),
(642,417,o),
(626,359,cs),
(618,327,o),
(607,294,o),
(593,263,cs),
(572,208,o),
(545,155,o),
(505,107,cs),
(469,64,o),
(426,25,o),
(376,1,cs),
(357,-9,o),
(334,-19,o),
(313,-19,cs),
(311,-19,o),
(309,-18,o),
(307,-18,cs),
(296,-17,o),
(278,-17,o),
(271,-8,cs),
(261,3,o),
(268,26,o),
(271,41,cs),
(271,45,o),
(271,50,o),
(273,54,cs),
(273,57,o),
(274,59,o),
(275,62,cs),
(278,66,o),
(283,70,o),
(287,74,cs),
(308,92,o),
(333,99,o),
(357,107,cs),
(391,118,o),
(422,129,o),
(453,151,cs),
(505,188,o),
(535,241,o),
(549,295,cs),
(551,298,ls),
(555,314,o),
(558,329,o),
(558,343,cs),
(558,366,o),
(551,389,o),
(542,408,cs),
(532,429,o),
(520,450,o),
(497,460,cs),
(478,468,o),
(456,472,o),
(433,472,cs),
(408,472,o),
(380,467,o),
(354,459,cs),
(343,454,o),
(331,450,o),
(320,445,cs),
(317,443,o),
(310,441,o),
(308,438,cs),
(306,436,o),
(306,433,o),
(304,431,c),
(303,424,o),
(302,414,o),
(301,408,cs),
(294,382,o),
(287,355,o),
(278,328,cs),
(255,255,o),
(226,179,o),
(183,108,cs),
(161,71,o),
(135,31,o),
(102,0,cs),
(88,-13,o),
(68,-28,o),
(50,-31,cs),
(47,-32,o),
(43,-32,o),
(40,-32,cs),
(30,-32,o),
(21,-30,o),
(14,-28,cs),
(2,-24,o),
(-12,-17,o),
(-15,-4,cs),
(-16,2,o),
(-14,10,o),
(-12,17,cs),
(-9,27,l),
(-9,31,l),
(-7,37,o),
(-5,45,o),
(0,50,cs),
(13,64,o),
(33,75,o),
(47,85,cs),
(71,103,o),
(95,122,o),
(117,142,cs),
(161,183,o),
(188,243,o),
(203,297,cs),
(206,310,o),
(209,323,o),
(211,335,cs),
(218,378,o),
(215,421,o),
(194,454,cs),
(184,469,o),
(171,482,o),
(160,497,cs),
(154,505,o),
(145,516,o),
(146,529,cs),
(146,530,o),
(147,531,o),
(147,533,c),
(149,539,o),
(153,547,o),
(156,552,cs),
(168,574,o),
(183,595,o),
(201,613,cs),
(212,625,o),
(225,640,o),
(238,648,cs),
(246,652,o),
(254,655,o),
(261,655,cs),
(273,655,o),
(283,648,o),
(290,641,cs),
(311,617,o),
(315,583,o),
(318,550,cs),
(319,535,o),
(319,519,o),
(320,505,cs),
(320,501,o),
(318,492,o),
(322,492,cs),
(323,492,o),
(324,492,o),
(324,493,cs),
(329,494,o),
(333,501,o),
(336,505,cs),
(365,540,ls),
(389,570,o),
(413,600,o),
(442,626,cs),
(451,635,o),
(464,649,o),
(476,654,cs),
(483,657,o),
(490,656,o),
(497,657,cs)
);
}
);
width = 619;
},
{
anchors = (
{
name = bottom;
pos = (199,0);
},
{
name = center;
pos = (500,305);
}
);
associatedMasterId = "48B243E4-A9BC-4CE2-9E97-0DBF8BE24EDB";
layerId = "24506228-F343-448C-B5CD-2E80D06992B9";
name = "Jun 15, 23 at 18:40";
shapes = (
{
closed = 1;
nodes = (
(721,673,o),
(774,605,o),
(784,537,cs),
(793,482,o),
(786,424,o),
(771,367,cs),
(762,334,o),
(751,302,o),
(738,270,cs),
(717,217,o),
(690,164,o),
(647,114,cs),
(610,71,o),
(556,31,o),
(491,5,cs),
(445,-13,o),
(417,-17,o),
(400,-17,cs),
(398,-17,o),
(392,-16,o),
(390,-16,cs),
(372,-15,o),
(360,-14,o),
(347,-10,cs),
(346,-10,o),
(344,-9,o),
(341,-8,cs),
(340,-8,o),
(338,-7,o),
(336,-5,cs),
(335,-5,o),
(332,-4,o),
(330,-2,cs),
(323,5,o),
(322,5,o),
(320,11,cs),
(312,28,o),
(318,49,o),
(319,56,cs),
(319,60,o),
(319,65,o),
(321,71,cs),
(322,76,o),
(324,82,o),
(328,88,cs),
(330,91,o),
(332,95,o),
(341,103,cs),
(341,104,o),
(344,106,o),
(344,106,cs),
(347,108,o),
(349,110,o),
(351,111,cs),
(383,135,o),
(421,143,o),
(449,150,cs),
(493,161,o),
(525,170,o),
(555,187,cs),
(600,213,o),
(631,253,o),
(643,301,cs),
(644,305,ls),
(649,326,o),
(650,334,o),
(649,341,cs),
(649,353,o),
(644,371,o),
(628,395,cs),
(622,405,o),
(606,429,o),
(583,437,cs),
(562,444,o),
(539,447,o),
(515,447,cs),
(488,447,o),
(460,443,o),
(432,435,cs),
(421,432,o),
(410,428,o),
(399,424,c),
(398,419,o),
(398,415,o),
(397,410,cs),
(396,405,o),
(394,400,o),
(393,396,cs),
(388,375,o),
(382,354,o),
(375,332,cs),
(353,261,o),
(322,189,o),
(262,117,cs),
(234,82,o),
(207,42,o),
(163,8,cs),
(128,-18,o),
(100,-26,o),
(84,-29,cs),
(77,-30,o),
(71,-30,o),
(66,-30,cs),
(56,-30,o),
(45,-29,o),
(33,-25,cs),
(21,-22,o),
(6,-16,o),
(-3,-3,cs),
(-5,0,o),
(-7,4,o),
(-8,8,cs),
(-11,19,o),
(-8,31,o),
(-6,35,cs),
(-5,41,o),
(-5,41,o),
(-4,44,cs),
(-4,46,o),
(-3,47,o),
(-3,48,cs),
(-3,48,o),
(-3,49,o),
(-3,49,cs),
(-2,53,o),
(0,57,o),
(2,63,cs),
(2,64,o),
(4,68,o),
(5,70,cs),
(6,72,o),
(8,76,o),
(9,77,cs),
(10,79,o),
(13,83,o),
(14,85,cs),
(31,104,o),
(56,118,o),
(66,125,cs),
(89,141,o),
(112,159,o),
(147,178,cs),
(172,192,o),
(233,230,o),
(253,307,cs),
(256,318,o),
(258,330,o),
(259,340,cs),
(262,384,o),
(239,418,o),
(205,442,cs),
(186,453,o),
(174,465,o),
(162,478,cs),
(153,489,o),
(143,504,o),
(144,525,cs),
(145,527,o),
(145,532,o),
(146,535,cs),
(149,544,o),
(155,554,o),
(157,558,cs),
(170,581,o),
(186,603,o),
(206,623,cs),
(212,629,o),
(230,649,o),
(256,660,cs),
(256,660,l),
(256,660,ls),
(267,664,o),
(289,670,o),
(319,670,cs),
(353,670,o),
(370,661,o),
(380,652,cs),
(407,624,o),
(414,586,o),
(414,557,cs),
(414,547,l),
(417,551,ls),
(440,581,o),
(471,609,o),
(505,636,cs),
(519,647,o),
(531,658,o),
(548,666,cs),
(548,666,o),
(549,666,o),
(549,666,cs),
(550,666,o),
(550,667,o),
(551,667,cs),
(551,667,o),
(552,667,o),
(553,667,cs),
(553,667,o),
(554,668,o),
(555,668,cs),
(571,672,o),
(567,671,o),
(575,671,cs),
(576,672,o),
(579,672,o),
(580,672,cs),
(585,672,o),
(587,672,o),
(589,672,cs),
(598,673,o),
(606,673,o),
(615,673,cs)
);
}
);
visible = 1;
width = 763;
}
);
unicode = 1502;
},
{
glyphname = "nunFinal-hb";
kernLeft = "nunFinal-hb";
kernRight = "nunFinal-hb";
layers = (
{
anchors = (
{
name = bottom;
pos = (-24,-310);
}
);
layerId = master01;
shapes = (
{
closed = 1;
nodes = (
(-51,-332,o),
(-54,-324,o),
(-54,-315,cs),
(-54,-306,o),
(-52,-296,o),
(-46,-275,cs),
(76,189,ls),
(83,217,o),
(92,244,o),
(105,272,cs),
(125,315,o),
(157,354,o),
(183,392,cs),
(200,417,o),
(204,423,o),
(204,433,cs),
(204,441,o),
(198,445,o),
(169,461,cs),
(122,488,o),
(101,505,o),
(101,533,cs),
(101,578,o),
(136,657,o),
(149,678,cs),
(162,699,o),
(169,707,o),
(176,709,cs),
(183,711,o),
(197,713,o),
(204,713,cs),
(212,713,o),
(215,710,o),
(215,701,cs),
(215,670,o),
(244,650,o),
(286,618,cs),
(299,608,o),
(311,588,o),
(311,573,cs),
(311,542,o),
(285,476,o),
(272,448,cs),
(242,382,o),
(203,317,o),
(184,249,cs),
(171,202,o),
(120,-170,o),
(116,-192,cs),
(107,-241,o),
(26,-332,o),
(-39,-332,cs)
);
}
);
width = 308;
},
{
anchors = (
{
name = bottom;
pos = (-24,-310);
}
);
layerId = "48B243E4-A9BC-4CE2-9E97-0DBF8BE24EDB";
shapes = (
{
closed = 1;
nodes = (
(-40,-332,o),
(-53,-326,o),
(-53,-304,cs),
(-53,-295,o),
(-51,-288,o),
(-45,-267,cs),
(74,189,ls),
(81,217,o),
(92,248,o),
(105,276,cs),
(125,319,o),
(151,356,o),
(178,393,cs),
(188,406,o),
(192,411,o),
(192,420,cs),
(192,427,o),
(183,433,o),
(170,438,cs),
(122,456,o),
(95,480,o),
(95,508,cs),
(95,573,o),
(124,639,o),
(137,660,cs),
(150,681,o),
(155,687,o),
(167,695,cs),
(174,700,o),
(225,710,o),
(242,710,cs),
(252,710,o),
(258,705,o),
(258,693,cs),
(258,677,o),
(273,660,o),
(310,629,cs),
(347,598,o),
(354,584,o),
(354,568,cs),
(354,537,o),
(330,478,o),
(317,450,cs),
(287,384,o),
(246,309,o),
(227,241,cs),
(214,194,o),
(178,-146,o),
(161,-201,cs),
(141,-264,o),
(46,-332,o),
(-19,-332,cs)
);
}
);
width = 355;
},
{
associatedMasterId = master01;
layerId = "7608DE2B-8133-41F8-A882-9B1DD48EB3D3";
name = "Jun 9, 23 at 23:25";
shapes = (
{
closed = 1;
nodes = (
(198,444,o),
(183,453,o),
(169,461,cs),
(143,475,o),
(113,489,o),
(104,519,cs),
(99,536,o),
(103,551,o),
(106,568,cs),
(108,575,o),
(109,582,o),
(111,589,cs),
(117,614,o),
(127,639,o),
(140,663,cs),
(145,674,o),
(152,685,o),
(159,695,cs),
(162,699,o),
(164,704,o),
(168,707,c),
(172,709,o),
(178,708,o),
(182,709,cs),
(193,711,o),
(204,712,o),
(215,712,c),
(208,659,o),
(267,641,o),
(293,610,cs),
(302,601,o),
(311,588,o),
(311,573,cs),
(311,561,o),
(309,547,o),
(304,533,cs),
(297,504,o),
(284,475,o),
(272,448,cs),
(242,382,o),
(205,316,o),
(184,249,cs),
(183,244,o),
(181,239,o),
(180,234,cs),
(175,216,o),
(171,197,o),
(169,180,cs),
(168,165,o),
(169,152,o),
(166,137,cs),
(155,64,o),
(145,-9,o),
(133,-83,cs),
(127,-118,o),
(125,-153,o),
(117,-188,c),
(117,-189,o),
(117,-191,o),
(116,-192,cs),
(106,-233,o),
(72,-272,o),
(37,-300,cs),
(26,-309,o),
(12,-319,o),
(-1,-325,cs),
(-13,-330,o),
(-27,-332,o),
(-39,-332,cs),
(-43,-332,ls),
(-46,-332,o),
(-49,-331,o),
(-51,-328,cs),
(-57,-319,o),
(-53,-301,o),
(-49,-286,cs),
(-46,-275,l),
(-12,-146,l),
(57,113,l),
(76,189,ls),
(84,217,o),
(92,244,o),
(105,272,cs),
(132,331,o),
(179,381,o),
(213,437,c)
);
}
);
width = 308;
},
{
anchors = (
{
name = bottom;
pos = (-24,-310);
}
);
associatedMasterId = "48B243E4-A9BC-4CE2-9E97-0DBF8BE24EDB";
layerId = "F9A20AFC-F4C6-4441-A8B2-50C5AC2C2B41";
name = "Jun 15, 23 at 18:59";
shapes = (
{
closed = 1;
nodes = (
(96,493,l),
(96,494,ls),
(91,520,o),
(96,543,o),
(100,563,cs),
(102,571,o),
(104,579,o),
(106,586,cs),
(112,611,o),
(122,636,o),
(135,660,cs),
(141,671,o),
(147,682,o),
(155,692,cs),
(156,693,o),
(158,696,o),
(161,700,cs),
(161,699,l),
(162,700,ls),
(167,702,o),
(171,703,o),
(174,704,cs),
(181,706,o),
(187,706,o),
(191,706,cs),
(192,706,o),
(193,706,o),
(194,706,cs),
(195,706,o),
(196,706,o),
(197,706,cs),
(208,707,o),
(220,709,o),
(232,709,cs),
(256,709,l),
(257,709,ls),
(250,664,o),
(302,643,o),
(327,608,c),
(331,605,o),
(352,590,o),
(353,571,cs),
(353,558,o),
(351,544,o),
(347,530,cs),
(339,499,o),
(325,469,o),
(313,442,cs),
(283,375,o),
(247,310,o),
(228,247,cs),
(227,243,o),
(225,238,o),
(224,233,cs),
(220,218,o),
(217,203,o),
(216,188,cs),
(214,170,o),
(215,161,o),
(213,143,cs),
(201,70,o),
(192,-2,o),
(180,-76,cs),
(175,-109,o),
(173,-145,o),
(164,-183,cs),
(164,-185,o),
(163,-189,o),
(163,-190,cs),
(152,-233,o),
(114,-271,o),
(77,-297,cs),
(70,-302,o),
(52,-315,o),
(33,-322,cs),
(24,-325,o),
(8,-328,o),
(-15,-328,cs),
(-15,-328,o),
(-17,-329,o),
(-18,-329,cs),
(-19,-329,o),
(-19,-328,o),
(-20,-328,cs),
(-26,-328,o),
(-29,-328,o),
(-35,-327,cs),
(-37,-327,o),
(-40,-327,o),
(-42,-326,cs),
(-43,-326,l),
(-45,-326,ls),
(-46,-325,o),
(-50,-323,o),
(-52,-318,cs),
(-56,-306,o),
(-52,-290,o),
(-50,-283,cs),
(-49,-279,o),
(-48,-276,o),
(-47,-272,cs),
(-36,-230,o),
(-25,-187,o),
(-14,-144,cs),
(54,114,ls),
(61,138,o),
(66,163,o),
(73,189,cs),
(80,217,o),
(89,246,o),
(103,276,cs),
(128,332,o),
(165,373,o),
(198,423,c),
(172,437,ls),
(147,448,o),
(108,462,o),
(96,493,cs)
);
}
);
visible = 1;
width = 355;
}
);
unicode = 1503;
},
{
glyphname = "nun-hb";
kernLeft = "nun-hb";
kernRight = "nun-hb";
layers = (
{
anchors = (
{
name = bottom;
pos = (90,0);
},
{
name = center;
pos = (155,338);
}
);
layerId = master01;
shapes = (
{
closed = 1;
nodes = (
(-17,-38,o),
(-24,-30,o),
(-24,-17,cs),
(-24,12,o),
(-8,54,o),
(5,85,cs),
(22,126,o),
(34,143,o),
(61,148,cs),
(197,173,o),
(298,266,o),
(298,367,cs),
(298,411,o),
(271,443,o),
(175,482,cs),
(161,488,o),
(151,497,o),
(151,507,cs),
(151,538,o),
(175,578,o),
(208,613,cs),
(239,645,o),
(261,652,o),
(296,652,cs),
(311,652,o),
(327,637,o),
(336,629,cs),
(367,602,o),
(380,567,o),
(380,526,cs),
(380,420,o),
(331,189,o),
(167,48,cs),
(125,12,o),
(46,-38,o),
(-7,-38,cs)
);
}
);
width = 347;
},
{
anchors = (
{
name = bottom;
pos = (90,0);
},
{
name = center;
pos = (155,338);
}
);
layerId = "48B243E4-A9BC-4CE2-9E97-0DBF8BE24EDB";
shapes = (
{
closed = 1;
nodes = (
(-6,-36,o),
(-24,-25,o),
(-24,0,cs),
(-24,29,o),
(-5,69,o),
(35,153,cs),
(47,178,o),
(74,194,o),
(101,199,cs),
(296,235,o),
(339,292,o),
(339,352,cs),
(339,408,o),
(280,432,o),
(175,453,cs),
(156,457,o),
(145,470,o),
(145,486,cs),
(145,517,o),
(174,579,o),
(208,613,cs),
(225,630,o),
(253,643,o),
(273,646,cs),
(290,649,o),
(315,650,o),
(346,650,cs),
(428,650,o),
(471,583,o),
(471,502,cs),
(471,326,o),
(389,168,o),
(261,61,cs),
(168,-16,o),
(67,-36,o),
(14,-36,cs)
);
}
);
width = 443;
},
{
associatedMasterId = master01;
layerId = "E596BDB7-7C46-49E4-84C0-79B7072DA2C2";
name = "Jun 9, 23 at 23:45";
shapes = (
{
closed = 1;
nodes = (
(296,652,ls),
(311,652,o),
(326,637,o),
(336,629,cs),
(380,593,o),
(385,536,o),
(377,475,cs),
(372,438,o),
(365,401,o),
(355,363,cs),
(325,249,o),
(267,134,o),
(167,48,cs),
(125,12,o),
(71,-24,o),
(20,-33,cs),
(12,-34,o),
(2,-38,o),
(-6,-38,cs),
(-9,-38,ls),
(-27,-36,o),
(-25,-13,o),
(-22,2,cs),
(-21,6,o),
(-20,11,o),
(-19,15,cs),
(-13,39,o),
(0,64,o),
(9,88,cs),
(14,103,o),
(21,123,o),
(32,135,cs),
(41,144,o),
(51,145,o),
(61,147,cs),
(80,153,o),
(101,158,o),
(121,165,cs),
(163,179,o),
(208,197,o),
(240,232,cs),
(254,248,o),
(264,265,o),
(273,283,cs),
(281,298,o),
(288,314,o),
(292,330,cs),
(300,358,o),
(300,385,o),
(290,407,cs),
(281,426,o),
(264,440,o),
(244,449,cs),
(221,461,o),
(197,470,o),
(175,482,cs),
(168,487,o),
(155,491,o),
(152,499,cs),
(150,505,o),
(151,515,o),
(153,523,cs),
(153,526,o),
(153,529,o),
(155,532,cs),
(162,561,o),
(188,592,o),
(211,615,cs),
(220,624,o),
(230,637,o),
(240,643,cs),
(258,652,o),
(277,650,o),
(294,652,cs)
);
}
);
width = 347;
},
{
anchors = (
{
name = bottom;
pos = (90,0);
},
{
name = center;
pos = (155,338);
}
);
associatedMasterId = "48B243E4-A9BC-4CE2-9E97-0DBF8BE24EDB";
layerId = "28E4EB86-C5FD-43B5-99F4-5B44570A66F3";
name = "Jun 15, 23 at 19:32";
shapes = (
{
closed = 1;
nodes = (
(467,594,o),
(477,539,o),
(470,473,cs),
(466,438,o),
(459,400,o),
(449,363,cs),
(422,259,o),
(368,137,o),
(248,49,cs),
(162,-12,o),
(87,-26,o),
(49,-31,cs),
(43,-32,o),
(30,-36,o),
(19,-36,cs),
(17,-36,o),
(16,-38,o),
(16,-36,cs),
(14,-36,l),
(13,-36,ls),
(1,-35,o),
(-16,-33,o),
(-22,-16,cs),
(-22,-16,l),
(-22,-16,ls),
(-23,-8,o),
(-22,0,o),
(-21,4,cs),
(-21,8,o),
(-20,12,o),
(-19,16,cs),
(-11,46,o),
(2,72,o),
(10,94,cs),
(15,108,o),
(24,140,o),
(43,164,cs),
(44,165,l),
(44,166,ls),
(51,173,o),
(58,185,o),
(78,192,cs),
(83,194,o),
(87,194,o),
(90,195,cs),
(110,200,o),
(134,206,o),
(158,211,cs),
(201,219,o),
(254,228,o),
(285,247,c),
(298,258,o),
(307,273,o),
(318,290,cs),
(326,303,o),
(332,317,o),
(336,330,cs),
(340,349,o),
(342,372,o),
(328,391,cs),
(317,406,o),
(298,418,o),
(274,426,cs),
(245,437,o),
(212,446,o),
(182,459,c),
(173,458,o),
(166,458,o),
(160,457,cs),
(156,456,l),
(154,459,ls),
(150,463,o),
(148,468,o),
(146,473,cs),
(143,488,o),
(147,507,o),
(149,516,cs),
(149,521,o),
(150,526,o),
(152,530,cs),
(156,548,o),
(169,574,o),
(213,614,cs),
(222,622,o),
(231,632,o),
(248,640,cs),
(248,639,l),
(249,640,ls),
(251,640,o),
(252,640,o),
(255,641,cs),
(285,651,o),
(319,649,o),
(337,650,cs),
(338,650,o),
(341,650,o),
(342,650,cs),
(370,650,o),
(396,637,o),
(413,627,cs)
);
}
);
visible = 1;
width = 443;
}
);
unicode = 1504;
},
{
glyphname = "samekh-hb";
kernLeft = "samekh-hb";
kernRight = "samekh-hb";
layers = (
{
anchors = (
{
name = bottom;
pos = (286,0);
},
{
name = center;
pos = (363,303);
}
);
layerId = master01;
shapes = (
{
closed = 1;
nodes = (
(431,141,o),
(548,262,o),
(548,386,cs),
(548,435,o),
(509,468,o),
(442,468,cs),
(309,468,o),
(284,457,o),
(249,427,cs),
(190,377,o),
(171,338,o),
(171,294,cs),
(171,183,o),
(222,141,o),
(333,141,cs)
);
},
{
closed = 1;
nodes = (
(-13,-128,o),
(-24,-118,o),
(-24,-92,cs),
(-24,-66,o),
(0,-25,o),
(35,59,cs),
(81,168,o),
(95,248,o),
(122,340,cs),
(136,387,o),
(173,421,o),
(190,435,cs),
(200,443,o),
(208,453,o),
(208,460,cs),
(208,467,o),
(202,473,o),
(195,477,cs),
(178,487,o),
(169,497,o),
(169,511,cs),
(169,545,o),
(193,603,o),
(217,660,cs),
(221,670,o),
(228,683,o),
(234,688,cs),
(241,694,o),
(255,696,o),
(264,696,cs),
(274,696,o),
(276,691,o),
(276,683,cs),
(276,645,o),
(293,636,o),
(326,636,cs),
(353,636,o),
(385,638,o),
(429,638,cs),
(552,638,o),
(617,614,o),
(617,499,cs),
(617,260,o),
(468,-31,o),
(256,-31,cs),
(179,-31,o),
(136,17,o),
(123,68,cs),
(117,91,o),
(112,100,o),
(106,100,cs),
(101,100,o),
(96,91,o),
(92,73,cs),
(88,54,o),
(85,35,o),
(85,16,cs),
(85,4,o),
(87,-37,o),
(87,-56,cs),
(87,-89,o),
(59,-128,o),
(7,-128,cs)
);
}
);
width = 580;
},
{
anchors = (
{
name = bottom;
pos = (336,0);
},
{
name = center;
pos = (401,306);
}
);
layerId = "48B243E4-A9BC-4CE2-9E97-0DBF8BE24EDB";
shapes = (
{
closed = 1;
nodes = (
(478,166,o),
(586,254,o),
(586,378,cs),
(586,427,o),
(540,445,o),
(473,445,cs),
(363,445,o),
(337,445,o),
(302,415,cs),
(243,365,o),
(225,344,o),
(225,300,cs),
(225,189,o),
(289,166,o),
(380,166,cs)
);
},
{
closed = 1;
nodes = (
(-6,-126,o),
(-19,-111,o),
(-19,-75,cs),
(-19,-37,o),
(7,6,o),
(37,68,cs),
(69,133,o),
(91,249,o),
(118,341,cs),
(132,388,o),
(153,410,o),
(169,426,cs),
(187,444,o),
(193,448,o),
(193,454,cs),
(193,458,o),
(184,464,o),
(178,470,cs),
(167,480,o),
(164,490,o),
(164,504,cs),
(164,551,o),
(191,603,o),
(215,660,cs),
(219,670,o),
(228,685,o),
(238,690,cs),
(255,700,o),
(293,711,o),
(307,711,cs),
(321,711,o),
(326,703,o),
(326,693,cs),
(326,677,o),
(337,667,o),
(363,667,cs),
(390,667,o),
(449,667,o),
(493,667,cs),
(666,667,o),
(711,612,o),
(711,496,cs),
(711,247,o),
(543,-30,o),
(301,-30,cs),
(245,-30,o),
(202,-15,o),
(183,0,cs),
(157,20,o),
(153,27,o),
(147,27,cs),
(144,27,o),
(141,25,o),
(141,13,cs),
(141,0,o),
(142,-12,o),
(142,-24,cs),
(142,-49,o),
(136,-64,o),
(124,-82,cs),
(106,-109,o),
(81,-126,o),
(34,-126,cs)
);
}
);
width = 675;
},
{
associatedMasterId = master01;
layerId = "E0B63D9F-E777-4F2E-9698-ECC638BF42F7";
name = "Jun 12, 23 at 19:33";
shapes = (
{
closed = 1;
nodes = (
(249,426,l),
(225,397,l),
(197,365,l),
(179,338,l),
(170,294,l),
(173,250,l),
(185,204,l),
(204,179,l),
(224,166,l),
(241,153,l),
(289,143,l),
(332,141,l),
(377,151,l),
(422,170,l),
(477,212,l),
(512,265,l),
(540,342,l),
(547,386,l),
(542,414,l),
(524,441,l),
(495,458,l),
(441,468,l),
(371,466,l),
(285,464,l)
);
},
{
closed = 1;
nodes = (
(97,95,o),
(94,84,o),
(91,73,cs),
(83,41,o),
(83,9,o),
(84,-20,cs),
(84,-38,o),
(86,-56,o),
(81,-74,cs),
(78,-83,o),
(75,-92,o),
(69,-100,cs),
(52,-125,o),
(30,-128,o),
(6,-128,cs),
(5,-128,ls),
(-2,-128,o),
(-13,-128,o),
(-18,-124,cs),
(-24,-118,o),
(-25,-101,o),
(-25,-92,cs),
(-24,-84,o),
(-23,-77,o),
(-21,-70,cs),
(-10,-28,o),
(24,15,o),
(38,55,cs),
(64,130,o),
(80,204,o),
(104,278,cs),
(111,302,o),
(116,328,o),
(125,352,cs),
(126,354,o),
(126,354,o),
(127,356,c),
(129,364,ls),
(129,366,o),
(130,369,o),
(132,372,cs),
(143,394,o),
(170,417,o),
(189,435,cs),
(195,441,o),
(210,452,o),
(213,459,c),
(213,460,l),
(215,466,o),
(198,475,o),
(194,477,cs),
(177,489,o),
(166,498,o),
(168,522,cs),
(169,531,o),
(171,541,o),
(173,550,cs),
(181,582,o),
(199,614,o),
(211,645,cs),
(223,677,ls),
(225,680,o),
(225,685,o),
(229,689,cs),
(243,699,o),
(262,694,o),
(276,697,c),
(276,684,o),
(273,666,o),
(280,655,cs),
(290,641,o),
(307,640,o),
(325,638,cs),
(337,638,o),
(349,638,o),
(361,638,cs),
(393,638,l),
(411,638,ls),
(484,638,o),
(568,636,o),
(601,575,cs),
(621,538,o),
(617,481,o),
(612,433,cs),
(609,397,o),
(602,359,o),
(591,321,cs),
(567,229,o),
(522,137,o),
(449,64,cs),
(402,18,o),
(346,-22,o),
(285,-30,cs),
(274,-31,o),
(265,-31,o),
(255,-31,cs),
(203,-31,o),
(161,-11,o),
(137,32,cs),
(132,43,o),
(126,55,o),
(122,68,cs),
(118,84,o),
(119,97,o),
(103,105,c)
);
}
);
width = 580;
},
{
anchors = (
{
name = bottom;
pos = (336,0);
},
{
name = center;
pos = (396,306);
}
);
associatedMasterId = "48B243E4-A9BC-4CE2-9E97-0DBF8BE24EDB";
layerId = "218433E9-CCC1-40B7-AEAD-380B165D1D99";
name = "Jun 15, 23 at 19:41";
shapes = (
{
closed = 1;
nodes = (
(326,439,l),
(299,412,l),
(273,384,l),
(245,354,l),
(231,334,l),
(224,299,l),
(228,260,l),
(242,219,l),
(260,199,l),
(280,188,l),
(297,177,l),
(345,168,l),
(388,166,l),
(431,175,l),
(474,191,l),
(526,227,l),
(557,271,l),
(582,342,l),
(588,379,l),
(583,399,l),
(566,420,l),
(540,433,l),
(485,443,l),
(410,441,l)
);
},
{
closed = 1;
nodes = (
(200,455,l),
(198,456,ls),
(171,470,o),
(162,488,o),
(164,514,cs),
(165,525,o),
(166,535,o),
(169,545,cs),
(178,580,o),
(194,611,o),
(206,639,cs),
(218,668,ls),
(219,670,o),
(219,673,o),
(219,674,cs),
(223,682,o),
(226,687,o),
(232,692,cs),
(232,693,o),
(233,693,o),
(233,693,cs),
(233,693,o),
(234,694,o),
(234,694,cs),
(234,694,o),
(235,694,o),
(235,694,cs),
(240,697,o),
(246,703,o),
(262,706,cs),
(276,708,o),
(290,707,o),
(297,708,cs),
(323,713,l),
(326,696,ls),
(329,681,o),
(326,678,o),
(330,674,cs),
(335,670,o),
(344,669,o),
(366,668,cs),
(379,667,o),
(392,667,o),
(406,667,cs),
(418,667,o),
(430,667,o),
(442,667,cs),
(448,667,o),
(455,667,o),
(462,667,cs),
(534,667,o),
(649,668,o),
(693,598,cs),
(719,555,o),
(712,492,o),
(709,449,cs),
(705,413,o),
(699,374,o),
(688,335,cs),
(667,254,o),
(625,153,o),
(540,73,cs),
(488,24,o),
(418,-19,o),
(339,-28,cs),
(326,-29,o),
(314,-30,o),
(302,-30,cs),
(232,-30,o),
(171,-9,o),
(146,42,cs),
(141,52,l),
(141,39,o),
(141,26,o),
(142,12,cs),
(142,1,o),
(145,-24,o),
(138,-48,cs),
(135,-59,o),
(130,-71,o),
(122,-83,cs),
(97,-120,o),
(61,-126,o),
(32,-126,cs),
(31,-126,o),
(31,-126,o),
(30,-126,cs),
(30,-126,o),
(30,-126,o),
(30,-126,cs),
(25,-126,o),
(19,-126,o),
(12,-125,cs),
(11,-124,o),
(8,-124,o),
(6,-123,cs),
(5,-123,o),
(2,-121,o),
(0,-121,cs),
(-2,-120,o),
(-5,-117,o),
(-6,-116,cs),
(-7,-115,o),
(-10,-112,o),
(-14,-104,cs),
(-14,-102,o),
(-15,-101,o),
(-15,-100,cs),
(-18,-89,o),
(-18,-76,o),
(-18,-70,cs),
(-18,-61,o),
(-16,-52,o),
(-14,-43,cs),
(-3,-1,o),
(32,42,o),
(43,77,cs),
(67,146,o),
(83,217,o),
(105,288,cs),
(107,295,o),
(109,303,o),
(111,311,cs),
(112,313,o),
(112,316,o),
(113,318,cs),
(117,331,o),
(120,345,o),
(126,359,cs),
(126,360,o),
(126,360,o),
(126,361,cs),
(126,363,o),
(127,365,o),
(128,369,cs),
(129,374,o),
(131,378,o),
(133,382,cs),
(148,409,o),
(184,439,o),
(196,451,cs)
);
}
);
visible = 1;
width = 675;
}
);
unicode = 1505;
},
{
glyphname = "ayin-hb";
kernLeft = "ayin-hb";
kernRight = "ayin-hb";
layers = (
{
anchors = (
{
name = bottom;
pos = (146,0);
}
);
layerId = master01;
shapes = (
{
closed = 1;
nodes = (
(-12,-33,o),
(-20,-27,o),
(-20,0,cs),
(-20,42,o),
(21,134,o),
(47,134,cs),
(74,134,o),
(97,132,o),
(136,132,cs),
(172,132,o),
(180,145,o),
(188,185,cs),
(217,338,o),
(226,393,o),
(226,435,cs),
(226,450,o),
(175,479,o),
(175,511,cs),
(175,537,o),
(205,594,o),
(232,629,cs),
(242,642,o),
(256,659,o),
(272,659,cs),
(287,659,o),
(300,652,o),
(318,639,cs),
(335,624,o),
(355,605,o),
(355,580,cs),
(355,559,o),
(331,520,o),
(272,326,cs),
(258,281,o),
(236,183,o),
(236,165,cs),
(236,152,o),
(244,145,o),
(257,145,cs),
(392,145,o),
(538,247,o),
(538,373,cs),
(538,428,o),
(510,450,o),
(444,466,cs),
(409,474,o),
(397,484,o),
(397,497,cs),
(397,509,o),
(403,521,o),
(413,538,cs),
(431,569,o),
(452,608,o),
(482,635,cs),
(493,646,o),
(506,659,o),
(524,659,cs),
(541,659,o),
(554,646,o),
(578,620,cs),
(601,595,o),
(615,543,o),
(615,487,cs),
(615,452,o),
(609,418,o),
(599,382,cs),
(563,248,o),
(468,96,o),
(325,29,cs),
(240,-12,o),
(167,-33,o),
(12,-33,cs)
);
}
);
width = 580;
},
{
anchors = (
{
name = bottom;
pos = (146,0);
}
);
layerId = "48B243E4-A9BC-4CE2-9E97-0DBF8BE24EDB";
shapes = (
{
closed = 1;
nodes = (
(0,-31,o),
(-18,-17,o),
(-18,10,cs),
(-18,52,o),
(31,188,o),
(85,188,cs),
(124,188,o),
(151,182,o),
(201,182,cs),
(226,182,o),
(234,195,o),
(239,220,cs),
(271,388,o),
(267,418,o),
(249,440,cs),
(242,449,o),
(175,495,o),
(175,530,cs),
(175,556,o),
(203,614,o),
(233,648,cs),
(255,673,o),
(288,693,o),
(317,693,cs),
(352,693,o),
(372,689,o),
(389,679,cs),
(416,663,o),
(454,625,o),
(454,600,cs),
(454,579,o),
(439,574,o),
(380,380,cs),
(366,335,o),
(344,237,o),
(344,219,cs),
(344,206,o),
(352,199,o),
(365,199,cs),
(500,199,o),
(630,282,o),
(630,380,cs),
(630,427,o),
(607,448,o),
(514,464,cs),
(479,470,o),
(467,484,o),
(467,497,cs),
(467,509,o),
(474,529,o),
(484,546,cs),
(502,577,o),
(537,631,o),
(566,660,cs),
(585,679,o),
(611,693,o),
(630,693,cs),
(657,693,o),
(692,670,o),
(716,644,cs),
(739,619,o),
(759,560,o),
(759,487,cs),
(759,442,o),
(740,372,o),
(716,317,cs),
(657,182,o),
(556,60,o),
(330,0,cs),
(255,-20,o),
(187,-31,o),
(32,-31,cs)
);
}
);
width = 723;
},
{
associatedMasterId = master01;
layerId = "E406EF34-756B-4680-BC5A-1CB6EA3F9787";
name = "Jun 13, 23 at 19:16";
shapes = (
{
closed = 1;
nodes = (
(252,144,o),
(276,148,o),
(299,152,cs),
(338,159,o),
(380,167,o),
(418,188,cs),
(469,218,o),
(516,280,o),
(532,338,cs),
(539,366,o),
(539,394,o),
(528,416,cs),
(513,449,o),
(478,457,o),
(443,466,cs),
(430,470,o),
(417,474,o),
(405,480,cs),
(401,483,o),
(395,485,o),
(393,490,cs),
(392,494,o),
(392,498,o),
(393,503,cs),
(397,515,o),
(406,528,o),
(412,538,cs),
(432,571,o),
(451,608,o),
(481,635,cs),
(492,646,o),
(505,658,o),
(520,659,cs),
(523,659,ls),
(540,659,o),
(550,645,o),
(561,635,cs),
(601,602,o),
(616,543,o),
(614,487,cs),
(614,452,o),
(608,418,o),
(598,382,cs),
(562,248,o),
(467,96,o),
(324,29,cs),
(239,-12,o),
(146,-33,o),
(61,-33,cs),
(42,-33,o),
(23,-33,o),
(4,-31,cs),
(-2,-31,o),
(-13,-32,o),
(-16,-27,cs),
(-23,-12,o),
(-22,6,o),
(-17,24,cs),
(-11,48,o),
(2,72,o),
(12,92,cs),
(19,104,o),
(25,126,o),
(39,132,cs),
(42,133,o),
(44,134,o),
(48,134,cs),
(54,134,o),
(61,132,o),
(65,132,cs),
(112,132,l),
(135,132,l),
(138,132,ls),
(147,132,o),
(165,132,o),
(171,139,cs),
(175,141,o),
(177,148,o),
(178,155,cs),
(180,158,o),
(180,162,o),
(181,165,c),
(182,166,o),
(182,167,o),
(182,167,cs),
(186,182,ls),
(196,217,o),
(200,251,o),
(207,286,cs),
(214,322,o),
(220,357,o),
(223,393,cs),
(224,407,o),
(226,424,o),
(224,438,cs),
(222,447,o),
(210,455,o),
(204,462,cs),
(188,479,o),
(169,498,o),
(176,528,c),
(177,529,l),
(180,542,o),
(187,554,o),
(194,567,cs),
(205,588,o),
(215,610,o),
(231,629,cs),
(238,638,o),
(248,652,o),
(259,657,cs),
(261,659,o),
(264,659,o),
(268,659,cs),
(277,659,o),
(287,656,o),
(293,654,cs),
(302,650,o),
(308,643,o),
(315,638,cs),
(332,623,o),
(353,605,o),
(355,580,cs),
(355,575,o),
(354,571,o),
(352,566,cs),
(350,554,o),
(343,543,o),
(338,532,cs),
(327,502,o),
(316,473,o),
(306,442,cs),
(293,404,o),
(282,365,o),
(271,326,cs),
(254,265,o),
(241,204,o),
(230,143,c)
);
}
);
width = 580;
},
{
anchors = (
{
name = bottom;
pos = (146,0);
}
);
associatedMasterId = "48B243E4-A9BC-4CE2-9E97-0DBF8BE24EDB";
layerId = "5E5D8A59-A732-462C-8C64-14FE9EBF5D62";
name = "Jun 15, 23 at 19:49";
shapes = (
{
closed = 1;
nodes = (
(435,208,o),
(481,216,o),
(518,233,cs),
(567,257,o),
(614,308,o),
(627,355,cs),
(633,379,o),
(631,401,o),
(620,418,cs),
(603,443,o),
(568,450,o),
(527,459,cs),
(510,461,o),
(491,464,o),
(473,469,cs),
(466,472,o),
(465,472,o),
(463,473,cs),
(458,476,o),
(452,481,o),
(449,489,cs),
(445,499,o),
(446,510,o),
(448,520,cs),
(452,536,o),
(466,552,o),
(472,560,cs),
(493,590,o),
(518,631,o),
(556,661,cs),
(561,665,o),
(573,675,o),
(587,682,cs),
(597,687,o),
(610,691,o),
(625,692,cs),
(625,692,o),
(628,692,o),
(628,692,cs),
(661,692,o),
(676,676,o),
(691,665,cs),
(747,627,o),
(759,559,o),
(759,508,cs),
(759,472,o),
(753,435,o),
(743,399,cs),
(707,263,o),
(610,103,o),
(429,32,cs),
(320,-10,o),
(202,-31,o),
(92,-31,cs),
(68,-31,o),
(46,-30,o),
(26,-29,cs),
(15,-28,o),
(15,-29,o),
(11,-28,cs),
(5,-27,o),
(-4,-25,o),
(-9,-17,cs),
(-20,1,o),
(-18,23,o),
(-13,43,cs),
(-6,71,o),
(9,98,o),
(18,118,cs),
(28,139,o),
(35,160,o),
(56,174,cs),
(57,175,o),
(60,177,o),
(63,179,cs),
(71,183,o),
(78,184,o),
(83,184,cs),
(90,184,o),
(99,182,o),
(101,182,cs),
(119,182,o),
(144,182,o),
(170,182,cs),
(182,182,o),
(195,182,o),
(208,182,cs),
(208,182,o),
(208,182,o),
(208,182,cs),
(209,182,o),
(211,182,o),
(212,182,cs),
(212,182,o),
(212,182,o),
(213,182,cs),
(221,182,o),
(227,182,o),
(232,183,c),
(232,183,o),
(232,183,o),
(232,184,cs),
(232,185,o),
(233,187,o),
(233,187,cs),
(234,192,o),
(236,196,o),
(237,201,cs),
(245,232,o),
(247,266,o),
(252,302,cs),
(258,338,o),
(262,371,o),
(259,404,cs),
(258,424,o),
(259,435,o),
(255,444,cs),
(255,444,o),
(255,444,o),
(254,444,cs),
(249,448,o),
(236,454,o),
(227,459,cs),
(204,472,o),
(166,499,o),
(177,543,cs),
(177,544,o),
(177,545,o),
(177,546,cs),
(182,562,o),
(192,579,o),
(196,587,cs),
(206,607,o),
(218,630,o),
(237,652,cs),
(237,652,l),
(238,652,ls),
(245,659,o),
(262,675,o),
(287,685,cs),
(288,686,o),
(291,687,o),
(294,688,cs),
(307,692,o),
(318,692,o),
(328,692,cs),
(349,692,o),
(374,687,o),
(378,686,cs),
(391,681,o),
(401,671,o),
(406,667,cs),
(424,652,o),
(449,632,o),
(453,601,cs),
(454,594,o),
(454,588,o),
(452,582,cs),
(448,567,o),
(441,555,o),
(436,544,cs),
(424,515,o),
(413,486,o),
(403,457,cs),
(391,420,o),
(379,382,o),
(369,343,cs),
(356,294,o),
(346,244,o),
(336,195,c),
(353,197,o),
(371,199,o),
(388,202,cs)
);
}
);
visible = 1;
width = 723;
}
);
unicode = 1506;
},
{
glyphname = "peFinal-hb";
kernLeft = "peFinal-hb";
kernRight = "peFinal-hb";
layers = (
{
anchors = (
{
name = bottom;
pos = (46,0);
},
{
name = center;
pos = (285,358);
}
);
layerId = master01;
shapes = (
{
closed = 1;
nodes = (
(190,-345,o),
(184,-332,o),
(184,-316,cs),
(184,-306,o),
(265,-30,o),
(296,88,cs),
(309,139,o),
(325,190,o),
(351,238,cs),
(388,311,o),
(432,357,o),
(432,379,cs),
(432,432,o),
(329,493,o),
(241,493,cs),
(214,493,o),
(138,444,o),
(138,360,cs),
(138,280,o),
(232,256,o),
(232,212,cs),
(232,189,o),
(228,153,o),
(221,140,cs),
(213,125,o),
(176,112,o),
(143,112,cs),
(70,112,o),
(41,168,o),
(41,217,cs),
(41,401,o),
(213,640,o),
(347,640,cs),
(442,640,o),
(561,557,o),
(561,512,cs),
(561,481,o),
(461,318,o),
(437,260,cs),
(409,186,o),
(404,142,o),
(392,62,cs),
(381,-17,o),
(353,-217,o),
(345,-232,cs),
(316,-287,o),
(239,-345,o),
(208,-345,cs)
);
}
);
width = 541;
},
{
anchors = (
{
name = bottom;
pos = (46,0);
},
{
name = center;
pos = (333,377);
}
);
layerId = "48B243E4-A9BC-4CE2-9E97-0DBF8BE24EDB";
shapes = (
{
closed = 1;
nodes = (
(254,-342,o),
(237,-323,o),
(237,-297,cs),
(237,-246,o),
(305,-48,o),
(336,70,cs),
(349,121,o),
(384,221,o),
(410,269,cs),
(447,342,o),
(481,360,o),
(481,388,cs),
(481,441,o),
(424,491,o),
(297,491,cs),
(229,491,o),
(194,446,o),
(194,392,cs),
(194,312,o),
(312,274,o),
(312,220,cs),
(312,187,o),
(297,159,o),
(281,147,cs),
(257,129,o),
(236,112,o),
(183,112,cs),
(100,112,o),
(46,148,o),
(46,247,cs),
(46,401,o),
(206,670,o),
(400,670,cs),
(575,670,o),
(660,571,o),
(660,526,cs),
(660,485,o),
(561,349,o),
(530,260,cs),
(504,186,o),
(501,136,o),
(489,56,cs),
(478,-23,o),
(456,-196,o),
(449,-212,cs),
(420,-277,o),
(319,-342,o),
(288,-342,cs)
);
}
);
width = 636;
},
{
associatedMasterId = master01;
layerId = "81FAC936-AD91-4873-852A-BDA8A37B62F7";
name = "Jun 13, 23 at 20:00";
shapes = (
{
closed = 1;
nodes = (
(339,640,o),
(344,640,o),
(347,640,cs),
(362,640,o),
(377,637,o),
(389,635,cs),
(443,626,o),
(490,602,o),
(525,566,cs),
(537,554,o),
(547,543,o),
(554,528,cs),
(556,524,o),
(561,518,o),
(561,512,cs),
(561,511,o),
(561,509,o),
(561,507,c),
(559,503,o),
(556,498,o),
(555,494,cs),
(549,475,o),
(539,456,o),
(529,438,cs),
(498,378,o),
(462,322,o),
(437,260,cs),
(429,239,o),
(422,217,o),
(416,196,cs),
(405,151,o),
(398,107,o),
(391,62,cs),
(382,-5,o),
(375,-71,o),
(365,-137,cs),
(361,-159,o),
(357,-181,o),
(352,-202,cs),
(351,-209,o),
(350,-216,o),
(348,-223,cs),
(347,-226,o),
(346,-230,o),
(345,-232,cs),
(329,-267,o),
(297,-296,o),
(264,-317,cs),
(250,-326,o),
(225,-344,o),
(210,-345,cs),
(208,-345,ls),
(188,-345,o),
(182,-327,o),
(185,-308,cs),
(185,-305,o),
(186,-302,o),
(187,-299,cs),
(190,-290,o),
(194,-280,o),
(196,-270,cs),
(225,-168,ls),
(243,-99,o),
(265,-30,o),
(283,39,cs),
(296,88,ls),
(309,139,o),
(325,190,o),
(351,238,cs),
(367,269,o),
(386,298,o),
(405,328,cs),
(412,339,o),
(428,356,o),
(432,368,c),
(432,370,l),
(436,390,o),
(421,409,o),
(409,421,cs),
(374,458,o),
(332,482,o),
(275,489,cs),
(265,490,o),
(253,493,o),
(241,493,cs),
(236,493,o),
(231,493,o),
(226,491,cs),
(210,486,o),
(189,467,o),
(176,455,cs),
(159,438,o),
(148,417,o),
(142,396,cs),
(136,373,o),
(136,349,o),
(143,328,cs),
(151,308,o),
(165,291,o),
(180,276,cs),
(195,260,o),
(218,250,o),
(227,230,cs),
(237,211,o),
(232,190,o),
(229,167,cs),
(228,161,o),
(227,153,o),
(225,145,cs),
(225,142,o),
(224,140,o),
(223,138,c),
(220,134,o),
(215,131,o),
(211,129,cs),
(198,123,o),
(185,118,o),
(172,115,cs),
(162,113,o),
(153,112,o),
(143,112,cs),
(104,112,o),
(71,130,o),
(55,163,cs),
(36,202,o),
(41,252,o),
(51,298,cs),
(52,305,o),
(54,312,o),
(56,319,cs),
(77,398,o),
(118,472,o),
(178,540,cs),
(211,575,o),
(250,606,o),
(293,624,cs),
(306,630,o),
(322,638,o),
(336,639,cs)
);
}
);
width = 541;
},
{
anchors = (
{
name = bottom;
pos = (46,0);
},
{
name = center;
pos = (343,373);
}
);
associatedMasterId = "48B243E4-A9BC-4CE2-9E97-0DBF8BE24EDB";
layerId = "400C663E-D65F-4B5F-97E4-D3A1A8D4EBF0";
name = "Jun 15, 23 at 19:56";
shapes = (
{
closed = 1;
nodes = (
(420,672,o),
(438,669,o),
(457,667,cs),
(529,657,o),
(580,632,o),
(618,595,cs),
(630,583,o),
(641,570,o),
(650,554,cs),
(656,544,o),
(657,542,o),
(658,538,cs),
(659,537,o),
(659,534,o),
(659,533,cs),
(660,531,o),
(659,525,o),
(659,522,cs),
(657,515,o),
(654,510,o),
(653,506,cs),
(645,485,o),
(635,465,o),
(625,447,cs),
(594,387,o),
(559,332,o),
(537,274,cs),
(529,254,o),
(522,233,o),
(517,213,cs),
(505,171,o),
(499,128,o),
(493,83,cs),
(485,18,o),
(478,-48,o),
(468,-115,cs),
(464,-137,o),
(460,-159,o),
(455,-181,cs),
(453,-189,o),
(453,-194,o),
(451,-203,cs),
(450,-207,o),
(448,-211,o),
(446,-216,cs),
(428,-257,o),
(390,-288,o),
(355,-311,cs),
(341,-319,o),
(314,-338,o),
(292,-342,cs),
(290,-342,o),
(290,-342,o),
(286,-342,cs),
(285,-342,o),
(284,-342,o),
(283,-342,cs),
(283,-342,o),
(282,-342,o),
(282,-342,cs),
(272,-341,o),
(249,-340,o),
(241,-315,cs),
(238,-306,o),
(237,-298,o),
(237,-290,cs),
(238,-286,o),
(238,-282,o),
(239,-279,cs),
(243,-267,o),
(247,-258,o),
(249,-250,cs),
(258,-216,o),
(268,-182,o),
(277,-149,cs),
(295,-79,o),
(318,-11,o),
(336,57,cs),
(340,73,o),
(344,89,o),
(348,106,cs),
(362,157,o),
(377,210,o),
(406,262,cs),
(422,293,o),
(440,323,o),
(460,353,cs),
(475,375,o),
(480,378,o),
(482,384,c),
(483,384,l),
(483,384,o),
(483,384,o),
(483,385,cs),
(484,390,o),
(482,400,o),
(464,418,cs),
(432,445,o),
(373,467,o),
(308,473,cs),
(292,475,o),
(282,477,o),
(271,477,cs),
(266,477,o),
(264,477,o),
(263,477,cs),
(257,476,o),
(245,470,o),
(224,456,cs),
(210,443,o),
(201,428,o),
(197,412,cs),
(192,394,o),
(194,374,o),
(201,358,cs),
(209,342,o),
(224,326,o),
(241,311,cs),
(261,294,o),
(285,288,o),
(301,263,cs),
(317,240,o),
(312,216,o),
(309,189,cs),
(308,182,o),
(308,174,o),
(305,162,cs),
(305,159,o),
(300,146,o),
(300,151,cs),
(300,152,l),
(299,151,ls),
(297,149,o),
(289,141,o),
(285,138,cs),
(280,135,o),
(276,134,o),
(272,132,cs),
(255,124,o),
(237,119,o),
(219,116,cs),
(205,113,o),
(193,112,o),
(180,112,cs),
(126,112,o),
(81,133,o),
(62,170,cs),
(53,187,o),
(36,227,o),
(55,314,cs),
(57,321,o),
(59,328,o),
(61,335,cs),
(80,408,o),
(117,487,o),
(188,564,cs),
(223,602,o),
(271,634,o),
(326,655,cs),
(335,658,o),
(361,669,o),
(383,671,cs),
(389,672,o),
(395,672,o),
(400,672,cs)
);
}
);
visible = 1;
width = 636;
}
);
unicode = 1507;
},
{
glyphname = "pe-hb";
kernLeft = "pe-hb";
kernRight = "pe-hb";
layers = (
{
anchors = (
{
name = bottom;
pos = (126,0);
},
{
name = center;
pos = (355,316);
}
);
layerId = master01;
shapes = (
{
closed = 1;
nodes = (
(13,-37,o),
(-1,-34,o),
(-1,-9,cs),
(-1,18,o),
(23,78,o),
(41,109,cs),
(47,119,o),
(60,130,o),
(79,130,cs),
(401,130,o),
(504,243,o),
(504,376,cs),
(504,441,o),
(475,466,o),
(350,466,cs),
(337,466,o),
(284,463,o),
(271,459,cs),
(247,449,o),
(205,409,o),
(205,385,cs),
(205,365,o),
(235,345,o),
(235,322,cs),
(235,292,o),
(172,221,o),
(122,221,cs),
(98,221,o),
(76,262,o),
(76,295,cs),
(76,346,o),
(113,387,o),
(171,432,cs),
(176,436,o),
(185,443,o),
(185,450,cs),
(185,456,o),
(178,460,o),
(171,462,cs),
(153,467,o),
(142,491,o),
(142,517,cs),
(142,588,o),
(192,670,o),
(204,680,cs),
(214,689,o),
(233,694,o),
(242,694,cs),
(249,694,o),
(254,689,o),
(254,680,cs),
(254,642,o),
(274,633,o),
(337,631,cs),
(539,625,o),
(578,610,o),
(578,475,cs),
(578,213,o),
(353,-37,o),
(75,-37,cs)
);
}
);
width = 580;
},
{
anchors = (
{
name = bottom;
pos = (146,0);
},
{
name = center;
pos = (425,326);
}
);
layerId = "48B243E4-A9BC-4CE2-9E97-0DBF8BE24EDB";
shapes = (
{
closed = 1;
nodes = (
(43,-35,o),
(19,-25,o),
(19,0,cs),
(19,47,o),
(45,109,o),
(77,149,cs),
(84,158,o),
(99,171,o),
(118,171,cs),
(440,171,o),
(564,235,o),
(564,368,cs),
(564,433,o),
(517,450,o),
(392,450,cs),
(339,450,o),
(317,441,o),
(305,433,cs),
(290,423,o),
(281,404,o),
(281,393,cs),
(281,376,o),
(314,357,o),
(314,327,cs),
(314,297,o),
(236,200,o),
(156,200,cs),
(112,200,o),
(90,262,o),
(90,295,cs),
(90,346,o),
(125,389,o),
(167,424,cs),
(172,428,o),
(179,436,o),
(179,441,cs),
(179,445,o),
(176,450,o),
(171,455,cs),
(160,466,o),
(153,491,o),
(153,509,cs),
(153,580,o),
(208,670,o),
(220,680,cs),
(230,689,o),
(283,703,o),
(299,703,cs),
(306,703,o),
(311,698,o),
(311,689,cs),
(311,651,o),
(324,640,o),
(357,640,cs),
(639,640,o),
(686,602,o),
(686,467,cs),
(686,205,o),
(443,-35,o),
(125,-35,cs)
);
}
);
width = 675;
},
{
associatedMasterId = master01;
layerId = "AF831161-F6F3-4EDD-BDB7-4ACB35E8C717";
name = "Jun 13, 23 at 20:35";
shapes = (
{
closed = 1;
nodes = (
(273,678,o),
(266,663,o),
(277,650,cs),
(294,629,o),
(329,633,o),
(355,631,cs),
(413,627,o),
(477,634,o),
(530,615,cs),
(601,591,o),
(602,496,o),
(592,424,cs),
(590,410,o),
(588,396,o),
(584,382,cs),
(583,375,o),
(581,366,o),
(579,358,cs),
(555,270,o),
(508,176,o),
(434,105,cs),
(378,50,o),
(299,8,o),
(229,-14,cs),
(185,-27,o),
(137,-37,o),
(93,-37,cs),
(83,-37,o),
(72,-37,o),
(62,-36,cs),
(49,-34,o),
(21,-35,o),
(17,-20,cs),
(16,-16,o),
(17,-11,o),
(19,-6,cs),
(21,3,ls),
(21,5,o),
(22,6,o),
(22,8,cs),
(23,15,o),
(25,22,o),
(27,30,cs),
(33,51,o),
(41,73,o),
(51,93,cs),
(56,104,o),
(65,121,o),
(77,127,cs),
(82,129,o),
(90,130,o),
(97,130,cs),
(107,130,l),
(110,130,ls),
(130,130,o),
(149,132,o),
(170,133,cs),
(245,139,o),
(331,139,o),
(406,184,cs),
(462,218,o),
(501,272,o),
(516,329,cs),
(518,336,o),
(519,344,o),
(520,351,cs),
(526,385,o),
(523,421,o),
(499,441,cs),
(484,454,o),
(453,458,o),
(432,461,cs),
(411,464,o),
(390,466,o),
(368,466,cs),
(355,466,o),
(343,465,o),
(330,464,cs),
(317,463,o),
(302,463,o),
(289,459,cs),
(264,449,o),
(235,416,o),
(224,393,c),
(224,392,o),
(224,391,o),
(224,391,cs),
(222,382,o),
(226,374,o),
(229,368,cs),
(238,351,o),
(258,337,o),
(252,313,cs),
(252,312,o),
(251,311,o),
(251,310,c),
(247,299,o),
(238,290,o),
(230,280,cs),
(213,260,o),
(194,237,o),
(170,228,cs),
(162,224,o),
(149,221,o),
(140,221,cs),
(138,221,o),
(135,221,o),
(133,222,cs),
(121,227,o),
(112,239,o),
(107,250,cs),
(95,270,o),
(90,295,o),
(97,322,cs),
(99,330,o),
(102,337,o),
(106,345,cs),
(115,362,o),
(129,377,o),
(142,391,cs),
(157,405,o),
(173,418,o),
(189,432,cs),
(194,436,o),
(204,442,o),
(205,448,c),
(206,449,l),
(209,459,o),
(190,461,o),
(184,464,cs),
(173,470,o),
(166,485,o),
(163,497,cs),
(158,516,o),
(160,537,o),
(166,559,cs),
(173,586,o),
(187,615,o),
(198,641,cs),
(214,673,ls),
(216,678,o),
(217,684,o),
(221,687,cs),
(226,690,o),
(233,690,o),
(238,690,cs),
(248,691,o),
(260,690,o),
(271,694,c)
);
}
);
width = 580;
},
{
anchors = (
{
name = bottom;
pos = (146,0);
},
{
name = center;
pos = (425,335);
}
);
associatedMasterId = "48B243E4-A9BC-4CE2-9E97-0DBF8BE24EDB";
layerId = "6DD55BB5-8680-4CA5-9556-106B053EFFCD";
name = "Jun 15, 23 at 20:03";
shapes = (
{
closed = 1;
nodes = (
(318,662,o),
(311,658,o),
(318,651,cs),
(330,639,o),
(359,641,o),
(394,639,cs),
(462,635,o),
(534,643,o),
(599,624,cs),
(693,595,o),
(691,488,o),
(682,423,cs),
(680,409,o),
(678,396,o),
(675,382,cs),
(673,374,o),
(671,367,o),
(669,359,cs),
(647,273,o),
(601,178,o),
(523,108,cs),
(458,51,o),
(362,11,o),
(281,-11,cs),
(230,-24,o),
(173,-35,o),
(120,-35,cs),
(106,-35,o),
(93,-34,o),
(81,-33,cs),
(69,-32,o),
(57,-31,o),
(46,-28,cs),
(37,-25,o),
(26,-19,o),
(22,-6,cs),
(19,4,o),
(21,13,o),
(23,20,cs),
(24,25,o),
(24,25,o),
(25,28,cs),
(25,29,o),
(26,30,o),
(26,31,cs),
(27,38,o),
(29,46,o),
(31,54,cs),
(37,76,o),
(45,98,o),
(55,118,cs),
(58,124,o),
(63,134,o),
(71,144,cs),
(82,159,o),
(94,164,o),
(97,165,cs),
(109,171,o),
(123,171,o),
(129,171,cs),
(135,171,o),
(135,171,o),
(139,171,cs),
(139,171,o),
(141,171,o),
(141,171,cs),
(163,171,o),
(185,173,o),
(208,174,cs),
(306,180,o),
(387,182,o),
(459,218,cs),
(512,245,o),
(546,289,o),
(559,335,cs),
(560,341,o),
(561,347,o),
(562,353,cs),
(566,381,o),
(561,407,o),
(540,421,cs),
(527,430,o),
(502,433,o),
(473,436,cs),
(450,439,o),
(427,441,o),
(403,441,cs),
(390,441,o),
(377,440,o),
(364,439,cs),
(352,438,o),
(335,439,o),
(326,435,cs),
(314,431,o),
(288,411,o),
(277,392,c),
(278,390,o),
(279,387,o),
(282,384,cs),
(292,369,o),
(312,355,o),
(314,330,cs),
(314,326,o),
(314,320,o),
(312,315,cs),
(312,314,o),
(311,311,o),
(311,310,cs),
(305,293,o),
(292,280,o),
(282,270,cs),
(263,251,o),
(238,223,o),
(201,209,cs),
(193,206,o),
(174,200,o),
(157,200,cs),
(150,200,o),
(144,202,o),
(140,203,cs),
(122,211,o),
(110,230,o),
(105,238,cs),
(82,278,o),
(91,316,o),
(94,324,cs),
(96,334,o),
(100,343,o),
(105,353,cs),
(117,374,o),
(133,391,o),
(147,405,cs),
(161,419,o),
(175,431,o),
(187,441,c),
(181,445,o),
(167,453,o),
(158,481,cs),
(151,504,o),
(153,527,o),
(159,550,cs),
(166,579,o),
(180,607,o),
(192,631,cs),
(196,641,o),
(201,651,o),
(206,662,cs),
(209,668,o),
(209,669,o),
(210,671,cs),
(213,676,o),
(217,680,o),
(223,686,cs),
(224,687,l),
(225,687,ls),
(228,687,o),
(238,694,o),
(243,694,cs),
(249,696,o),
(255,696,o),
(257,696,cs),
(271,696,o),
(276,696,o),
(281,698,cs),
(308,706,l),
(313,685,ls)
);
}
);
visible = 1;
width = 675;
}
);
unicode = 1508;
},
{
glyphname = "tsadiFinal-hb";
kernLeft = "tsadiFinal-hb";
kernRight = "tsadiFinal-hb";
layers = (
{
anchors = (
{
name = bottom;
pos = (6,-300);
}
);
layerId = master01;
shapes = (
{
closed = 1;
nodes = (
(-15,-342,o),
(-23,-315,o),
(-23,-286,cs),
(-23,-199,o),
(-6,-147,o),
(116,160,cs),
(221,424,ls),
(227,439,o),
(228,450,o),
(228,456,cs),
(228,463,o),
(221,466,o),
(206,467,cs),
(138,472,o),
(88,502,o),
(88,560,cs),
(88,629,o),
(134,692,o),
(154,692,cs),
(170,692,o),
(188,630,o),
(298,630,cs),
(406,630,o),
(444,694,o),
(464,694,cs),
(478,694,o),
(482,685,o),
(482,660,cs),
(482,573,o),
(400,495,o),
(330,478,cs),
(309,473,o),
(294,458,o),
(285,433,cs),
(263,373,o),
(244,317,o),
(225,258,cs),
(215,228,o),
(197,149,o),
(192,120,cs),
(177,22,o),
(187,-48,o),
(153,-137,cs),
(144,-160,o),
(90,-259,o),
(64,-287,cs),
(27,-328,o),
(14,-342,o),
(1,-342,cs)
);
}
);
width = 426;
},
{
anchors = (
{
name = bottom;
pos = (21,-300);
}
);
layerId = "48B243E4-A9BC-4CE2-9E97-0DBF8BE24EDB";
shapes = (
{
closed = 1;
nodes = (
(2,-338,o),
(-19,-310,o),
(-19,-241,cs),
(-19,-164,o),
(42,-19,o),
(118,157,cs),
(223,399,ls),
(228,410,o),
(230,418,o),
(230,428,cs),
(230,436,o),
(223,441,o),
(208,441,cs),
(120,441,o),
(76,475,o),
(76,533,cs),
(76,602,o),
(119,692,o),
(167,692,cs),
(195,692,o),
(211,627,o),
(341,627,cs),
(469,627,o),
(517,699,o),
(541,699,cs),
(561,699,o),
(566,687,o),
(566,660,cs),
(566,573,o),
(496,469,o),
(399,455,cs),
(375,452,o),
(370,446,o),
(363,430,cs),
(356,413,o),
(342,383,o),
(323,324,cs),
(313,294,o),
(276,149,o),
(271,120,cs),
(253,9,o),
(276,-48,o),
(233,-147,cs),
(223,-170,o),
(157,-259,o),
(131,-287,cs),
(94,-328,o),
(69,-338,o),
(41,-338,cs)
);
}
);
width = 521;
},
{
associatedMasterId = master01;
layerId = "BA5C88DB-3D56-43E6-86EB-C11B099824F1";
name = "Jun 13, 23 at 21:48";
shapes = (
{
closed = 1;
nodes = (
(478,681,o),
(472,659,o),
(470,643,cs),
(465,627,ls),
(453,581,o),
(427,535,o),
(383,505,cs),
(365,494,o),
(344,484,o),
(324,478,cs),
(316,476,o),
(300,474,o),
(294,468,cs),
(286,461,o),
(282,443,o),
(278,433,cs),
(254,374,o),
(234,314,o),
(218,253,cs),
(212,232,o),
(206,211,o),
(202,190,cs),
(197,167,o),
(189,143,o),
(185,120,cs),
(182,100,o),
(183,81,o),
(181,62,cs),
(176,6,o),
(171,-51,o),
(155,-107,cs),
(152,-118,o),
(150,-127,o),
(146,-137,cs),
(138,-160,o),
(124,-182,o),
(111,-203,cs),
(93,-232,o),
(74,-260,o),
(53,-288,cs),
(43,-300,o),
(32,-312,o),
(20,-323,cs),
(15,-328,o),
(10,-335,o),
(4,-338,cs),
(0,-340,o),
(-4,-342,o),
(-6,-342,cs),
(-17,-342,o),
(-20,-329,o),
(-24,-321,cs),
(-35,-295,o),
(-30,-257,o),
(-26,-225,cs),
(-23,-206,o),
(-19,-187,o),
(-13,-168,cs),
(1,-112,o),
(25,-57,o),
(48,-1,cs),
(71,52,o),
(91,105,o),
(111,158,cs),
(189,353,ls),
(204,390,o),
(215,430,o),
(234,466,c),
(180,466,o),
(118,474,o),
(92,517,cs),
(78,538,o),
(78,566,o),
(86,596,cs),
(91,613,o),
(98,630,o),
(106,645,cs),
(113,660,o),
(129,684,o),
(145,692,c),
(147,692,ls),
(153,692,o),
(159,678,o),
(162,674,cs),
(179,656,o),
(201,643,o),
(227,638,cs),
(246,633,o),
(269,630,o),
(291,630,cs),
(320,630,o),
(351,634,o),
(379,643,cs),
(410,654,o),
(445,675,o),
(473,694,c)
);
}
);
width = 426;
},
{
anchors = (
{
name = bottom;
pos = (6,-300);
}
);
associatedMasterId = "48B243E4-A9BC-4CE2-9E97-0DBF8BE24EDB";
layerId = "40A6DBD2-F11A-483C-A69B-F49A5E63CBF1";
name = "Jun 15, 23 at 20:53";
shapes = (
{
closed = 1;
nodes = (
(545,570,o),
(515,510,o),
(461,471,cs),
(460,470,l),
(458,470,ls),
(439,462,o),
(415,458,o),
(390,453,cs),
(379,451,o),
(374,450,o),
(371,449,c),
(368,444,o),
(365,435,o),
(363,429,cs),
(337,371,o),
(317,312,o),
(302,253,cs),
(297,233,o),
(292,212,o),
(287,192,cs),
(282,168,o),
(275,145,o),
(272,125,cs),
(270,110,o),
(272,86,o),
(271,71,cs),
(268,14,o),
(265,-45,o),
(249,-106,cs),
(246,-115,o),
(243,-125,o),
(240,-135,cs),
(231,-160,o),
(213,-182,o),
(199,-201,cs),
(179,-229,o),
(158,-257,o),
(133,-285,cs),
(121,-298,o),
(107,-310,o),
(94,-321,cs),
(87,-326,o),
(85,-328,o),
(83,-330,cs),
(82,-329,l),
(82,-330,ls),
(81,-330,o),
(79,-331,o),
(77,-332,cs),
(77,-332,o),
(74,-333,o),
(72,-334,cs),
(72,-333,l),
(71,-334,ls),
(70,-334,o),
(68,-334,o),
(66,-335,cs),
(62,-335,o),
(56,-337,o),
(54,-337,cs),
(49,-338,o),
(44,-338,o),
(40,-338,cs),
(39,-338,o),
(30,-338,o),
(19,-336,cs),
(19,-336,l),
(18,-336,ls),
(6,-331,o),
(-1,-321,o),
(-4,-318,cs),
(-25,-288,o),
(-20,-246,o),
(-17,-223,cs),
(-15,-204,o),
(-12,-185,o),
(-7,-166,cs),
(9,-106,o),
(35,-49,o),
(60,8,cs),
(83,59,o),
(105,111,o),
(126,164,cs),
(152,228,o),
(181,292,o),
(207,355,cs),
(218,381,o),
(227,411,o),
(240,440,c),
(185,442,o),
(120,450,o),
(89,481,cs),
(88,481,l),
(88,482,ls),
(72,514,o),
(75,555,o),
(85,593,cs),
(90,610,o),
(97,627,o),
(106,643,cs),
(112,654,o),
(125,672,o),
(143,683,cs),
(143,683,l),
(144,683,ls),
(144,684,o),
(145,684,o),
(148,685,cs),
(149,686,o),
(149,686,o),
(152,687,cs),
(153,687,o),
(154,688,o),
(157,688,cs),
(158,688,l),
(158,688,ls),
(161,689,o),
(167,689,o),
(170,689,cs),
(170,689,l),
(170,689,ls),
(173,689,o),
(182,688,o),
(184,687,cs),
(185,687,l),
(186,687,ls),
(193,683,o),
(201,672,o),
(202,671,cs),
(219,653,o),
(242,641,o),
(268,635,cs),
(290,630,o),
(315,627,o),
(340,627,cs),
(372,627,o),
(405,632,o),
(434,641,cs),
(465,650,o),
(501,671,o),
(527,691,cs),
(553,709,l),
(563,691,ls),
(571,675,o),
(565,652,o),
(563,641,cs),
(562,635,o),
(561,630,o),
(560,624,cs)
);
}
);
visible = 1;
width = 521;
}
);
unicode = 1509;
},
{
glyphname = "tsadi-hb";
kernLeft = "tsadi-hb";
kernRight = "tsadi-hb";
layers = (
{
anchors = (
{
name = bottom;
pos = (116,0);
},
{
name = center;
pos = (146,320);
}
);
layerId = master01;
shapes = (
{
closed = 1;
nodes = (
(-2,-36,o),
(-10,-32,o),
(-10,0,cs),
(-10,26,o),
(17,105,o),
(38,128,cs),
(47,138,o),
(64,144,o),
(77,147,cs),
(242,180,o),
(334,252,o),
(334,366,cs),
(334,406,o),
(312,444,o),
(281,450,cs),
(181,470,o),
(166,486,o),
(166,508,cs),
(166,547,o),
(172,569,o),
(187,601,cs),
(203,634,o),
(228,653,o),
(255,678,cs),
(326,746,o),
(357,830,o),
(434,830,cs),
(477,830,o),
(510,822,o),
(510,789,cs),
(510,763,o),
(479,734,o),
(442,720,cs),
(399,704,o),
(350,675,o),
(324,660,cs),
(311,652,o),
(305,645,o),
(305,635,cs),
(305,627,o),
(312,622,o),
(328,618,cs),
(346,613,o),
(365,602,o),
(377,588,cs),
(395,567,o),
(409,540,o),
(409,483,cs),
(409,254,o),
(236,-36,o),
(7,-36,cs)
);
}
);
width = 387;
},
{
anchors = (
{
name = bottom;
pos = (116,0);
},
{
name = center;
pos = (173,336);
}
);
layerId = "48B243E4-A9BC-4CE2-9E97-0DBF8BE24EDB";
shapes = (
{
closed = 1;
nodes = (
(8,-34,o),
(-10,-26,o),
(-10,0,cs),
(-10,34,o),
(25,124,o),
(54,162,cs),
(66,177,o),
(86,192,o),
(106,195,cs),
(305,227,o),
(373,265,o),
(373,350,cs),
(373,400,o),
(346,422,o),
(281,435,cs),
(172,457,o),
(160,469,o),
(160,496,cs),
(160,535,o),
(170,569,o),
(185,601,cs),
(201,634,o),
(252,668,o),
(298,712,cs),
(352,763,o),
(389,829,o),
(504,829,cs),
(570,829,o),
(600,815,o),
(600,788,cs),
(600,739,o),
(559,700,o),
(513,676,cs),
(464,651,o),
(418,639,o),
(403,635,cs),
(393,632,o),
(387,627,o),
(387,622,cs),
(387,616,o),
(393,615,o),
(412,609,cs),
(436,601,o),
(461,583,o),
(473,565,cs),
(489,542,o),
(501,515,o),
(501,458,cs),
(501,242,o),
(331,-34,o),
(27,-34,cs)
);
}
);
width = 483;
},
{
associatedMasterId = master01;
layerId = "EAF5387C-08D2-4E45-ADA0-69EE8B1CF558";
name = "Jun 13, 23 at 21:58";
shapes = (
{
closed = 1;
nodes = (
(303,622,o),
(327,622,o),
(343,613,cs),
(408,580,o),
(415,502,o),
(405,428,cs),
(401,400,o),
(397,372,o),
(389,344,cs),
(364,251,o),
(316,157,o),
(243,78,cs),
(202,36,o),
(144,-8,o),
(89,-25,cs),
(75,-30,o),
(58,-31,o),
(44,-33,cs),
(33,-34,o),
(21,-36,o),
(9,-36,cs),
(6,-36,o),
(3,-36,o),
(0,-36,cs),
(-13,-34,o),
(-11,-7,o),
(-9,4,cs),
(-9,11,o),
(-7,17,o),
(-5,24,cs),
(-2,35,o),
(2,46,o),
(5,57,cs),
(14,83,o),
(21,109,o),
(42,132,cs),
(53,142,o),
(64,144,o),
(77,147,cs),
(95,151,o),
(113,155,o),
(131,160,cs),
(195,176,o),
(257,199,o),
(299,260,cs),
(312,280,o),
(322,302,o),
(327,323,cs),
(341,376,o),
(331,428,o),
(285,448,cs),
(261,458,o),
(233,463,o),
(208,470,cs),
(196,473,o),
(178,476,o),
(171,485,cs),
(166,491,o),
(166,506,o),
(166,515,cs),
(166,530,o),
(168,546,o),
(173,562,cs),
(176,575,o),
(181,588,o),
(187,601,cs),
(203,634,o),
(228,653,o),
(255,678,cs),
(277,699,o),
(297,720,o),
(315,743,cs),
(337,770,o),
(354,802,o),
(387,818,cs),
(406,826,o),
(427,830,o),
(448,830,cs),
(463,830,o),
(478,827,o),
(490,822,cs),
(505,813,o),
(514,799,o),
(509,780,cs),
(508,776,o),
(506,771,o),
(504,767,cs),
(491,746,o),
(467,734,o),
(447,722,cs),
(404,694,o),
(355,685,o),
(313,654,cs),
(301,645,o),
(293,636,o),
(283,625,c)
);
}
);
width = 387;
},
{
anchors = (
{
name = bottom;
pos = (116,0);
},
{
name = center;
pos = (146,320);
}
);
associatedMasterId = "48B243E4-A9BC-4CE2-9E97-0DBF8BE24EDB";
layerId = "8D014319-8B76-4B9F-8E24-379917BE11FB";
name = "Jun 15, 23 at 21:13";
shapes = (
{
closed = 1;
nodes = (
(497,403,o),
(491,374,o),
(483,345,cs),
(459,253,o),
(413,157,o),
(335,81,cs),
(293,42,o),
(215,-4,o),
(135,-23,cs),
(112,-28,o),
(84,-30,o),
(72,-31,cs),
(62,-32,o),
(48,-34,o),
(34,-34,cs),
(30,-34,o),
(26,-34,o),
(21,-33,cs),
(19,-33,o),
(12,-33,o),
(4,-29,cs),
(3,-29,l),
(2,-29,ls),
(-10,-18,o),
(-9,1,o),
(-8,6,cs),
(-8,13,o),
(-6,20,o),
(-5,26,cs),
(-1,39,o),
(3,51,o),
(7,63,cs),
(16,92,o),
(25,129,o),
(53,160,cs),
(56,164,o),
(68,181,o),
(90,190,cs),
(97,193,o),
(103,194,o),
(108,196,cs),
(169,208,ls),
(249,221,o),
(310,235,o),
(344,271,cs),
(357,287,o),
(365,305,o),
(370,324,cs),
(382,368,o),
(368,409,o),
(321,425,cs),
(292,434,o),
(258,438,o),
(224,445,cs),
(218,447,o),
(186,451,o),
(173,465,c),
(171,466,o),
(169,466,o),
(166,468,cs),
(163,469,l),
(163,471,ls),
(163,472,o),
(162,473,o),
(161,474,cs),
(160,485,o),
(161,497,o),
(161,503,cs),
(162,522,o),
(164,541,o),
(170,561,cs),
(173,574,o),
(178,587,o),
(185,600,cs),
(204,635,o),
(233,656,o),
(259,677,cs),
(283,697,o),
(306,719,o),
(327,741,cs),
(348,762,o),
(373,798,o),
(424,815,cs),
(452,824,o),
(483,828,o),
(512,828,cs),
(533,828,o),
(551,825,o),
(566,819,cs),
(586,812,o),
(607,799,o),
(601,778,cs),
(599,769,o),
(595,759,o),
(591,750,cs),
(573,717,o),
(547,699,o),
(520,681,cs),
(473,651,o),
(418,643,o),
(374,619,c),
(386,617,o),
(399,615,o),
(409,612,cs),
(498,579,o),
(507,498,o),
(500,431,cs)
);
}
);
visible = 1;
width = 483;
}
);
unicode = 1510;
},
{
glyphname = "qof-hb";
kernLeft = "qof-hb";
kernRight = "qof-hb";
layers = (
{
anchors = (
{
name = bottom;
pos = (321,0);
},
{
name = center;
pos = (337,290);
}
);
layerId = master01;
shapes = (
{
closed = 1;
nodes = (
(-65,-346,o),
(-77,-340,o),
(-77,-328,cs),
(-77,-300,o),
(-56,-248,o),
(-50,-218,cs),
(-37,-154,o),
(2,-25,o),
(35,102,cs),
(59,195,o),
(89,274,o),
(145,350,cs),
(163,375,o),
(174,382,o),
(197,382,cs),
(211,382,o),
(216,376,o),
(216,363,cs),
(216,343,o),
(194,331,o),
(171,261,cs),
(144,178,o),
(132,65,o),
(128,27,cs),
(120,-47,o),
(98,-201,o),
(70,-262,cs),
(52,-301,o),
(-21,-346,o),
(-54,-346,cs)
);
},
{
closed = 1;
nodes = (
(270,16,o),
(254,24,o),
(254,45,cs),
(254,65,o),
(264,81,o),
(291,96,cs),
(321,113,o),
(341,111,o),
(371,134,cs),
(443,185,o),
(511,272,o),
(511,371,cs),
(511,440,o),
(459,463,o),
(388,463,cs),
(343,463,o),
(292,455,o),
(247,455,cs),
(183,455,o),
(145,461,o),
(145,508,cs),
(145,548,o),
(181,634,o),
(193,660,cs),
(196,667,o),
(202,676,o),
(207,679,cs),
(216,684,o),
(227,686,o),
(241,686,cs),
(248,686,o),
(252,682,o),
(252,670,cs),
(252,628,o),
(284,627,o),
(334,627,cs),
(368,627,o),
(403,631,o),
(437,631,cs),
(552,631,o),
(585,605,o),
(585,461,cs),
(585,312,o),
(460,16,o),
(292,16,cs)
);
}
);
width = 580;
},
{
anchors = (
{
name = bottom;
pos = (421,0);
},
{
name = center;
pos = (411,303);
}
);
layerId = "48B243E4-A9BC-4CE2-9E97-0DBF8BE24EDB";
shapes = (
{
closed = 1;
nodes = (
(-17,-342,o),
(-33,-331,o),
(-33,-309,cs),
(-33,-281,o),
(-21,-246,o),
(-15,-216,cs),
(-2,-152,o),
(38,-25,o),
(71,102,cs),
(98,207,o),
(123,273,o),
(164,343,cs),
(178,368,o),
(214,382,o),
(237,382,cs),
(262,382,o),
(277,379,o),
(277,360,cs),
(277,346,o),
(274,331,o),
(251,261,cs),
(224,178,o),
(225,65,o),
(221,27,cs),
(213,-47,o),
(194,-180,o),
(166,-241,cs),
(148,-280,o),
(59,-342,o),
(6,-342,cs)
);
},
{
closed = 1;
nodes = (
(330,9,o),
(309,36,o),
(309,57,cs),
(309,77,o),
(324,107,o),
(366,127,cs),
(398,142,o),
(432,147,o),
(471,173,cs),
(525,209,o),
(590,272,o),
(590,371,cs),
(590,415,o),
(539,437,o),
(468,437,cs),
(403,437,o),
(332,428,o),
(287,428,cs),
(198,428,o),
(177,461,o),
(177,508,cs),
(177,548,o),
(220,647,o),
(232,673,cs),
(235,680,o),
(241,689,o),
(252,695,cs),
(262,701,o),
(293,707,o),
(314,707,cs),
(324,707,o),
(333,699,o),
(333,687,cs),
(333,660,o),
(354,649,o),
(374,649,cs),
(408,649,o),
(495,654,o),
(559,654,cs),
(664,654,o),
(716,618,o),
(716,461,cs),
(716,312,o),
(590,9,o),
(382,9,cs)
);
}
);
width = 675;
},
{
associatedMasterId = master01;
layerId = "51D70CF7-2125-40C5-8D1B-FD3443F4A762";
name = "Jun 13, 23 at 22:46";
shapes = (
{
closed = 1;
nodes = (
(235,337,o),
(220,291,o),
(206,245,cs),
(201,230,o),
(196,214,o),
(192,198,cs),
(187,180,o),
(182,162,o),
(180,144,cs),
(173,104,o),
(172,65,o),
(168,27,cs),
(160,-48,o),
(150,-123,o),
(131,-199,cs),
(125,-218,ls),
(121,-232,o),
(117,-249,o),
(110,-262,cs),
(93,-292,o),
(60,-316,o),
(31,-330,cs),
(17,-338,o),
(0,-346,o),
(-14,-346,cs),
(-21,-346,o),
(-27,-344,o),
(-32,-339,cs),
(-42,-331,o),
(-34,-309,o),
(-31,-297,cs),
(-30,-290,o),
(-29,-283,o),
(-27,-276,cs),
(-23,-261,o),
(-17,-246,o),
(-13,-230,cs),
(-11,-226,o),
(-10,-223,o),
(-9,-218,cs),
(-4,-200,o),
(-1,-182,o),
(3,-164,cs),
(7,-146,o),
(12,-126,o),
(17,-107,cs),
(31,-59,o),
(45,-11,o),
(58,37,cs),
(61,48,l),
(75,102,ls),
(89,153,o),
(104,203,o),
(127,253,cs),
(143,286,o),
(162,319,o),
(185,350,cs),
(191,358,o),
(201,376,o),
(210,381,cs),
(212,382,o),
(215,382,o),
(217,382,cs),
(224,382,l),
(259,382,l)
);
},
{
closed = 1;
nodes = (
(287,686,ls),
(297,686,o),
(290,664,o),
(292,657,cs),
(296,641,o),
(309,633,o),
(325,630,cs),
(341,628,o),
(357,627,o),
(374,627,cs),
(408,627,o),
(443,631,o),
(477,631,cs),
(492,631,o),
(507,630,o),
(522,628,cs),
(556,624,o),
(588,615,o),
(604,587,cs),
(619,563,o),
(623,530,o),
(625,500,cs),
(627,472,o),
(625,443,o),
(621,414,cs),
(617,391,o),
(612,367,o),
(606,343,cs),
(584,263,o),
(546,181,o),
(490,109,cs),
(453,62,o),
(388,16,o),
(332,16,cs),
(328,16,o),
(325,16,o),
(321,17,cs),
(315,18,o),
(312,22,o),
(308,25,cs),
(303,29,o),
(297,33,o),
(294,40,cs),
(294,43,o),
(294,48,o),
(295,52,cs),
(298,63,o),
(307,76,o),
(315,83,cs),
(343,109,o),
(381,111,o),
(411,134,cs),
(475,179,o),
(523,244,o),
(542,313,cs),
(544,320,o),
(545,327,o),
(546,335,cs),
(550,356,o),
(553,380,o),
(548,400,cs),
(532,452,o),
(482,463,o),
(428,463,cs),
(397,463,o),
(363,459,o),
(334,457,cs),
(318,456,o),
(303,455,o),
(287,455,cs),
(273,455,ls),
(244,455,o),
(213,456,o),
(195,477,cs),
(180,494,o),
(184,516,o),
(190,540,cs),
(191,543,o),
(192,546,o),
(192,550,cs),
(199,575,o),
(209,601,o),
(219,626,cs),
(224,638,o),
(229,651,o),
(234,663,cs),
(236,668,o),
(238,675,o),
(242,678,cs),
(253,687,o),
(273,685,o),
(285,686,cs)
);
}
);
width = 580;
},
{
anchors = (
{
name = bottom;
pos = (361,0);
},
{
name = center;
pos = (377,290);
}
);
associatedMasterId = "48B243E4-A9BC-4CE2-9E97-0DBF8BE24EDB";
layerId = "5EB15959-4068-4A5A-99ED-BE78C91B1085";
name = "Jun 15, 23 at 22:02";
shapes = (
{
closed = 1;
nodes = (
(284,358,o),
(268,313,o),
(254,268,cs),
(249,253,o),
(245,237,o),
(241,222,cs),
(236,205,o),
(232,188,o),
(230,171,cs),
(224,134,o),
(226,96,o),
(223,56,cs),
(218,-19,o),
(210,-95,o),
(190,-172,cs),
(188,-179,o),
(186,-185,o),
(184,-192,cs),
(182,-200,o),
(177,-223,o),
(165,-242,cs),
(142,-281,o),
(94,-309,o),
(66,-324,cs),
(50,-333,o),
(30,-342,o),
(8,-342,cs),
(-8,-342,o),
(-18,-336,o),
(-23,-332,cs),
(-23,-331,l),
(-23,-331,ls),
(-27,-326,o),
(-34,-321,o),
(-33,-303,cs),
(-33,-290,o),
(-29,-280,o),
(-28,-272,cs),
(-27,-264,o),
(-25,-257,o),
(-23,-250,cs),
(-19,-233,o),
(-13,-217,o),
(-9,-203,cs),
(-8,-199,o),
(-6,-195,o),
(-6,-192,cs),
(-1,-175,o),
(2,-157,o),
(6,-139,cs),
(11,-120,o),
(15,-100,o),
(20,-81,cs),
(33,-33,o),
(48,15,o),
(60,62,cs),
(61,66,o),
(62,70,o),
(63,74,cs),
(68,91,o),
(73,109,o),
(77,127,cs),
(91,178,o),
(105,229,o),
(130,281,cs),
(146,317,o),
(166,351,o),
(189,383,cs),
(196,393,o),
(202,403,o),
(211,412,cs),
(216,418,o),
(221,422,o),
(227,425,cs),
(235,429,o),
(242,430,o),
(247,430,cs),
(252,430,o),
(254,430,o),
(255,430,cs),
(327,430,l),
(308,398,ls)
);
},
{
closed = 1;
nodes = (
(306,707,o),
(308,707,o),
(309,707,cs),
(310,707,l),
(312,707,ls),
(312,707,o),
(331,707,o),
(333,685,cs),
(335,665,o),
(332,665,o),
(332,665,cs),
(334,657,o),
(344,653,o),
(351,652,cs),
(368,650,o),
(385,649,o),
(404,649,cs),
(442,649,o),
(483,652,o),
(524,652,cs),
(543,652,o),
(562,651,o),
(580,650,cs),
(620,646,o),
(668,636,o),
(690,602,cs),
(700,587,o),
(710,563,o),
(714,509,cs),
(717,481,o),
(715,451,o),
(711,422,cs),
(708,398,o),
(703,374,o),
(697,350,cs),
(675,269,o),
(636,186,o),
(578,113,cs),
(540,63,o),
(458,10,o),
(378,10,cs),
(373,10,o),
(367,10,o),
(362,11,cs),
(362,11,l),
(361,11,ls),
(349,14,o),
(350,14,o),
(348,15,cs),
(347,15,o),
(347,15,o),
(347,15,cs),
(346,16,o),
(345,16,o),
(344,17,cs),
(341,19,o),
(338,21,o),
(337,21,cs),
(333,23,o),
(326,27,o),
(320,33,cs),
(317,36,o),
(314,39,o),
(312,45,cs),
(312,46,o),
(309,51,o),
(310,62,cs),
(310,64,o),
(311,67,o),
(311,68,cs),
(315,82,o),
(326,99,o),
(343,113,cs),
(381,142,o),
(429,146,o),
(457,164,cs),
(521,204,o),
(568,259,o),
(583,317,cs),
(585,323,o),
(586,329,o),
(587,335,cs),
(592,367,o),
(590,379,o),
(586,388,cs),
(568,427,o),
(522,437,o),
(463,437,cs),
(428,437,o),
(391,433,o),
(355,431,cs),
(337,430,o),
(319,429,o),
(300,429,cs),
(294,429,o),
(289,429,o),
(284,429,cs),
(250,429,o),
(213,431,o),
(192,457,cs),
(174,477,o),
(174,501,o),
(183,538,cs),
(184,541,o),
(184,544,o),
(185,547,cs),
(192,574,o),
(202,601,o),
(212,626,cs),
(217,639,o),
(223,652,o),
(227,664,cs),
(231,673,o),
(232,674,o),
(232,675,cs),
(235,680,o),
(239,686,o),
(245,692,cs),
(246,692,l),
(246,693,ls),
(251,696,o),
(257,702,o),
(273,705,cs),
(287,708,o),
(300,707,o),
(305,707,cs)
);
}
);
visible = 1;
width = 675;
}
);
unicode = 1511;
},
{
glyphname = "resh-hb";
kernLeft = "resh-hb";
kernRight = "resh-hb";
layers = (
{
anchors = (
{
name = bottom;
pos = (176,0);
},
{
name = center;
pos = (270,329);
}
);
layerId = master01;
shapes = (
{
closed = 1;
nodes = (
(175,-25,o),
(165,-10,o),
(165,9,cs),
(165,28,o),
(175,49,o),
(190,60,cs),
(328,163,o),
(422,269,o),
(422,386,cs),
(422,468,o),
(335,471,o),
(285,471,cs),
(252,471,o),
(222,466,o),
(186,466,cs),
(124,466,o),
(94,477,o),
(94,520,cs),
(94,548,o),
(119,635,o),
(135,667,cs),
(138,672,o),
(145,688,o),
(152,691,cs),
(162,696,o),
(173,698,o),
(181,698,cs),
(189,698,o),
(192,691,o),
(192,681,cs),
(192,638,o),
(212,631,o),
(254,631,cs),
(301,631,o),
(328,636,o),
(355,636,cs),
(462,636,o),
(494,577,o),
(494,470,cs),
(494,322,o),
(355,-25,o),
(201,-25,cs)
);
}
);
width = 501;
},
{
anchors = (
{
name = bottom;
pos = (193,0);
},
{
name = center;
pos = (234,297);
}
);
layerId = "48B243E4-A9BC-4CE2-9E97-0DBF8BE24EDB";
shapes = (
{
closed = 1;
nodes = (
(188,-23,o),
(172,4,o),
(172,29,cs),
(172,53,o),
(181,76,o),
(207,93,cs),
(346,183,o),
(449,276,o),
(449,373,cs),
(449,425,o),
(416,446,o),
(306,446,cs),
(283,446,o),
(227,443,o),
(181,443,cs),
(119,443,o),
(71,458,o),
(71,508,cs),
(71,546,o),
(101,628,o),
(116,660,cs),
(123,675,o),
(130,683,o),
(137,689,cs),
(146,696,o),
(173,702,o),
(207,702,cs),
(215,702,o),
(220,695,o),
(220,685,cs),
(220,667,o),
(227,656,o),
(269,656,cs),
(306,656,o),
(333,660,o),
(396,660,cs),
(527,660,o),
(570,617,o),
(570,470,cs),
(570,322,o),
(435,-23,o),
(234,-23,cs)
);
}
);
width = 597;
},
{
associatedMasterId = master01;
layerId = "68D388DD-24BB-414A-85E4-EF2B34511B7B";
name = "Jun 14, 23 at 13:22";
shapes = (
{
closed = 1;
nodes = (
(138,697,l),
(149,697,ls),
(151,697,o),
(155,698,o),
(157,698,cs),
(159,698,o),
(160,698,o),
(161,697,cs),
(165,694,o),
(162,681,o),
(162,676,cs),
(163,658,o),
(167,645,o),
(185,640,cs),
(204,635,o),
(223,634,o),
(244,634,cs),
(271,634,o),
(298,636,o),
(325,636,cs),
(356,636,o),
(386,632,o),
(411,617,cs),
(449,595,o),
(458,542,o),
(462,498,cs),
(465,448,o),
(458,394,o),
(444,340,cs),
(425,273,o),
(396,206,o),
(360,145,cs),
(336,106,o),
(311,68,o),
(278,34,cs),
(262,16,o),
(245,-1,o),
(222,-11,cs),
(207,-19,o),
(187,-25,o),
(171,-25,cs),
(156,-25,o),
(143,-20,o),
(138,-7,cs),
(134,2,o),
(134,13,o),
(136,24,cs),
(140,35,o),
(146,46,o),
(156,55,cs),
(168,67,o),
(184,76,o),
(197,87,cs),
(211,97,o),
(223,108,o),
(235,118,cs),
(304,181,o),
(362,249,o),
(385,333,cs),
(395,372,o),
(397,411,o),
(374,438,cs),
(358,457,o),
(330,466,o),
(304,468,cs),
(288,470,o),
(271,471,o),
(255,471,cs),
(222,471,o),
(189,468,o),
(156,468,cs),
(117,468,o),
(71,472,o),
(64,515,cs),
(63,522,o),
(65,531,o),
(66,538,cs),
(68,551,o),
(71,564,o),
(75,576,cs),
(82,603,ls),
(90,634,o),
(106,666,o),
(118,697,c)
);
}
);
width = 501;
},
{
anchors = (
{
name = bottom;
pos = (186,0);
},
{
name = center;
pos = (240,329);
}
);
associatedMasterId = "48B243E4-A9BC-4CE2-9E97-0DBF8BE24EDB";
layerId = "4462E2B1-3062-4CC8-B53F-D61A5097258B";
name = "Jun 15, 23 at 23:38";
shapes = (
{
closed = 1;
nodes = (
(160,702,o),
(167,702,o),
(174,702,cs),
(177,702,o),
(181,702,o),
(184,702,cs),
(184,702,o),
(184,702,o),
(185,702,cs),
(186,702,o),
(188,703,o),
(193,703,cs),
(198,703,o),
(207,699,o),
(209,697,cs),
(210,697,l),
(210,697,ls),
(211,695,o),
(217,691,o),
(218,688,cs),
(221,681,o),
(221,673,o),
(221,673,cs),
(222,666,o),
(224,662,o),
(235,660,cs),
(254,657,o),
(275,656,o),
(298,656,cs),
(327,656,o),
(359,658,o),
(391,658,cs),
(430,658,o),
(470,655,o),
(505,638,cs),
(555,612,o),
(566,551,o),
(569,510,cs),
(573,459,o),
(567,405,o),
(552,351,cs),
(535,284,o),
(505,218,o),
(468,157,cs),
(445,119,o),
(419,80,o),
(385,45,cs),
(367,26,o),
(343,7,o),
(312,-6,cs),
(290,-15,o),
(264,-23,o),
(238,-23,cs),
(212,-23,o),
(190,-15,o),
(179,3,cs),
(172,16,o),
(170,30,o),
(174,45,cs),
(178,61,o),
(188,77,o),
(204,90,cs),
(222,105,o),
(239,112,o),
(254,122,cs),
(267,131,o),
(281,141,o),
(294,151,cs),
(367,208,o),
(424,268,o),
(443,338,cs),
(453,375,o),
(450,402,o),
(429,420,cs),
(421,428,o),
(402,439,o),
(359,444,cs),
(342,445,o),
(324,446,o),
(306,446,cs),
(269,446,o),
(230,443,o),
(191,443,cs),
(151,443,o),
(83,444,o),
(72,500,cs),
(70,511,o),
(73,522,o),
(74,529,cs),
(76,542,o),
(79,554,o),
(82,566,cs),
(84,575,o),
(87,583,o),
(89,591,cs),
(98,624,o),
(113,654,o),
(124,682,cs),
(132,702,l),
(153,702,ls)
);
}
);
visible = 1;
width = 597;
}
);
unicode = 1512;
},
{
glyphname = "shin-hb";
kernLeft = "shin-hb";
kernRight = "shin-hb";
layers = (
{
anchors = (
{
name = bottom;
pos = (273,0);
},
{
name = bottomleft;
pos = (44,0);
},
{
name = center;
pos = (310,327);
},
{
name = top;
pos = (409,685);
},
{
name = topleft;
pos = (255,626);
},
{
name = topright;
pos = (625,638);
}
);
layerId = master01;
shapes = (
{
closed = 1;
nodes = (
(7,-89,o),
(-4,-83,o),
(-4,-64,cs),
(-4,-45,o),
(13,-23,o),
(30,32,cs),
(160,442,ls),
(163,450,o),
(165,459,o),
(165,468,cs),
(165,474,o),
(161,476,o),
(154,478,cs),
(127,485,o),
(120,490,o),
(120,501,cs),
(120,508,o),
(125,515,o),
(128,520,cs),
(227,672,ls),
(239,691,o),
(244,694,o),
(249,697,cs),
(256,701,o),
(277,702,o),
(286,702,cs),
(292,702,o),
(295,698,o),
(295,691,cs),
(295,640,o),
(304,635,o),
(436,635,cs),
(558,635,o),
(578,667,o),
(595,685,cs),
(603,693,o),
(614,698,o),
(631,698,cs),
(639,698,o),
(644,693,o),
(644,686,cs),
(644,617,o),
(530,465,o),
(437,465,cs),
(349,465,o),
(310,472,o),
(278,472,cs),
(248,472,o),
(243,470,o),
(237,466,cs),
(232,463,o),
(229,456,o),
(223,435,cs),
(157,212,ls),
(153,199,o),
(151,189,o),
(151,181,cs),
(151,168,o),
(156,160,o),
(281,160,cs),
(374,160,o),
(447,222,o),
(484,307,cs),
(493,328,o),
(500,340,o),
(510,347,cs),
(518,353,o),
(527,355,o),
(536,355,cs),
(545,355,o),
(549,348,o),
(548,330,cs),
(541,208,o),
(424,-7,o),
(249,-7,cs),
(194,-7,o),
(159,3,o),
(138,3,cs),
(94,3,o),
(81,-42,o),
(57,-74,cs),
(48,-86,o),
(36,-89,o),
(20,-89,cs)
);
}
);
width = 580;
},
{
anchors = (
{
name = bottom;
pos = (273,0);
},
{
name = bottomleft;
pos = (44,0);
},
{
name = center;
pos = (371,333);
},
{
name = top;
pos = (389,685);
},
{
name = topleft;
pos = (327,627);
},
{
name = topright;
pos = (720,642);
}
);
layerId = "48B243E4-A9BC-4CE2-9E97-0DBF8BE24EDB";
shapes = (
{
closed = 1;
nodes = (
(8,-87,o),
(-4,-83,o),
(-4,-64,cs),
(-4,-45,o),
(14,-23,o),
(32,32,cs),
(154,416,ls),
(157,424,o),
(160,433,o),
(160,442,cs),
(160,448,o),
(156,452,o),
(149,454,cs),
(132,459,o),
(119,471,o),
(119,482,cs),
(119,489,o),
(122,502,o),
(129,513,cs),
(227,660,ls),
(240,679,o),
(250,690,o),
(262,697,cs),
(275,704,o),
(314,707,o),
(327,707,cs),
(336,707,o),
(342,700,o),
(342,690,cs),
(342,650,o),
(346,641,o),
(466,641,cs),
(578,641,o),
(616,660,o),
(651,686,cs),
(667,698,o),
(680,703,o),
(697,703,cs),
(721,703,o),
(730,688,o),
(730,671,cs),
(730,572,o),
(623,443,o),
(470,443,cs),
(412,443,o),
(345,450,o),
(323,450,cs),
(293,450,o),
(288,448,o),
(282,444,cs),
(277,441,o),
(274,434,o),
(268,413,cs),
(224,262,ls),
(220,249,o),
(218,239,o),
(218,231,cs),
(218,218,o),
(223,210,o),
(348,210,cs),
(441,210,o),
(510,270,o),
(545,351,cs),
(556,376,o),
(570,387,o),
(583,393,cs),
(599,400,o),
(627,403,o),
(636,403,cs),
(651,403,o),
(659,396,o),
(658,378,cs),
(651,226,o),
(497,-7,o),
(322,-7,cs),
(247,-7,o),
(212,5,o),
(191,5,cs),
(167,5,o),
(157,0,o),
(125,-52,cs),
(110,-77,o),
(77,-87,o),
(21,-87,cs)
);
}
);
width = 675;
},
{
associatedMasterId = master01;
layerId = "992BD937-0F07-4EC0-94D1-020398D1D6E2";
name = "Jun 14, 23 at 13:52";
shapes = (
{
closed = 1;
nodes = (
(295,702,l),
(288,676,o),
(292,653,o),
(315,643,cs),
(322,640,o),
(331,641,o),
(340,640,cs),
(353,638,o),
(366,638,o),
(380,637,cs),
(399,636,o),
(418,635,o),
(436,635,cs),
(464,635,o),
(493,637,o),
(523,643,cs),
(551,649,o),
(584,669,o),
(597,698,c),
(649,698,l),
(642,671,o),
(627,641,o),
(612,615,cs),
(598,589,o),
(584,564,o),
(567,540,cs),
(561,532,o),
(555,521,o),
(547,513,cs),
(523,493,o),
(488,482,o),
(460,476,cs),
(434,470,o),
(410,468,o),
(385,468,cs),
(350,468,o),
(314,472,o),
(278,472,cs),
(264,472,o),
(248,471,o),
(233,470,c),
(213,396,o),
(189,323,o),
(169,250,c),
(169,249,l),
(166,238,ls),
(163,225,o),
(159,211,o),
(154,198,cs),
(153,196,o),
(151,191,o),
(149,186,cs),
(149,182,o),
(148,179,o),
(149,176,cs),
(153,172,o),
(165,170,o),
(171,169,cs),
(192,164,o),
(215,164,o),
(238,162,cs),
(252,161,o),
(266,160,o),
(281,160,cs),
(303,160,o),
(327,162,o),
(351,171,cs),
(431,199,o),
(480,284,o),
(502,355,c),
(555,355,l),
(534,277,o),
(505,198,o),
(460,125,cs),
(445,98,o),
(425,67,o),
(402,45,cs),
(377,22,o),
(345,8,o),
(315,1,cs),
(292,-5,o),
(271,-7,o),
(249,-7,cs),
(226,-7,o),
(203,-5,o),
(182,-3,cs),
(168,-1,o),
(152,3,o),
(138,3,cs),
(132,3,o),
(126,2,o),
(121,1,cs),
(84,-10,o),
(79,-54,o),
(54,-77,cs),
(42,-87,o),
(27,-89,o),
(14,-89,cs),
(6,-89,o),
(-1,-88,o),
(-8,-88,c),
(-5,-82,o),
(-2,-75,o),
(0,-68,cs),
(2,-58,ls),
(2,-55,o),
(4,-52,o),
(5,-50,cs),
(14,-22,o),
(22,5,o),
(30,32,cs),
(107,277,ls),
(121,319,o),
(133,361,o),
(147,402,cs),
(152,415,o),
(155,428,o),
(160,442,cs),
(162,449,o),
(166,456,o),
(168,463,c),
(168,466,o),
(168,468,o),
(168,470,cs),
(169,475,o),
(159,477,o),
(154,478,cs),
(143,482,o),
(115,488,o),
(120,505,c),
(120,505,l),
(121,511,o),
(127,517,o),
(131,522,cs),
(155,560,l),
(208,643,ls),
(221,662,o),
(236,683,o),
(246,702,c)
);
}
);
width = 580;
},
{
anchors = (
{
name = bottom;
pos = (273,0);
},
{
name = bottomleft;
pos = (44,0);
},
{
name = center;
pos = (310,327);
},
{
name = top;
pos = (409,685);
},
{
name = topleft;
pos = (150,615);
},
{
name = topright;
pos = (601,629);
}
);
associatedMasterId = "48B243E4-A9BC-4CE2-9E97-0DBF8BE24EDB";
layerId = "93226534-E35D-46EC-9A8D-F521DADE6658";
name = "Jun 15, 23 at 23:52";
shapes = (
{
closed = 1;
nodes = (
(223,655,o),
(236,673,o),
(244,688,cs),
(253,707,l),
(347,707,l),
(341,682,ls),
(333,653,o),
(349,649,o),
(355,646,cs),
(358,645,o),
(366,645,o),
(377,645,cs),
(393,644,o),
(408,642,o),
(423,642,cs),
(445,641,o),
(466,640,o),
(488,640,cs),
(520,640,o),
(551,642,o),
(583,647,cs),
(610,652,o),
(633,668,o),
(641,683,cs),
(651,703,l),
(747,703,l),
(741,679,ls),
(733,650,o),
(717,621,o),
(703,595,cs),
(690,572,o),
(675,548,o),
(658,524,cs),
(652,516,o),
(646,504,o),
(633,492,cs),
(599,464,o),
(542,454,o),
(522,451,cs),
(490,445,o),
(458,443,o),
(429,443,cs),
(384,443,o),
(343,447,o),
(303,447,cs),
(295,447,o),
(286,447,o),
(278,446,c),
(261,386,o),
(241,327,o),
(226,268,cs),
(226,268,ls),
(225,264,o),
(224,261,o),
(223,258,cs),
(220,245,o),
(216,232,o),
(211,219,cs),
(211,218,l),
(213,218,o),
(216,217,o),
(218,217,cs),
(239,213,o),
(265,213,o),
(293,212,cs),
(310,211,o),
(326,210,o),
(341,210,cs),
(366,210,o),
(390,212,o),
(413,219,cs),
(486,241,o),
(534,311,o),
(556,380,cs),
(563,403,l),
(666,403,l),
(659,379,ls),
(638,300,o),
(609,219,o),
(563,142,cs),
(557,133,o),
(530,84,o),
(499,55,cs),
(482,40,o),
(446,17,o),
(386,3,cs),
(358,-3,o),
(331,-5,o),
(305,-5,cs),
(277,-5,o),
(251,-3,o),
(226,-1,cs),
(213,0,o),
(190,5,o),
(178,5,cs),
(173,5,o),
(170,4,o),
(168,4,cs),
(148,-2,o),
(141,-42,o),
(108,-67,cs),
(106,-69,o),
(96,-77,o),
(78,-82,cs),
(64,-86,o),
(52,-87,o),
(43,-87,cs),
(34,-87,o),
(28,-86,o),
(22,-86,cs),
(-9,-86,l),
(6,-56,ls),
(8,-53,o),
(9,-49,o),
(11,-42,cs),
(12,-39,o),
(13,-35,o),
(14,-32,cs),
(15,-27,o),
(16,-24,o),
(17,-21,cs),
(25,3,o),
(33,29,o),
(40,54,cs),
(64,131,o),
(89,207,o),
(112,283,cs),
(124,322,o),
(136,361,o),
(149,400,cs),
(153,412,o),
(156,425,o),
(161,439,cs),
(162,442,o),
(164,445,o),
(165,448,c),
(155,451,o),
(133,457,o),
(124,470,cs),
(122,474,o),
(117,483,o),
(120,496,cs),
(120,496,o),
(120,497,o),
(121,497,cs),
(121,498,l),
(121,498,ls),
(123,502,o),
(123,505,o),
(129,514,cs),
(132,517,ls),
(132,518,o),
(134,520,o),
(134,521,cs),
(210,636,ls)
);
}
);
visible = 1;
width = 675;
}
);
unicode = 1513;
},
{
glyphname = "tav-hb";
kernLeft = "tav-hb";
kernRight = "tav-hb";
layers = (
{
anchors = (
{
name = bottom;
pos = (165,0);
},
{
name = center;
pos = (366,330);
}
);
layerId = master01;
shapes = (
{
closed = 1;
nodes = (
(6,-27,o),
(-1,-18,o),
(-1,0,cs),
(-1,74,o),
(25,124,o),
(75,143,cs),
(94,150,o),
(101,156,o),
(104,168,cs),
(122,240,o),
(130,311,o),
(134,325,cs),
(145,364,o),
(170,401,o),
(201,431,cs),
(211,441,o),
(219,450,o),
(219,458,cs),
(219,466,o),
(205,471,o),
(196,478,cs),
(187,485,o),
(183,498,o),
(183,511,cs),
(182,550,o),
(216,635,o),
(227,660,cs),
(233,673,o),
(239,678,o),
(244,680,cs),
(255,685,o),
(268,688,o),
(279,688,cs),
(288,688,o),
(292,683,o),
(292,660,cs),
(292,638,o),
(308,627,o),
(341,627,cs),
(366,627,o),
(422,629,o),
(457,629,cs),
(577,629,o),
(606,574,o),
(606,467,cs),
(606,290,o),
(466,23,o),
(332,23,cs),
(313,23,o),
(291,28,o),
(291,48,cs),
(291,70,o),
(297,90,o),
(311,100,cs),
(341,122,o),
(365,125,o),
(391,140,cs),
(462,181,o),
(534,298,o),
(534,376,cs),
(535,450,o),
(483,464,o),
(335,464,cs),
(308,464,o),
(301,460,o),
(280,440,cs),
(255,417,o),
(232,392,o),
(219,362,cs),
(210,343,o),
(207,311,o),
(207,263,cs),
(207,216,o),
(212,157,o),
(212,118,cs),
(213,17,o),
(148,-27,o),
(31,-27,cs)
);
}
);
width = 580;
},
{
anchors = (
{
name = bottom;
pos = (165,0);
},
{
name = center;
pos = (412,319);
}
);
layerId = "48B243E4-A9BC-4CE2-9E97-0DBF8BE24EDB";
shapes = (
{
closed = 1;
nodes = (
(23,-25,o),
(1,-18,o),
(1,0,cs),
(1,74,o),
(25,149,o),
(75,172,cs),
(94,181,o),
(101,185,o),
(104,197,cs),
(122,269,o),
(126,322,o),
(130,336,cs),
(141,375,o),
(157,400,o),
(188,431,cs),
(194,437,o),
(198,442,o),
(198,450,cs),
(198,458,o),
(190,461,o),
(184,471,cs),
(178,480,o),
(175,498,o),
(175,511,cs),
(174,550,o),
(212,635,o),
(223,660,cs),
(229,673,o),
(237,679,o),
(250,687,cs),
(265,696,o),
(312,704,o),
(323,704,cs),
(332,704,o),
(336,699,o),
(336,676,cs),
(336,654,o),
(347,649,o),
(380,649,cs),
(405,649,o),
(464,652,o),
(499,652,cs),
(659,652,o),
(696,594,o),
(696,457,cs),
(696,280,o),
(534,7,o),
(380,7,cs),
(351,7,o),
(313,14,o),
(313,48,cs),
(313,70,o),
(319,104,o),
(333,117,cs),
(360,142,o),
(422,151,o),
(456,176,cs),
(522,224,o),
(571,297,o),
(571,376,cs),
(571,410,o),
(524,441,o),
(376,441,cs),
(349,441,o),
(327,429,o),
(316,419,cs),
(304,409,o),
(283,392,o),
(270,362,cs),
(261,343,o),
(265,311,o),
(265,263,cs),
(265,216,o),
(278,187,o),
(278,148,cs),
(279,17,o),
(195,-25,o),
(48,-25,cs)
);
}
);
width = 674;
},
{
associatedMasterId = master01;
layerId = "7AEC324C-335A-48FE-AD2A-63011C03003A";
name = "Jun 14, 23 at 14:13";
shapes = (
{
closed = 1;
nodes = (
(215,463,o),
(198,468,o),
(190,478,cs),
(175,497,o),
(176,526,o),
(184,554,cs),
(190,579,o),
(201,604,o),
(210,625,cs),
(216,641,o),
(222,656,o),
(227,671,c),
(227,672,l),
(228,673,o),
(229,677,o),
(229,679,cs),
(230,683,o),
(231,685,o),
(233,686,cs),
(235,687,o),
(237,687,o),
(240,687,cs),
(247,687,l),
(247,687,l),
(259,687,o),
(270,688,o),
(281,688,c),
(280,673,o),
(283,657,o),
(292,647,cs),
(308,628,o),
(343,627,o),
(370,627,cs),
(399,627,ls),
(435,627,o),
(472,627,o),
(507,620,cs),
(537,615,o),
(565,605,o),
(580,580,cs),
(588,568,o),
(591,554,o),
(593,538,cs),
(598,515,o),
(601,491,o),
(600,467,cs),
(600,427,o),
(594,386,o),
(583,347,cs),
(565,277,o),
(532,209,o),
(487,145,cs),
(451,94,o),
(386,23,o),
(326,23,cs),
(315,23,o),
(306,25,o),
(296,29,cs),
(280,36,o),
(286,61,o),
(290,77,cs),
(290,80,o),
(291,83,o),
(292,85,cs),
(292,89,o),
(294,92,o),
(299,96,cs),
(325,116,o),
(357,124,o),
(385,140,cs),
(417,158,o),
(447,188,o),
(468,217,cs),
(494,253,o),
(509,291,o),
(519,330,cs),
(521,337,ls),
(528,365,o),
(532,393,o),
(519,416,cs),
(496,459,o),
(446,462,o),
(395,462,cs),
(362,462,ls),
(349,462,o),
(334,464,o),
(320,464,cs),
(313,464,o),
(308,464,o),
(301,463,cs),
(292,461,o),
(281,447,o),
(274,440,cs),
(250,417,o),
(226,392,o),
(213,362,cs),
(210,356,o),
(208,349,o),
(207,343,cs),
(199,314,o),
(201,287,o),
(202,260,cs),
(203,235,o),
(201,210,o),
(203,186,cs),
(205,151,o),
(210,118,o),
(200,82,cs),
(199,77,o),
(198,73,o),
(196,68,cs),
(187,43,o),
(174,15,o),
(150,-3,cs),
(142,-10,o),
(126,-13,o),
(117,-15,cs),
(88,-22,o),
(60,-27,o),
(33,-27,cs),
(27,-27,o),
(20,-27,o),
(13,-27,cs),
(8,-27,o),
(3,-27,o),
(0,-24,cs),
(-7,-20,o),
(-5,-3,o),
(-4,5,cs),
(-3,17,o),
(0,29,o),
(3,41,cs),
(11,70,ls),
(12,77,o),
(14,84,o),
(16,92,cs),
(17,97,o),
(19,101,o),
(21,105,cs),
(30,123,o),
(52,134,o),
(69,143,cs),
(75,146,o),
(90,150,o),
(94,157,c),
(96,160,o),
(97,164,o),
(98,168,cs),
(101,177,o),
(102,187,o),
(104,195,cs),
(110,222,o),
(117,248,o),
(122,274,cs),
(124,291,o),
(123,307,o),
(128,325,cs),
(141,375,o),
(184,424,o),
(227,459,c)
);
}
);
width = 580;
},
{
anchors = (
{
name = bottom;
pos = (165,0);
},
{
name = center;
pos = (366,330);
}
);
associatedMasterId = "48B243E4-A9BC-4CE2-9E97-0DBF8BE24EDB";
layerId = "689EE6B6-1B0E-4E40-B970-C841654C794C";
name = "Jun 16, 23 at 00:14";
shapes = (
{
closed = 1;
nodes = (
(202,453,o),
(197,457,o),
(192,461,cs),
(170,486,o),
(173,521,o),
(181,551,cs),
(188,577,o),
(199,603,o),
(207,622,cs),
(213,636,o),
(218,650,o),
(223,664,cs),
(224,666,o),
(223,666,o),
(224,671,cs),
(227,681,o),
(233,690,o),
(242,696,cs),
(250,701,o),
(257,703,o),
(266,703,cs),
(272,703,o),
(273,703,o),
(274,703,cs),
(285,703,o),
(298,704,o),
(313,704,cs),
(334,704,l),
(335,687,ls),
(335,681,o),
(336,668,o),
(343,662,cs),
(354,653,o),
(377,650,o),
(417,650,cs),
(428,650,o),
(438,650,o),
(449,650,cs),
(491,650,o),
(533,649,o),
(575,643,cs),
(612,637,o),
(651,626,o),
(671,596,cs),
(682,580,o),
(685,559,o),
(687,549,cs),
(692,525,o),
(695,500,o),
(695,474,cs),
(695,433,o),
(689,391,o),
(678,349,cs),
(659,278,o),
(625,207,o),
(579,142,cs),
(562,117,o),
(479,7,o),
(380,7,cs),
(365,7,o),
(350,10,o),
(336,16,cs),
(336,16,l),
(335,16,ls),
(329,20,o),
(316,25,o),
(313,47,cs),
(311,60,o),
(315,76,o),
(316,83,cs),
(317,86,o),
(317,88,o),
(318,92,cs),
(321,103,o),
(328,113,o),
(339,121,cs),
(376,145,o),
(405,149,o),
(439,166,cs),
(474,183,o),
(502,213,o),
(517,231,cs),
(541,262,o),
(555,296,o),
(564,332,cs),
(564,333,o),
(565,337,o),
(566,338,cs),
(572,364,o),
(574,385,o),
(563,401,cs),
(541,432,o),
(496,437,o),
(439,437,cs),
(426,437,o),
(414,437,o),
(401,437,cs),
(384,437,o),
(367,439,o),
(354,439,cs),
(349,439,o),
(345,439,o),
(342,438,c),
(327,425,ls),
(301,403,o),
(280,384,o),
(271,362,cs),
(269,358,o),
(267,353,o),
(266,348,cs),
(260,326,o),
(262,303,o),
(266,277,cs),
(269,253,o),
(268,229,o),
(271,208,cs),
(275,176,o),
(283,143,o),
(273,102,cs),
(271,97,o),
(270,92,o),
(268,87,cs),
(249,38,o),
(225,17,o),
(209,6,cs),
(207,5,o),
(202,1,o),
(191,-3,cs),
(190,-4,o),
(188,-4,o),
(186,-5,cs),
(174,-9,o),
(160,-11,o),
(157,-12,cs),
(123,-19,o),
(90,-24,o),
(58,-24,cs),
(54,-24,o),
(47,-25,o),
(39,-25,cs),
(39,-25,o),
(39,-25,o),
(39,-25,cs),
(38,-25,o),
(32,-25,o),
(30,-25,cs),
(29,-24,o),
(27,-24,o),
(26,-24,cs),
(24,-23,o),
(21,-23,o),
(21,-22,cs),
(17,-21,o),
(16,-20,o),
(15,-19,cs),
(13,-17,o),
(8,-12,o),
(6,-10,cs),
(0,3,o),
(2,22,o),
(2,25,cs),
(3,39,o),
(6,52,o),
(9,64,cs),
(12,74,o),
(15,83,o),
(17,91,cs),
(18,97,o),
(19,103,o),
(22,112,cs),
(24,121,o),
(26,126,o),
(28,130,cs),
(41,155,o),
(66,169,o),
(92,181,cs),
(97,183,o),
(100,185,o),
(103,186,c),
(104,192,o),
(105,202,o),
(107,210,cs),
(113,235,o),
(120,260,o),
(123,283,cs),
(126,297,o),
(123,312,o),
(129,333,cs),
(141,377,o),
(172,418,o),
(208,450,c)
);
}
);
visible = 1;
width = 674;
}
);
unicode = 1514;
},
{
color = 4;
glyphname = "yodhiriq-hb";
kernLeft = "yod-hb";
kernRight = "yod-hb";
layers = (
{
layerId = master01;
shapes = (
{
ref = "yod-hb";
}
);
width = 270;
},
{
associatedMasterId = master01;
layerId = "143AD760-3ED5-4471-B105-A28000F49672";
name = "May 13, 21, 11:45";
shapes = (
{
closed = 1;
nodes = (
(97.3,688.1,l),
(98,687.4,l)
);
},
{
closed = 1;
nodes = (
(97.3,687.4,l),
(96.6,682.5,o),
(95.2,677.6,o),
(95.9,672.7,cs),
(97.3,664.3,o),
(100.1,651.7,o),
(105,644.7,cs),
(126.7,611.8,o),
(175,604.1,o),
(207.2,586.6,cs),
(231,573.3,o),
(251.3,551.6,o),
(256.2,524.3,cs),
(258.3,511,o),
(257.6,497.7,o),
(256.9,484.4,cs),
(252,412.3,o),
(224,343,o),
(179.2,287,cs),
(169.4,274.4,o),
(158.9,262.5,o),
(147.7,252,cs),
(140.7,245,o),
(133.7,238.7,o),
(123.2,242.9,cs),
(118.3,245,o),
(112.7,252.7,o),
(109.2,256.9,cs),
(105,260.4,o),
(98.7,265.3,o),
(97.3,270.2,cs),
(95.9,275.1,o),
(102.2,279.3,o),
(105,282.1,cs),
(113.4,290.5,o),
(121.8,300.3,o),
(130.2,310.1,cs),
(153.3,338.8,o),
(185.5,383.6,o),
(169.4,424.2,cs),
(165.2,434,o),
(144.2,441,o),
(135.1,445.2,cs),
(105.7,457.8,o),
(72.8,467.6,o),
(47.6,488.6,cs),
(2.1,526.4,o),
(21.7,598.5,o),
(39.9,645.4,cs),
(44.1,657.3,o),
(51.1,669.2,o),
(54.6,681.8,c)
);
},
{
closed = 1;
nodes = (
(98.7,215.6,o),
(123.9,163.1,o),
(89.6,139.3,cs),
(84.7,135.8,o),
(78.4,133.7,o),
(72.8,133,cs),
(25.9,124.6,o),
(11.9,200.2,o),
(59.5,208.6,cs)
);
}
);
width = 270;
},
{
layerId = "48B243E4-A9BC-4CE2-9E97-0DBF8BE24EDB";
shapes = (
{
ref = "yod-hb";
}
);
width = 367;
}
);
unicode = 64285;
},
